<svg xmlns="http://www.w3.org/2000/svg" width="786.615" height="766.168" viewBox="0 0 786.615 766.168">
  <g id="Group_731" data-name="Group 731" transform="translate(0 0)">
    <g id="Group_732" data-name="Group 732" transform="translate(0 0)">
      <path id="Path_41953" data-name="Path 41953" d="M1742.964,1469.707c2.208-1.522,3.255-3.125,6.12-3.386s5.078.261,5.99-.651,1.693-5.73,4.167-6.771,5.9-2.121,7.5-1.563,3.746,4.542,5.26,3.268,1.593-3.985,1.912-5.1-.558-3.666-.876-4.781-2.471-1.993-1.833-3.188-.08-2.232.638-3.507-.16-2.311.956-2.948.08-1.435.16-2.55-1.833-4.383-.4-4.941,4.3-.4,6.137,0,2.072,6.933,2.232,8.766,1.355,5.021,1.594,6.695-.956,6.216-.877,7.252-1.673,5.26-.876,7.411,3.984,4.224,5.419,6.774,1.514,12.113,2.232,14.983,3.347,18.807,2.391,22.474-7.093,9.484-7.013,12.432-.08,21.517-.159,23.191.557,2.869-.957,3.905-3.506.717-4.383,2.072-1.435,3.028.08,3.028,3.188-1.913,3.347-.558-1.434,2.709-2.391,3.745-2.152,3.108-2.072,4.144.478,1.753-.08,2.71-1.913,1.833-1.753,3.028a23.631,23.631,0,0,1,.558,3.427c0,1.275.638,3.032-2.55,2.554s-6.854-.8-5.9-3.112,1.275-3.666-1.116-4.144-7.491-1.674-9.962-2.232-7.475-4.208-8.846-5.021c-2.152-1.275-1.833-5.021-.239-5.5s5.977-3.108,6.216-4.7-3.108-1.753-4.3-2.072-4.224.239-4.383-.718-.4-2.072-1.514-2.232-2.231,2.072-3.028,2.072-.478-2.311,0-3.984.8-2.63,1.833-3.267,2.232-1.116,2.311-2.152a36.976,36.976,0,0,0,.319-5.18c-.16-1.116-.717-2.072-2.072-1.833s-4.065,1.674-6.3.877-4.7-3.666-3.905-4.463,3.586-.159,3.746-1.116-1.036-3.666.4-4.064,4.144-.717,4.144-2.232-2.072-3.9-3.108-4.3-6.375-3.108-7.172-4.622-2.869-5.26-1.275-6.3,6.137-1.116,6.376-3.028-2.311-2.71-3.586-3.666-6.694-2.551-5.1-3.985,3.985-3.188,5.658-4.542.638-3.108.956-5.021a9.845,9.845,0,0,1,1.833-4.3c.717-.956.637-5.5,1.753-4.782s2.152,2.152,3.029,1.2,1.019-2.287,2.762-3.488" transform="translate(-1004.398 -805.534)" fill="#e8e8e8"/>
      <path id="Path_41954" data-name="Path 41954" d="M1281.707,1079.186c-.332.044-.37.069-.647.785-.057.15-.12.31-.192.477-.079.184-.142.378-.209.573a4.247,4.247,0,0,1-2.012,2.7c-2.095,1.194-6-2.64-6.671-3.686-.26-.4-.592-.512-1.319-.723a9.144,9.144,0,0,1-1.63-.6,2.112,2.112,0,0,0-1.908-.157c-.307.075-.655.159-1.086.231-.529.089-.646.66-.72,1.99-.021.368-.042.721-.091,1.029a13.6,13.6,0,0,1-1.093,3.88c0,.188.637.835,1.836,1.034a4.64,4.64,0,0,0,1.987-.252,3.851,3.851,0,0,1,2.046-.2c1.581.422,1.758,2.72,1.378,4.142-.163.61.554,1.642,1.028,2.326l.064.092a7.121,7.121,0,0,1,.852,4.9c-.5,1.8-3.25,2.058-4.727,2.2a3.476,3.476,0,0,0-1.542.456c-.306.153-.689.342-1.26.565a9.573,9.573,0,0,1-4.07.17,19.969,19.969,0,0,0-2.752-.116,1.423,1.423,0,0,0-1.459.888,3.579,3.579,0,0,1-1.34,1.423,4.221,4.221,0,0,1-3.113.215,3.7,3.7,0,0,0-1.349-.125c-.4.2-.881,2.067-1.062,2.771a6.509,6.509,0,0,1-.57,1.7c-.707,1.111-3.592,1.917-5.316,2.049a3.816,3.816,0,0,0-2.562,1.058l-.442.33c-.522.384-.1,2.143.1,2.988a8.168,8.168,0,0,1,.231,1.205c.1,1.428-1.963,2.386-4.459,3.4l-.2.082a13.494,13.494,0,0,1-4.255.928c-.686.065-1.088.834-1.506,1.756-.069.154-.134.3-.2.418-.131.262-.328.584-.553.952a12.073,12.073,0,0,0-1.343,2.678c-.225.738.954,1.892,1.814,2.735.313.307.606.6.837.856a1.777,1.777,0,0,1,.534,1.642c-.235.9-1.258,1.264-2.161,1.582-.314.111-.429.3-.646.7a2.524,2.524,0,0,1-1.527,1.413,4.76,4.76,0,0,1-3.131-.55,14.767,14.767,0,0,0-1.417-.523,5.5,5.5,0,0,0-3.393-.18,12.629,12.629,0,0,0,1.14,1.055,5.238,5.238,0,0,1,1.094,1.086,2.8,2.8,0,0,1-1.007,3.586,2.682,2.682,0,0,1-2.08.115,7.166,7.166,0,0,0,1,2.365,12.758,12.758,0,0,0,4.256,2.3c.56.179,1.229.338,1.937.507a20.677,20.677,0,0,1,3.169.93,2.44,2.44,0,0,1,1.5,2.1,2.206,2.206,0,0,0,.414,1.085,12.74,12.74,0,0,1,2.217,3.4,6.64,6.64,0,0,1,.286,3.91,5.315,5.315,0,0,0,.085,1.524c.18,1.332.405,2.988-.89,3.671-1.315.695-2.317-.651-3.12-1.732a5.375,5.375,0,0,0-1.266-1.384,6.437,6.437,0,0,0-.572,1.518,5.518,5.518,0,0,1-1.341,2.711,6.708,6.708,0,0,1-4.041,1.724,4.033,4.033,0,0,1-.512.031,9.076,9.076,0,0,1-5.125-2.147,7.183,7.183,0,0,1-1.712-2.271,4.238,4.238,0,0,0-.992-1.384c-.925-.636-1.066-.68-3-.939a4.5,4.5,0,0,1-2.548-1.187,2.86,2.86,0,0,0-1.231-.71.882.882,0,0,0-.366-.043c-.016.013-.082.09-.131.146a2.192,2.192,0,0,1-2.022.86,2.47,2.47,0,0,1-2.444-1.507,3.257,3.257,0,0,0-.465-.7,4.053,4.053,0,0,1-.733-2.567c-.037-.575-.1-1.442-.341-1.612-.309-.21-1.629.146-2.338.337a7.07,7.07,0,0,1-2.624.4,2.813,2.813,0,0,0-1.582.285,14,14,0,0,1-2.157.646,9.165,9.165,0,0,0-2.181.7,10.352,10.352,0,0,1-1.735.63,10.011,10.011,0,0,0-2.048.811,10.132,10.132,0,0,1-1.542.655,1.548,1.548,0,0,0-.739.5,2.763,2.763,0,0,1-1.984.947,1.972,1.972,0,0,1-2.366-1.531,7.089,7.089,0,0,0-.48-1.01,25.7,25.7,0,0,1-1.678-3.664c-.113-.289-.219-.558-.318-.8-.128-.311-.128-.311-.823-.333a10.212,10.212,0,0,1-1.375-.116c-.44-.07-.8-.14-1.12-.2a3.672,3.672,0,0,0-1.844-.081,5.8,5.8,0,0,0-.437,1.93c-.04.32-.081.6-.13.865a23.619,23.619,0,0,1,2.333,3.348c.325.524.624,1.009.879,1.38l.227.328c.927,1.336,1.977,2.852,1.977,4.253,0,.389-.055.986-.12,1.678-.1,1.091-.338,3.646-.041,4.145a21.191,21.191,0,0,0,3.407,2.513c.433.284.838.55,1.174.78,2.167,1.486,3.172,2.658,3.26,3.8.108,1.4-1.226,4.089-1.751,4.876a27.35,27.35,0,0,1-4.644,3.926,15.514,15.514,0,0,1-1.935,1.054c-1,.5-3.1,1.53-3.276,2.053-.058.981-.045,3.4-.037,4.7l0,.793a24.979,24.979,0,0,1-1.093,5.026,10.174,10.174,0,0,0-.444,2.655,2.951,2.951,0,0,0,.041.31,2.423,2.423,0,0,1-.314,2.1,1.338,1.338,0,0,1-1.154.374,12.2,12.2,0,0,1-1.885-.491,9.855,9.855,0,0,0-2.932-.642,4.984,4.984,0,0,0-2.734,1.958l-.244.273c-.83.924-1.546,1.723-1.574,2.651l-.016.426a1.85,1.85,0,0,0,.5,1.724,6.075,6.075,0,0,0,.542.6,1.355,1.355,0,0,1-.051,2.321c-.221.19-.465.42-.733.672a17.6,17.6,0,0,1-2.932,2.358,29.29,29.29,0,0,1-6.423,2.385,6.019,6.019,0,0,0-3.329,1.943,15.363,15.363,0,0,0,.4,3.171c.009.048.016.087.025.134,1.055.126,1.608.376,1.809-.228.269-.807-2.6-2.15-1.075-2.867s3.046-2.15,3.046-.717-1.165,4.032.9,4.211a22.732,22.732,0,0,0,6.272-.359c1.344-.358,2.615-1.344,5.877-.986s3.621.9,3.8,2.061-1.882,4.749-.627,5.645,13.709,1.613,14.516.717-4.122-2.6-3.4-3.673,4.032,2.419,5.2,1.971.627-3.315,3.315-4.121,2.06.627,3.673.9a5.266,5.266,0,0,1,3.853,3.4c.538,1.7,2.24,3.046,5.555,3.136s4.3-.448,6.72-1.075,4.3-2.24,6.272-1.344,1.881,3.136,2.061,5.287-2.24,5.286,0,5.914,10.035-.806,11.648.359,2.688,2.419,4.57,2.329,3.136-.806,4.211-.089-1.792,1.792,1.165,2.777,4.211.986,5.286,1.971-.537,3.942,1.7,4.659a5.561,5.561,0,0,0,5.286-.537c1.344-.986,2.867-3.584,5.018-3.495s6,.269,7.079.9,3.136,4.3,4.3,3.315-1.433-5.466.9-6.093,4.122-.807,6.183.089,3.4,3.584,4.659,2.33-.269-4.211,1.612-5.376,4.57-.807,5.914-1.613,1.523-1.881,3.4-2.061,2.151,2.419,3.763,1.613,6.272-7.526,4.839-8.333-6.72-.179-6.093-1.254,5.645-3.943,7.079-5.735-.359-5.2,1.881-5.824,5.466.269,7.616-1.255,3.763-4.928,4.48-7.168,1.165-3.047,3.853-3.853,6.9-.09,6.809-1.165-.537-6.362,1.433-7.527,4.211-1.613,5.735-2.777a42.7,42.7,0,0,1,5.32-2.757,4.238,4.238,0,0,1,6.981-4.806,10.147,10.147,0,0,1,4.1-1.218l.435-.04c-1.11-2.621-3.634-5.453-3.836-8.077s1.11-1.817,3.129-3.028,1.009-2.624,1.816-4.239,2.624-3.633,3.735-5.551,3.431-3.23,2.825-5.349-2.119-2.523-3.633-4.34.606-2.725.1-4.239-7.771,3.028-10.092,4.037-4.744,2.322-7.771,1.211-12.212-4.642-15.442-6.964-4.239-.2-6.964-1.917-5.854-8.377-6.964-11.1,1.514-3.33,2.019-4.744-5.248-6.459-5.148-8.276,5.047-4.541,5.652-5.954,0-4.339.606-5.854,7.266,0,7.065-2.523-3.331-3.229-4.239-5.551-.706-5.45-2.321-6.863-3.936.706-6.964.5-6.358-3.532-7.67-5.148.1-6.661-.2-8.074-2.321-.606-4.542-.807c-1.491-.135-2.161-2.455-2.625-4.453a25.156,25.156,0,0,0-3.739.615c-.522.116-.934.207-1.247.248" transform="translate(-616.049 -578.259)" fill="#e8e8e8"/>
      <path id="Path_41955" data-name="Path 41955" d="M824.488,1229.044c.426-1.094,2.276-2.32,4.4-2.915a28.125,28.125,0,0,0,6.021-2.212,16.289,16.289,0,0,0,2.662-2.153c.269-.253.515-.485.741-.68a7.813,7.813,0,0,1-.674-.754,3.374,3.374,0,0,1-.829-2.776l.015-.409c.046-1.519,1.033-2.619,1.987-3.682l.238-.266a6.409,6.409,0,0,1,3.735-2.489,10.109,10.109,0,0,1,3.617.7c.491.151,1,.308,1.346.385-.011-.2-.049-.446-.069-.578a4.205,4.205,0,0,1-.06-.556,11.641,11.641,0,0,1,.527-3.167,24.654,24.654,0,0,0,1.009-4.514l0-.784c-.008-1.413-.021-3.777.046-4.846.078-1.256,1.7-2.149,4.169-3.369a15.411,15.411,0,0,0,1.7-.913,26.737,26.737,0,0,0,4.248-3.514,10.4,10.4,0,0,0,1.484-3.855c-.025-.329-.391-1.1-2.562-2.59-.327-.224-.724-.485-1.147-.762a18.625,18.625,0,0,1-3.806-2.886c-.64-.83-.52-2.709-.282-5.274.059-.625.113-1.215.113-1.529,0-.9-.937-2.246-1.689-3.333l-.23-.333c-.268-.389-.581-.9-.922-1.445a18.413,18.413,0,0,0-2.386-3.342c-.447-.4-.505-.4-.75-.409a4.5,4.5,0,0,1-1.479-.278,5.25,5.25,0,0,1-2.324-1.683,4.623,4.623,0,0,0-.747-.724,3.915,3.915,0,0,1-.816-.743c-.168-.2-.237-.276-.8-.435a7.58,7.58,0,0,0-3.211.068,4.373,4.373,0,0,0-.17,1.727,2.851,2.851,0,0,1-1.255,2.289,2.364,2.364,0,0,1-1.79.491,2.3,2.3,0,0,1-1.605-.912,4.458,4.458,0,0,1-.4-2.779c.015-.3.033-.645.026-.909a11.589,11.589,0,0,0-1.423.586c-.283.132-.548.254-.769.342a4.035,4.035,0,0,0-1.208.845,9.367,9.367,0,0,1-1.069.857,4,4,0,0,0-1.013,1.095,4.937,4.937,0,0,1-.866,1c-.872.706-2.419.165-3.785-.311-.252-.088-.484-.17-.682-.23a4.275,4.275,0,0,1-1.682-1.041,7.035,7.035,0,0,0-1.014-.785l-.338-.211a4.161,4.161,0,0,0-2.3-.883,5.563,5.563,0,0,0-1.036.036,3.8,3.8,0,0,1-3.268-.89,3.423,3.423,0,0,1-.992-3.677c.044-.24.09-.486.118-.74.128-1.157.217-2.455-.369-3.217a23.4,23.4,0,0,1-2.456-4.5,33.075,33.075,0,0,1-2.187-6.9c-.091-.7-1.02-1.418-1.918-2.113a8.18,8.18,0,0,1-1.994-1.922,7.173,7.173,0,0,1-.674-3.921,7.621,7.621,0,0,0-.04-1.335c-.219-1.094-.972-4.186-1.495-5.753-.285-.857-.382-.892-1.565-1.324-.382-.14-.841-.308-1.4-.542a10.292,10.292,0,0,1-4.152-3.523c-.261-.328-.514-.647-.774-.94-.368-.414-.751-.41-1.458-.369a2.435,2.435,0,0,1-3.007-2.4c-.058-.578-.091-.9-1.115-1.359a.793.793,0,0,0-.617-.083c-.454.2-.807,1.257-1.041,1.958a5.277,5.277,0,0,1-.629,1.446c-.88,1.174-1.815,1.6-3.849,1.765a5.757,5.757,0,0,1-5.371-2.637,16.757,16.757,0,0,1-2.246-5.372c-.069-.326-.113-.663-.157-1.006a3.752,3.752,0,0,0-1.437-3c-.657-.492-1.5.268-2.745,1.748a8.046,8.046,0,0,1-.888.962,3.194,3.194,0,0,1-2.418.569,3.019,3.019,0,0,0-.977.039c-.6.294-2.176,3.278-2.341,3.907a1.052,1.052,0,0,1-.756.76c-1.049.291-2.926-.888-3.639-1.6-.6-.595-.85-.577-1.428-.373a11.1,11.1,0,0,0-.717,2.907c-.063.4-.115.7-.154.839a2.867,2.867,0,0,1-1.586,1.919c-.5.321-1.544,3-1.735,4.079a28.838,28.838,0,0,0,.005,4.2c.1,1.182-.873,2.136-1.813,3.057l-.32.316a5.047,5.047,0,0,0-.407,1.9c-.081.858-.145,1.534-.869,1.653s-1.018-.578-1.135-.84a14.248,14.248,0,0,0-.978-1.687,11.348,11.348,0,0,1-1.8-3.8c-.257-1.368-.6-3.839-.034-5.206a6.1,6.1,0,0,0-1.368-.986c-.321-.193-.627-.378-.865-.552a4.387,4.387,0,0,1-1.328-2.115,6.86,6.86,0,0,0-.787-1.6,10.987,10.987,0,0,0-3.106-2.856,7.567,7.567,0,0,1-1.721-1.8,4.326,4.326,0,0,0-2.365-1.88c-.842-.279-1.032-.052-1.624,1.242a5.267,5.267,0,0,1-1.408,2.084,35.53,35.53,0,0,0-3.26,3l-.384.386a6.049,6.049,0,0,0-1.2,2.966c-.121,1.208-1.2,2.05-1.994,2.664-.218.17-.21.75-.2,1.311a8.82,8.82,0,0,1-.031,1.089,6.126,6.126,0,0,1-1.632,2.87c-.269.328-.535.65-.748.959a11.67,11.67,0,0,1-4.056,3.4,2.926,2.926,0,0,1-2.99-.314l-.089-.052-.038.038a3.464,3.464,0,0,1-2.053,1.06,3.077,3.077,0,0,1-3.379-1.428l-.305-.363c-.142-.163-.2-.233-1.225.354a6.555,6.555,0,0,1-1.964.84c-.573.115-.829.538-1.232,1.276a3.886,3.886,0,0,1-1.391,1.668,1.266,1.266,0,0,1-1.081.1c-.914-.335-1.384-1.638-1.928-3.146a8.682,8.682,0,0,0-.7-1.656,4.522,4.522,0,0,1-1.017-4.265,28.307,28.307,0,0,0,.536-3.734l.038-.386c.032-.323.068-.619.1-.9a7.09,7.09,0,0,0-.078-3.032,8.24,8.24,0,0,0-1.692-2.183c-1.224-1.315-2.489-2.675-2.549-4.058a18.576,18.576,0,0,1,.291-3.122,22.4,22.4,0,0,0,.327-3.51c-.33.04-.683.057-1.037.07a11.077,11.077,0,0,0-1.413.108c-.344.061-.678.1-.994.139a2.783,2.783,0,0,0-1.544.427c-.094.106-.184.211-.27.313-.531.622-1.189,1.394-2.132,1.129-.478-.137-.763-.576-1.123-1.133a5.643,5.643,0,0,0-.633-.855c-.883.613-2.134,1.5-3.221,2.367-.162.13-.3.25-.435.362a3.657,3.657,0,0,1-3.465,1.01,9.539,9.539,0,0,1-5.4-3.275c-.221-.256-.5-.62-.828-1.04-.972-1.256-2.6-3.361-3.77-3.751-.842-.281-1.393-.512-1.835-.7a5.122,5.122,0,0,0-1.195-.4,4,4,0,0,1-1-.341,1.787,1.787,0,0,0-1.6-.144c-2.376.832-5.425,2.671-5.463,3.549a4.861,4.861,0,0,0,.541,2.111,6.855,6.855,0,0,1,.66,2.4,5.586,5.586,0,0,1-.3,2.145,3.764,3.764,0,0,0-.225,1.268c0,1.239-1.111,2.119-2,2.826a4.744,4.744,0,0,0-.894.816,1.5,1.5,0,0,0,.029.567,2.479,2.479,0,0,1-.98,2.656,4.4,4.4,0,0,1-2.174.812c-.837.134-.849.192-.9.437a6.585,6.585,0,0,0-.037,1.613,4.644,4.644,0,0,1-.54,3.038,8.365,8.365,0,0,1-3.027,3.012c-.776.465-1.34.866-1.886,1.253-.484.344-.942.668-1.492,1a8.108,8.108,0,0,0-2.983,2.776,10.039,10.039,0,0,0-1.054,1.893,5.6,5.6,0,0,1-1.211,1.889,13.166,13.166,0,0,1-3.04,2.466,9.821,9.821,0,0,1-1.107.461c-1.14.43-3.048,1.147-3.293,2.168s.292,2.251.81,3.441a13.516,13.516,0,0,1,.685,1.787,4.06,4.06,0,0,0,1.174,1.789,6.648,6.648,0,0,1,1.163,1.5c.658,1.241,1.253,2.88.007,4.54-.879,1.173-1.978,2.634-4.274,2.344l-.532-.067a36.7,36.7,0,0,0-4.1-.377,2.169,2.169,0,0,0-.976.115s-.012.045-.02.134a5.454,5.454,0,0,1-.582,1.566,5.957,5.957,0,0,0-.788,2.435,5.282,5.282,0,0,0,1.537.8c1.156.473,2.466,1.01,2.307,2.2a9.545,9.545,0,0,1-1.374,3.078c-.281.485-.567.978-.805,1.455a10.465,10.465,0,0,1-1.436,2.04,4.13,4.13,0,0,0-.743,1.046c-.018.1-.034.2-.051.32-.147.977-.421,2.794-2.146,3.177a2.889,2.889,0,0,1-1.553-.057c-.261-.073-.307-.086-.735.268a25.04,25.04,0,0,0-3.474,3.919,11.6,11.6,0,0,0-.637.982c-.756,1.253-1.793,2.97-3.96,3.444-1.655.361-2.574-.692-3.245-1.46-.718-.823-1.058-1.115-1.766-.946-.635.155-1.024.263-1.3.339a5.257,5.257,0,0,1-2.03.211l-.766,0c-2.662,0-3.518.1-4.468.814a17.664,17.664,0,0,1-5.359,2.53,3.55,3.55,0,0,0-1.574.967,3.634,3.634,0,0,1-2.419,1.165,5.147,5.147,0,0,1-3.243-1.4c-.509-.376-1.362-1.006-1.607-.871a7.853,7.853,0,0,0-2.581,2.029c-1.413,1.5-2.162,1.385-3.722.973a9.017,9.017,0,0,1-1.762-.779c-.254-.133-.584-.306-.858-.429.04.291.094.624.152.981.37,2.292.791,4.888-.55,5.815-1.5,1.037-3.924,1.222-5-.172-.466-.606-.423-1.591-.368-2.839a6.908,6.908,0,0,0-.115-2.28c-.012,0-.032.007-.058.012a3.811,3.811,0,0,0-1.974,1.613,3.913,3.913,0,0,1-2.358,1.775,13.6,13.6,0,0,1-2.58-.028c-.987-.067-2.639-.18-3.019.1-.2.147-.414.284-.628.419-1.015.642-1.067.744-.7,1.372.862,1.457,2.465,4.171,1.147,6.712-.383.739-.644,1.177-.835,1.5a3.239,3.239,0,0,0-.534,1.375,7.348,7.348,0,0,0,.185,1.917c.267,1.575.57,3.362-.383,4.393a7.241,7.241,0,0,1-1.9,1.378c-.4.223-.856.477-.915.656a2.761,2.761,0,0,0,.144.926c.2.793.476,1.878-.4,2.6a4.774,4.774,0,0,0-.669,3.1c.068.389.2.627.4.705a4.781,4.781,0,0,0,2.066.259,5.22,5.22,0,0,1,2.184.263,2.939,2.939,0,0,0,1.239.16,4.6,4.6,0,0,1,2.805.737,3.641,3.641,0,0,1,1.745,1.808,10.974,10.974,0,0,0,.82,1.428l.529.786a14.368,14.368,0,0,1,2.6,5.078c.1.567.245,1.12.388,1.654a9.595,9.595,0,0,1,.347,5.007,1.939,1.939,0,0,0,.161,1.564,9.793,9.793,0,0,0,.624.994,3.048,3.048,0,0,1,.772,2.823c-.265.741-1.13,1.223-2.131,1.78-.781.435-1.962,1.092-2.033,1.59a5.121,5.121,0,0,0,.487,2.166c.353.954.657,1.778.212,2.446-.237.354-.907,1.154-1.983,2.429-.855,1.014-1.74,2.062-2.17,2.636a54.687,54.687,0,0,1-4.522,5.058,3.386,3.386,0,0,0-1.171,2.862c0,1.5-1.115,4.435-3.338,4.918a3.693,3.693,0,0,0-2.718,1.749,6.477,6.477,0,0,0-.62,1.722,8.308,8.308,0,0,1-.793,2.159,19.058,19.058,0,0,0-.6,3.53,45.213,45.213,0,0,1-.725,4.6,23.827,23.827,0,0,0,3.591,3.048c2.415,1.552,3.966,1.466,5,2.846s4.57,8.451,7.933,8.019,3.966-.431,5.95-1.207,5.26-3.1,6.295-2.155,3.967,1.638,4.829,2.5.949,2.846,2.415,2.414,2.932-3.88,4.57-2.846,1.725,2.328,3.449,2.415,2.414-1.466,5.777-1.121,3.1-.345,4.57.086,4.225,1.638,5.088.259a2.655,2.655,0,0,0-.431-3.449c-.776-.69-1.552-6.812.172-7.933s.6-2.673,3.536-1.811a73.268,73.268,0,0,1,10.606,4.053c2.415,1.293,4.4,1.121,7.416,1.9s4.656.345,5.863,1.9.345,4.225,3.191,4.484,5.519-.862,7.157-.431,4.657,1.466,6.037,3.018a22.54,22.54,0,0,1,3.363,6.295c2.587-1.121,3.1-2.932,5-3.277s1.724.259,3.966.776,2.587,1.811,4.053,1.725,2.932-.6,4.053.086.862,2.242,2.07,2.5,4.225,1.466,2.846,2.07-3.19.259-3.881,1.38a9.466,9.466,0,0,0-.948,4.139c1.9.086,5-.172,6.209.949s1.725,3.191,3.967,3.622,4.225,1.81,4.656,3.276,1.207,4.226,3.966,4.829,3.191-1.035,4.656-2.328,2.846-4.225,4.743-3.967,4.311-.431,6.9.086,4.4,1.983,7.675,3.794,4.915,4.484,6.985,3.881,2.587-2.846,3.88-2.242,3.614,2.873,4.915,1.9c1.035-.776-1.064-3.018.589-4.312s2-2.587,3.55-2.759,2.845,1.811,4.225.6,2.156-3.018,4.57-3.708a27.545,27.545,0,0,1,7.33-1.451c2.5-.014,2.5,2.534,4.829,3.114s5.048,0,7.31,0c-.5-1.842-1.33-3.923-2.865-4.969-1.971-1.344-4.749-3.494-4.928-5.2s-1.165-8.781-1.344-9.677-.9-8.781-.269-9.766,1.254-5.914.537-5.824-1.344,2.061-1.433,2.867-.179,2.15-1.7,2.15-2.6-2.688-1.971-3.853.628-2.329,2.15-3.226,3.047.538,3.943-.448.089-2.6-.269-2.867-5.018-2.419-3.136-2.509,2.688.359,3.046-.448.179-2.957.627-3.943,2.061-3.136.806-3.315-2.688-.538-2.419-1.165,2.956-.537,3.673-1.165,1.165-4.39,4.211-6.362,6.631-6.72,8.512-7.8a46.41,46.41,0,0,1,8.064-3.047,37.51,37.51,0,0,0,7.527-3.584c2.419-1.434,6.093-4.749,7.975-5.645s6.362-5.287,8.422-6.541,4.032-5.2,6.989-6.093,6.093-2.15,7.885-2.15,3.046.448,2.778,1.971.717,3.673,1.613,5.2c.833,1.417,3.211,1.207,5.054,1.1-.35-1.881-.552-3.178-.285-3.865m-136.725,90.144a2.768,2.768,0,0,1-2.932-1.9,4,4,0,0,1,1.121-4.053c1.466-1.121,1.725,1.811,1.38,2.242s.776,1.121,1.552,1.294.173,2.242-1.121,2.414" transform="translate(-293.229 -590.808)" fill="#e8e8e8"/>
      <path id="Path_41956" data-name="Path 41956" d="M414.047,311.617c.194,1.324,1.86,3.53,2.661,4.591l.2.262a3.4,3.4,0,0,0,3.507,1.37,9.66,9.66,0,0,0,4.62-2.488,9.167,9.167,0,0,0,.826-1.022c1.025-1.377,2.3-3.09,3.836-2.652a40.084,40.084,0,0,1,4.085,1.775c1.577.74,3.209,1.505,4.016,1.768.3.1.632.209.976.325a20.468,20.468,0,0,0,4.579,1.2,3.547,3.547,0,0,0,1.63-.532,4.182,4.182,0,0,1,2.279-.629,8.816,8.816,0,0,1,3.86,1.373,9.982,9.982,0,0,1,1.685,1.651,9.771,9.771,0,0,0,1.7,1.663,5.37,5.37,0,0,1,1.022.824c.441.428.591.573,1.12.481a5.23,5.23,0,0,0,1.694-1.332c.95-.939,1.851-1.822,2.9-1.728a2.6,2.6,0,0,1,1.7.979,1.558,1.558,0,0,0,1.495.666,6.381,6.381,0,0,0,3.568-1.2,6.021,6.021,0,0,0,.978-.85,3.926,3.926,0,0,1,2.3-1.4c.228-.024.5-.056.786-.092a13.316,13.316,0,0,1,3.863-.13,4.008,4.008,0,0,1,1.493.886c.654.527,1.118.864,1.6.758.415-.092.638-.438.968-.995a2.485,2.485,0,0,1,1.585-1.419,3.2,3.2,0,0,1,1.917.355l.132.058c.061-.232.129-.539.183-.789.358-1.629.674-2.813,1.489-3.216a1.263,1.263,0,0,1,1.11,0,26.175,26.175,0,0,1,3.05,1.83c.281.186.544.361.78.511a2.633,2.633,0,0,1,.933,2.9c-.018.109-.035.2-.04.284-.01.14-.038.318-.072.523a2.786,2.786,0,0,0,.078,1.8c.086.134.164.265.24.391a2.552,2.552,0,0,0,1.867,1.438,6.309,6.309,0,0,0,1.43.25,1.487,1.487,0,0,1,1.618,1.181,10.589,10.589,0,0,1,.127,1.786,16.7,16.7,0,0,0,.2,2.592c.088-.019.2-.048.3-.072a3.6,3.6,0,0,1,2.425.071c.442.177.787.346,1.077.489.628.309.738.348,1.029.255a16.021,16.021,0,0,0,2.2-2.078,19.281,19.281,0,0,1,2.114-2.027c.237-.169.509-.375.8-.6a13.437,13.437,0,0,1,3.792-2.3c.308-.084.642-.212.995-.345a6.2,6.2,0,0,1,4.3-.482c.184.064,4.513,1.59,5.175,3.136.292.68.27,2.657.116,6.561-.027.706-.05,1.273-.05,1.549a2.307,2.307,0,0,0,1.049,1.913,3,3,0,0,1,1.117,1.033c.357.473.6.766,1.042.833a1.867,1.867,0,0,0,1-.135,1.375,1.375,0,0,1,1.822.513,7.546,7.546,0,0,1,.639,1.667,6.435,6.435,0,0,0,.474,1.286,5.76,5.76,0,0,0,3.143,1.8,3.108,3.108,0,0,0,1.694-.464,4.671,4.671,0,0,1,1.888-.584c1.433-.055,2.559,1.478,3.492,2.975l.1.167a18.534,18.534,0,0,0,1.473,1.548c.492.484.8.79.962.987a3.191,3.191,0,0,0,1.926.645,5.97,5.97,0,0,0,.651-2.169c.043-.219.079-.4.111-.53a8.972,8.972,0,0,0-.4-1.6,9.773,9.773,0,0,1-.423-1.708l-.037-.418a13.462,13.462,0,0,0-.246-1.93c-.016-.013-.168-.176-.269-.283-.431-.459-1.328-1.415-.628-2.406A5.866,5.866,0,0,1,545.1,332.5a8.945,8.945,0,0,0,2.519-.8c.326-.14.649-.276.965-.4a11.685,11.685,0,0,0,2.475-2.634,10.779,10.779,0,0,1,.916-1.1,12.5,12.5,0,0,0,.828-3.61c-.024-.2-.305-1.031-.511-1.637a16.862,16.862,0,0,1-.688-2.32,13.92,13.92,0,0,0-1.938-3.8c-.325-.281-.994-.978-1.769-1.785-.7-.727-1.491-1.552-1.855-1.878-.7-.63-2.166-2.794-1.839-3.852a5.511,5.511,0,0,0,.077-1.742,2.575,2.575,0,0,1,.479-2.307,18.627,18.627,0,0,1,2.885-2.171l.19-.091a6.378,6.378,0,0,1,2.469-.738,4.72,4.72,0,0,0,1.323-.358,6.448,6.448,0,0,1,1.384-.4,7.776,7.776,0,0,0,2.239-.519l.064-.064c1.523-1.529,2.472-2.258,3.173-2.441.259-.068.7-.231,1.165-.405a10.3,10.3,0,0,1,2.668-.769,7.387,7.387,0,0,1,2.243.465,15.676,15.676,0,0,0,1.672.446,11.751,11.751,0,0,0,4.524-.3l.169-.054a3.882,3.882,0,0,0,3.73-3.418,2.808,2.808,0,0,0,.074-.505,2.572,2.572,0,0,1,1.042-2.142l.342-.226A15.762,15.762,0,0,1,579,289.339c.634-.254.644-.319.706-.744.017-.112.034-.229.059-.352a6.311,6.311,0,0,0,.033-.852,5.182,5.182,0,0,1,.576-2.953,7.793,7.793,0,0,1,1.01-1.071,3.392,3.392,0,0,0,.593-.631,5.078,5.078,0,0,0-.326-2.28,2.385,2.385,0,0,0-.55-.426c-.458-.3-1.029-.665-1.029-1.36,0-.213-.073-1.18-.131-1.957-.074-.989-.12-1.605-.12-1.815,0-.895.571-1.485,1.7-1.756a12.793,12.793,0,0,1,1.577-.241c.517-.057,1.05-.116,1.653-.234a12.234,12.234,0,0,0,3.12-.965l.313-.159a3.22,3.22,0,0,0,1.625-1.362,14.522,14.522,0,0,0,.943-3.27c.1-.5.2-.919.273-1.183.093-.32.175-.706.257-1.091a8.428,8.428,0,0,1,.514-1.81c.05-.1.127-.268.225-.479a18.841,18.841,0,0,1,1.761-3.257c-.076-.236-.145-.447-.205-.617-.584-1.655-.056-2.966,1.413-3.508a2.524,2.524,0,0,1,2.863.959c.053.056.1.11.152.16.024-.071.051-.158.08-.262a6.983,6.983,0,0,0-.384-3.179c-.089-.333-.175-.655-.244-.956a9.092,9.092,0,0,0-1.206-2.3,8.868,8.868,0,0,1-1.01-1.854c-.411-1.316-.1-5.675-.095-5.716a7.31,7.31,0,0,1,1.619-3.363c.367-.424,1.484-1.712,1.261-2.467a5.384,5.384,0,0,0-.914-.12,3.673,3.673,0,0,1-2.188-.675c-.894-.775-.972-2.639-.985-5.188,0-.584-.006-1.136-.036-1.495a14.941,14.941,0,0,1,.163-5.035,3.751,3.751,0,0,1,1.248-1.581c.481-.418.772-.692.758-.975a5.162,5.162,0,0,0-1.123-.465c-.918-.314-2.059-.706-2.273-1.773-.22-1.1,1.03-2.371,3.089-4.353a14.2,14.2,0,0,0,1.9-2.021c.095-.5-1.025-2.458-1.563-3.4-.4-.7-.749-1.306-.956-1.784a65.054,65.054,0,0,0-4.321-6.738c-.925-1.305-8.734-8.554-13.851-11.872-2.656,2.648-5.948,5.458-8.809,6.816a67.8,67.8,0,0,1-15.586,4.918,171.045,171.045,0,0,0-18.608,4.682c-5.037,1.659-10.193,5.985-13.215,7.289s-7.289,2.074-8.474,4.208-.593,4.208-2.371,6.756-4.978,6.4-3.911,9.126,1.245,3.911,5.512,4.563a36.35,36.35,0,0,0,8.3.593c3.14-.059,6.637-1.077,5.689.024a8.473,8.473,0,0,1-5.748,2.347c-2.489.059-6.4-.474-8.711,1.007s-7.111,6.222-9.541,7.348-9.541,3.911-12.978,3.141-9.66-5.689-13.274-6.222-12.5.652-18.252-1.245-4.8-3.319-6.756-3.319-7.111.059-8.237.533a6.209,6.209,0,0,0-2.548,2.548c-.593.948-.356,2.489-1.067,2.43s-.3-1.541-.711-1.778-1.3-.3-1.659-.711.593-4.208.415-5.63-8.119-11.022-6.7-12.148,5.392-5.274,4.741-7.111-4.86-6.933-9.541-5.867-3.793,3.615-6.222,4.089-3.615.593-5.926-.237-6.993-2.252-7.881-2.9-5.274-2.963-6.874-3.022-3.5,2.133-2.489,3.14,4.8,2.43,5.156,3.556.533,5.1-.178,6.045-2.37,1.837-1.956,3.555,2.311,3.792,2.726,5.274-.059,5.926.593,6.874,3.377,3.2,4.444,4.859,3.911,4.148,4.089,5.63-.119,3.082.533,3.674,3.5.178,2.963,1.007-1.659,1.6-1.719,2.845,1.482,2.607.889,3.5-1.126.889-1.363,2.489-.3,5.6.356,6.653,2.43-1.083,3.022-.549-1.3.83-1.541,2.015-.178,2.489-.355,4.918.118,4.03-.119,5.511-1.6,2.667-1.244,4.208.889,1.9,1.067,3.2-.533,2.608.533,4.445,2.726,4.741,4.385,5.926,6.281,3.2,4.622,3.556a32.117,32.117,0,0,1-6.755,0c-1.5-.09-2.956-1.008-4.144-1.3.094.353.2.758.322,1.2.795,2.958,2,7.428,2.176,8.655" transform="translate(-211.962 -101.093)" fill="#e8e8e8"/>
      <path id="Path_41957" data-name="Path 41957" d="M803.605,98.361a71.464,71.464,0,0,1,4.484,7.028c.172.4.514.993.877,1.625,1.247,2.175,2.038,3.679,1.691,4.719-.208.624-.974,1.382-2.309,2.667a15.219,15.219,0,0,0-2.606,2.9,4.2,4.2,0,0,0,1.192.532c.96.329,2.155.738,2.213,1.914a2.849,2.849,0,0,1-1.311,2.276,2.576,2.576,0,0,0-.775.873,15.194,15.194,0,0,0-.085,4.389c.035.422.038.978.041,1.621.005,1.067.017,3.567.429,3.976a2.721,2.721,0,0,0,1.266.284c.845.072,2,.172,2.326,1.275.418,1.42-.631,2.874-1.591,3.981a5.843,5.843,0,0,0-1.233,2.466,26.638,26.638,0,0,0,.029,5.073,8.657,8.657,0,0,0,.829,1.466,10.013,10.013,0,0,1,1.42,2.812c.064.283.145.584.228.9a8.017,8.017,0,0,1,.382,4.021c-.174.639-.462,1.4-1.156,1.61a1.565,1.565,0,0,1-1.457-.47c-.112-.1-.229-.221-.355-.354-.514-.546-.737-.692-1.127-.55-.3.109-.849.313-.447,1.453.065.183.14.411.223.666.3.914.915,2.817,1.477,3.229a4.963,4.963,0,0,0,1.771.258,6.931,6.931,0,0,1,3.122.628,7.9,7.9,0,0,0,3.4.8c.28.026.566.052.859.083a10.469,10.469,0,0,0,4.708-1,11.474,11.474,0,0,0,1.986-1.193c1.348-.924,2.513-1.723,3.543-1.435a22.241,22.241,0,0,1,4.718,2.477c.118.084.26.191.421.313.846.638,2.614,1.961,3.8,1.836a3.5,3.5,0,0,0,1.71-1.2c.705-.715,1.5-1.523,2.528-1.1a13.483,13.483,0,0,1,2.8,1.827c.277.213.559.429.844.64a24.524,24.524,0,0,0,3.253,1.84c.336.168.633.317.863.44.316.168.833.517,1.488.958a19.169,19.169,0,0,0,3.721,2.171c.145,0,.372-.211.614-.433a2.468,2.468,0,0,1,2.355-.848,7.12,7.12,0,0,1,2.3,1.191,7.763,7.763,0,0,0,1.517.885,10.7,10.7,0,0,1,1.221.574,2.76,2.76,0,0,0,1.636.493c.2-.02.412-.258.712-.62a2.467,2.467,0,0,1,2.595-1.161,8.23,8.23,0,0,1,2.216,1.038,3.848,3.848,0,0,0,1.807.762c.313-.051.547-.276.9-.64a2.956,2.956,0,0,1,2.041-1.119,7.585,7.585,0,0,1,1.752.172,5.321,5.321,0,0,0,2.1.091,8.19,8.19,0,0,0,1.789-.684,8.337,8.337,0,0,1,2.962-.943,7.579,7.579,0,0,1,5.3,2.178,3.025,3.025,0,0,1,.9,2.494l0,.289a6.123,6.123,0,0,1-.142,1.094,2.852,2.852,0,0,0,.009,1.861,53.3,53.3,0,0,0,5.57,5.321c.31.227.933.577,1.593.947a15.375,15.375,0,0,1,3.232,2.13,6.852,6.852,0,0,1,1.888,3.947,2.131,2.131,0,0,0,.058.365c.07.019.18.043.273.063a7.285,7.285,0,0,1,.929.25l.4.145c1.119.406,1.253.386,1.506.092.3-.351.933-1.261,1.544-2.142a29.256,29.256,0,0,1,2.219-2.989c.362-.361,1.266-1.633,1.993-2.655a23.287,23.287,0,0,1,1.541-2.057c.067-.067.185-.179.338-.325a19.832,19.832,0,0,0,2.841-3.052,5.048,5.048,0,0,0-.909-.449c-.277-.117-.574-.243-.882-.4a4.269,4.269,0,0,1-2.316-2.169,1.556,1.556,0,0,1,.2-1.286,5.433,5.433,0,0,0,.872-2.219c.027-.191.035-.5.048-.862.068-1.939.208-3.589,1.239-4.14a6.153,6.153,0,0,1,2.973-.2,7.67,7.67,0,0,0,1.886.006,2.678,2.678,0,0,0,1.049-.967c-.305-.334-1.006-.984-1.542-1.482-2.415-2.241-3.118-3-3.118-3.709,0-.16-.03-.538-.068-1.041-.363-4.808-.251-6.461.478-7.079a13.5,13.5,0,0,1,3.856-1.638c.3-.1.557-.179.735-.243.407-.145,1.339-.39,2.418-.672,1.248-.326,2.8-.734,3.24-.921a3.677,3.677,0,0,0,.31-.637c.324-.759.847-2.046,2.4-1.97a3.844,3.844,0,0,1,2.475,1.267c.333.3.686.627.881.6l.286-.029c3.673-.37,4.4-.81,4.549-.982a7.449,7.449,0,0,0-.018-2.569,8.041,8.041,0,0,1-.081-1.325,15.356,15.356,0,0,0-.381-1.65c-.629-2.412-.875-3.623-.417-4.312a9.216,9.216,0,0,1,.676-.843c.325-.376,1-1.158.988-1.442-.041-.579-.193-2.3-.308-3.591l-.125-1.421a5.521,5.521,0,0,0-.39-.665c-.549-.861-1.379-2.162-.485-3.261a2.585,2.585,0,0,1,2.132-.867,2.1,2.1,0,0,0,1.2-.282,4.786,4.786,0,0,0,1.343-1.751,5.254,5.254,0,0,1,.618-.972c.221-.248.662-.656,1.22-1.174a26.143,26.143,0,0,0,2.1-2.074,12.2,12.2,0,0,0,1.937-3.951c.011-.19-.569-.709-.816-.931-.545-.487-1.108-.992-1.108-1.688a8.775,8.775,0,0,1,1.373-4.37,4.84,4.84,0,0,0,.975-2.9,7.714,7.714,0,0,0-.8-1.11c-.763-.961-1.551-1.955-1.551-2.839v-.342c0-1.3,0-2.573.049-3.576a6.56,6.56,0,0,1-3.241-1.114c-1.817-1.01-.807-2.322-.606-4.542s2.119-2.22,3.132-3.431.7-2.423-.407-3.735a11.955,11.955,0,0,0-3.331-2.927c-1.716-1.11.606-3.129,1.009-4.643s2.826-3.331,2.725-5.248-2.523-.807-4.542-.807-2.019-1.918-2.826-3.331a5.584,5.584,0,0,0-4.541-3.331c-2.927-.5-3.633,1.716-5.046,2.523s-2.422-2.22-3.734-2.826-3.028-.1-4.239.4-1.009,3.331-2.725,4.138-2.422-2.826-2.624-4.441.807-4.037.807-5.652-1.211-3.128-2.725-4.844-2.927-.1-4.845-1.008-.4-1.617-1.009-2.525-2.523,1.009-3.936,1.211-2.725,1.716-3.936,1.211-4.138-1.615-5.517-3.129-.034-2.523-.034-4.037.3-3.633-.908-5.147-.1-3.432-.4-4.542-1.716-2.119-2.927-3.835-1.715-3.431-3.128-4.239-4.744,1.11-6.56,1.816a10.253,10.253,0,0,0-3.936,2.624c-.807.908-1.413,3.028-2.322,3.936s-3.431-1.716-5.248-2.725-1.312-1.615-3.23-3.331-.706-3.23-2.321-4.441-1.918.505-3.331-.605-1.716-2.423-1.817-4.441.2-3.129.2-5.349.908-3.431-.5-4.945S852.753,5.037,852.3,0a17.79,17.79,0,0,1-4.288,1.617c-3.674.83-15.763,3.911-20.86,4.8s-12.918,3.2-18.015,6.755-6.7,3.319-6.992,6.815,1.363,5.985.474,8.3a21.532,21.532,0,0,0-1.9,9.659c.237,4.326,0,3.911.711,5.215a4.587,4.587,0,0,1,.119,4.029,16.441,16.441,0,0,0-1.245,5.749c.059,1.9-.593,3.259-.652,5.629s-1.3,2.9-1.3,5.215a8.658,8.658,0,0,0,1.008,4.386c.533,1.185,6.459,7.348,4.859,8s-5.452-3.615-6.874-2.548-2.608,6.518-4.978,9.482c-.682.852-1.649,1.958-2.783,3.148,5.176,3.438,12.9,10.535,14.021,12.115" transform="translate(-423.421 0.001)" fill="#e8e8e8"/>
      <path id="Path_41958" data-name="Path 41958" d="M331.091,726.9c-1.27-.577-2.43-.178-2.726-1.007s-1.126-5.215.533-4.681,4.859.77,5.1,1.659a1.2,1.2,0,0,1-.652,1.6c-.533.237-1.3.77-.593,1.719s1.6,1.718,2.37,2.607,2.193,2.845,1.245,3.082a1.549,1.549,0,0,1-1.956-1.126,13.239,13.239,0,0,0-3.319-3.852" transform="translate(-175.836 -386.728)" fill="#e8e8e8"/>
      <path id="Path_41959" data-name="Path 41959" d="M311.445,775.245c-.948,1.12-.593,2.252,1.066,2.667s3.556,2.134,4.623.948-.83-1.956-1.9-2.667-2.489-2.489-3.792-.948" transform="translate(-166.737 -415.404)" fill="#e8e8e8"/>
      <path id="Path_41960" data-name="Path 41960" d="M379.841,642.5c.169-.064.371-.169.592-.282a5.426,5.426,0,0,1,2.312-.758c.27,0,1.08-.126,1.794-.237,2.84-.443,3.488-.486,3.894.084.423.592.006,1.191-.524,1.95-.152.217-.416.6-.576.886h0a.948.948,0,0,0,.464-.176,5.244,5.244,0,0,1,.843-.39c.19-.066.379-.139.566-.211a5.27,5.27,0,0,1,2.729-.516,8.55,8.55,0,0,1,3.4,1.4,15.56,15.56,0,0,1,1.556,1.087,4.051,4.051,0,0,0,1.633.953,1.621,1.621,0,0,0,1.068-.463,5.5,5.5,0,0,1,.721-.477,8.387,8.387,0,0,1,2.208-.921c.108-.019.291-.047.521-.081a10.8,10.8,0,0,0,2.786-.6,1,1,0,0,0,.208-.368,1.987,1.987,0,0,1,1.344-1.3c.172-.048.376-.1.6-.153a7.7,7.7,0,0,0,1.851-.613,1.442,1.442,0,0,0-.577-1.017,5.959,5.959,0,0,1-.856-.465,1.806,1.806,0,0,0-.395-.214,3.739,3.739,0,0,0-.471.033,2.649,2.649,0,0,1-1.478-.114c-1.128-.565-.676-2.779-.5-3.3.116-.346.253-.8.381-1.228.149-.5.288-.952.369-1.167a1.337,1.337,0,0,0-.242-.857,6.949,6.949,0,0,1-.993-3.446,3.173,3.173,0,0,1,1.079-2.593,1.538,1.538,0,0,0,.376-.945c.032-.167.063-.326.1-.471.026-.271-.187-1.828-.329-2.857-.145-1.058-.3-2.152-.339-2.846a13.787,13.787,0,0,0-1.26-4.5,8.931,8.931,0,0,1-.757-2.258,9.466,9.466,0,0,0-.422-1.416c-.057-.06-.266-.255-.531-.5-1.987-1.875-2.533-2.56-2.542-3.185a.94.94,0,0,1,.274-.687,10.352,10.352,0,0,0,1.581-2.336,5.761,5.761,0,0,0-2.008-2.36,8.211,8.211,0,0,0-1.253-.562c-.736-.281-1.432-.545-1.67-1.26-.083-.247-.447-1.015-.739-1.631a18.664,18.664,0,0,1-.8-1.794,22.181,22.181,0,0,0-1.109-1.93c-.242-.4-.452-.739-.552-.924a21.876,21.876,0,0,0-1.352-2.2,3.132,3.132,0,0,1-.525-1.253,2.193,2.193,0,0,0-.213-.621c-.078-.1-.237-.254-.431-.449-1.346-1.362-1.932-2.092-1.852-2.813a1.033,1.033,0,0,1,.469-.759c.6-.384,1.633-.618,3.164.453.2.141.407.305.622.477a4.143,4.143,0,0,0,2.354,1.163,2.177,2.177,0,0,0,1.188-.262,3.575,3.575,0,0,1,2.286-.339,13.264,13.264,0,0,1,2.052.488,4.389,4.389,0,0,0,1.084.243,45.088,45.088,0,0,0,4.752-.345,5.05,5.05,0,0,0,2.06-.636,9.415,9.415,0,0,1,.865-.4,11.352,11.352,0,0,1,1.086-.343,6.807,6.807,0,0,0,.964-.316,6.551,6.551,0,0,0-.347-.708,2.605,2.605,0,0,1-.472-1.393c.079-.875,2.012-2.559,2.808-3a1.538,1.538,0,0,1,1.406-.172,2.659,2.659,0,0,1,.942.979c.175.258.437.618.585.636a17.47,17.47,0,0,0,2.893-.872c.557-.2,1.1-.39,1.551-.531a4.533,4.533,0,0,0,1.009-.469,3.514,3.514,0,0,1,2.386-.566,15.477,15.477,0,0,0,2.124,0,15.759,15.759,0,0,1,2.008-.013c.391.029.747.046,1.074.062a8.349,8.349,0,0,1,2.256.3,5.466,5.466,0,0,0,.991.135,4.418,4.418,0,0,1,2.4.657,3.337,3.337,0,0,1,.85,1.6c.067.2.165.5.256.7a27.4,27.4,0,0,0,2.65-2.739c.432-.487.831-.938,1.159-1.279a8.7,8.7,0,0,0,1.021-1.584c.684-1.228,1.392-2.5,2.538-2.662l.1-.014a2.717,2.717,0,0,1,2.642.52c.2.153.427.355.655.562-.008-.287-.019-.591-.029-.872-.11-3.216-.089-4,.119-4.416.026-.091.1-.641.162-1.084.314-2.288.677-4.419,1.654-5.361,1.919-1.851,3.824-4.289,3.845-4.922a24.2,24.2,0,0,1,.944-4.813c.155-.611.283-1.114.332-1.37a20.589,20.589,0,0,1,1-2.87c.21-.53.4-1.011.506-1.327a15.176,15.176,0,0,0,.754-3.74c-.119-.673.166-5.632,1.851-6.291a7.587,7.587,0,0,1,4.355-.023,9.742,9.742,0,0,1,2.275,1.368c.316.224.723.513,1.068.736v-.141c.032-2.858.142-4.757,1.341-5.1a12.63,12.63,0,0,1,2.785-.2c.828-.008,1.683-.017,2.356-.089a6.415,6.415,0,0,0,2.519-.861c.267-.138.541-.28.841-.419l.528-.24a11.247,11.247,0,0,0,2.179-1.165c0-.058,0-.124-.007-.2-.069-1.852.016-3.67,1.1-4.422.575-.4,1.665-.994,2.72-1.569.831-.453,1.689-.921,2.082-1.182a17.811,17.811,0,0,0,3.292-3.315c.177-.671,1.019-4.376,1.1-5.148a4.932,4.932,0,0,0-.025-.752c-.068-.885-.161-2.1.833-2.724a8.959,8.959,0,0,0,2.551-2.268c.1-.94.393-5.564.3-6.444-.079-.073-.313-.28-.475-.422-.7-.616-1.361-1.2-1.341-1.921a1.071,1.071,0,0,1,.422-.825,12.218,12.218,0,0,0,2.168-2.743c-.056-.848-.085-3.208,1.238-3.765.241-.1.586-.211.963-.329.288-.09.775-.243,1.143-.391a11.558,11.558,0,0,0-1.339-.456l-.159-.046a13.66,13.66,0,0,1-4.015-2.252c-.044,0-.086.01-.131.01A4.723,4.723,0,0,1,489,491.105c-.114-.139-.486-.505-.845-.859a14.882,14.882,0,0,1-1.7-1.826l-.117-.185c-1.259-2.018-1.848-2.215-2.069-2.215a3.309,3.309,0,0,0-1.239.425,4.565,4.565,0,0,1-2.569.615,7.2,7.2,0,0,1-4.327-2.533,6.955,6.955,0,0,1-.664-1.7,9.992,9.992,0,0,0-.382-1.119h-.005a3.436,3.436,0,0,1-1.764.205,3.142,3.142,0,0,1-2.091-1.459,1.982,1.982,0,0,0-.49-.531,3.9,3.9,0,0,1-2-3.387c0-.288.023-.878.052-1.613a43.67,43.67,0,0,0,.008-5.875c-.219-.41-2.155-1.511-4.216-2.231a4.812,4.812,0,0,0-3.2.468c-.4.15-.773.292-1.14.392a12.9,12.9,0,0,0-3.241,2.024c-.307.232-.591.448-.839.625a19.171,19.171,0,0,0-1.885,1.829c-1.352,1.413-2.214,2.289-2.878,2.5a2.664,2.664,0,0,1-2.232-.345c-.26-.128-.568-.28-.964-.438a2.028,2.028,0,0,0-1.422-.006,2.128,2.128,0,0,1-1.513-.013c-.859-.4-.938-1.726-1-4.029-.014-.5-.031-1.119-.07-1.384-.059-.006-.125-.011-.185-.016a7.946,7.946,0,0,1-1.761-.311,4.107,4.107,0,0,1-2.8-2.156c-.068-.114-.139-.23-.216-.352a4.113,4.113,0,0,1-.311-2.933c.024-.147.047-.274.054-.372.009-.12.031-.266.058-.429.117-.719.115-1.075-.209-1.282-.241-.154-.512-.333-.8-.525a28.621,28.621,0,0,0-2.61-1.6,10.852,10.852,0,0,0-.567,1.988,3.948,3.948,0,0,1-.613,1.771c-.613.667-1.435.309-1.926.1a1.925,1.925,0,0,0-.966-.25c-.125.024-.341.389-.5.656a3.161,3.161,0,0,1-2.008,1.749,3.5,3.5,0,0,1-2.961-1.077,3.216,3.216,0,0,0-.857-.573,13.513,13.513,0,0,0-3.289.163c-.3.037-.581.071-.817.1-.435.045-.848.458-1.326.935a7.474,7.474,0,0,1-1.258,1.074,7.942,7.942,0,0,1-4.3,1.447,3.148,3.148,0,0,1-2.792-1.163c-.319-.335-.461-.464-.681-.485-.3-.032-1.15.815-1.608,1.268a5.572,5.572,0,0,1-2.558,1.777,2.6,2.6,0,0,1-2.518-.915,3.863,3.863,0,0,0-.721-.593,10.344,10.344,0,0,1-2.086-1.982,9.565,9.565,0,0,0-1.358-1.369,7.26,7.26,0,0,0-3.128-1.118,2.933,2.933,0,0,0-1.4.463,4.866,4.866,0,0,1-2.4.7,15.38,15.38,0,0,1-3.831-.879c.015,3.441.055,13.893-.006,14.867-.082,1.317-1.732,3.271-2.433,4.046a17.278,17.278,0,0,0,.91,2.652,10.9,10.9,0,0,1,.559,1.564,30.609,30.609,0,0,1-.072,5.671,31.074,31.074,0,0,0,.1,3.828c.031.518.056.941.061,1.162a4.413,4.413,0,0,0,.635.621,3.4,3.4,0,0,1,.912,1.011c.225.483.249,1.53.093,4l-.019.3c-.037.665-.259,2.254-1.528,2.634a7.518,7.518,0,0,1-3.045.243,2.859,2.859,0,0,0-2.126,1.053l-.161.148a20.487,20.487,0,0,0-1.853,4.315c-.126.377-3.667,9.775-4.438,10.61-.787.852-1.766,1.123-3.381.938a6.775,6.775,0,0,1-4.382-2,7.115,7.115,0,0,0-3.3-2.157,3,3,0,0,0-2.136.773c-.219.188-.748.558-1.591,1.146-.609.423-1.242.863-1.585,1.126a10.214,10.214,0,0,1-2.835,1.211c-.408.133-.833.273-1.258.425-.814.29-1.937,1.683-2.68,2.605a6.936,6.936,0,0,1-1.241,1.347,10.93,10.93,0,0,1-3.757,1.25,7.767,7.767,0,0,0-1.171.273,12.592,12.592,0,0,1-2.152.459,8.54,8.54,0,0,1-4.09-.741c-.347-.127-.688-.251-1.022-.354a.883.883,0,0,0-1.074.188,3.887,3.887,0,0,1-.978.579l-.39.154a10.756,10.756,0,0,1-2.514.731,9.166,9.166,0,0,1-1.261.122,6.046,6.046,0,0,0-2.087.4,2.526,2.526,0,0,0-1.477,1.726,5.174,5.174,0,0,1-.555,1.078c-.232.317-.6.985-.954,1.632a13.653,13.653,0,0,1-1.5,2.4,9.074,9.074,0,0,0,.1,2.4,4.823,4.823,0,0,1,.075,1.457c-.162.729-.971,1.006-2,1.357a7.016,7.016,0,0,0-1.32.543,3.267,3.267,0,0,0-.387,1.164,2.862,2.862,0,0,1-1.064,2.064,1.106,1.106,0,0,1-.944.087c-.656-.243-.935-1.02-1.23-1.843-.05-.14-.116-.321-.182-.491a1.683,1.683,0,0,1-1.058.85,1.132,1.132,0,0,1-.9-.23,5.094,5.094,0,0,0-2.052-.94c-.358-.109-1.011.711-1.439,1.253a6.362,6.362,0,0,1-.969,1.065,5.709,5.709,0,0,1-2,.993c-.258.087-.555.186-.912.32a2.5,2.5,0,0,1-2.862-.748,4.325,4.325,0,0,0-.357-.319h0a2.9,2.9,0,0,0-.94.343,2.311,2.311,0,0,1,.718,1.3c.178,1.719-1.572.085-3.911,1.9-1.837,1.422-2.311,1.422-2.43,2.9s-.059,2.014,1.363,2.667,2.489.3,2.726,1.363.593,2.43-.474,2.608-4.385-1.837-3.556-.474,4.5,4.5,5.748,3.674,1.007-3.378,2.489-2.548,3.089,4.647,4.859,4.445c2.074-.237,2.015-.948,3.971-2.193s1.363-2.133,2.608-2.667,2.074-.474,4.266-.77,3.971-.711,5.689-.237a41.847,41.847,0,0,1,6.815,2.489c1.956,1.008,1.659,1.66,2.667,2.963a7.349,7.349,0,0,0,2.371,2.133c1.244.889,4.918,2.015,3.437,2.252s-5.274-1.245-6.044-2.074a38.029,38.029,0,0,0-7.289-4.859,9.679,9.679,0,0,0-4.326-.83c-2.311,0-5.155.3-6.222,1.363s.237,7.111-.593,8-5.867,2.015-4.208,3.141,6.223,1.126,8.059,2.37,5.867,5.156,5.215,6.4a12.376,12.376,0,0,1-1.9,2.845c-1.185,1.481-.119,2.726-1.541,3.911s-1.125.83-2.489,1.9-1.363,1.007-2.844,3.318-.77,4.208.3,5.807a21.265,21.265,0,0,0,5.037,5.333c1.719,1.244,5.393,6.459,6.222,7.763s3.5,4.148,3.852,5.629-.237,8.059,1.245,8.83,1.481-.415,2.251.593a18.869,18.869,0,0,0,4.86,4.444c1.778.889,2.963.711,3.259,1.778a1.764,1.764,0,0,0,2.015,1.54c1.185-.059,4.03-.474,4.859.474s1.245,6.045,2.963,6.1,4.029-1.363,5.511,0,5.689,6.518,7.17,5.866.355-3.318,2.074-3.555a5.746,5.746,0,0,1,3.674.835c.32-.224.66-.48.978-.723a8.319,8.319,0,0,1,1.676-1.115" transform="translate(-161.427 -245.855)" fill="#e8e8e8"/>
      <path id="Path_41961" data-name="Path 41961" d="M211.848,648.885a26.285,26.285,0,0,0,1.067,6.341c.356,1.067,1.778,1.659,3.911,1.9s5.274,1.008,6.341-.889-2.489-1.718-3.5-2.488a16.326,16.326,0,0,1-3.259-4.208c-.593-1.185-4.386-3.259-4.563-.652" transform="translate(-113.6 -347.296)" fill="#e8e8e8"/>
      <path id="Path_41962" data-name="Path 41962" d="M3.182,433.183c-1.179,0-4.563,3.875-2.563,3.688s5.25-3.688,2.563-3.688" transform="translate(0 -232.297)" fill="#e8e8e8"/>
      <path id="Path_41963" data-name="Path 41963" d="M169.574,502.453a5.055,5.055,0,0,1,.6.513c.5.472.661.6,1.18.4.378-.142.692-.247.966-.339a4.211,4.211,0,0,0,1.514-.733,5.669,5.669,0,0,0,.7-.794c.743-.941,1.763-2.231,3.18-1.8a7.072,7.072,0,0,1,2.206.945l.05-.076c.265-.4.884-1.337,1.847-.87.588.287.842.993,1.135,1.812l.07.193c.025-.108.048-.212.067-.3a3.267,3.267,0,0,1,1.068-2.164,7.742,7.742,0,0,1,1.693-.727c.291-.1.7-.239.928-.348-.02-.191-.058-.5-.088-.739-.218-1.761-.323-3.057.319-3.7a14.91,14.91,0,0,0,1.265-2.08,19.4,19.4,0,0,1,1.068-1.811,4.01,4.01,0,0,0,.367-.746,4.05,4.05,0,0,1,2.428-2.625,7.571,7.571,0,0,1,2.556-.5,7.557,7.557,0,0,0,1.056-.1,9.175,9.175,0,0,0,2.2-.641l.4-.158a2.38,2.38,0,0,0,.589-.362,2.425,2.425,0,0,1,2.523-.443c.359.11.727.244,1.1.38a7.219,7.219,0,0,0,3.329.657,10.974,10.974,0,0,0,1.906-.408,9.333,9.333,0,0,1,1.394-.32,9.613,9.613,0,0,0,3.089-1,9.809,9.809,0,0,0,.879-1.017c.959-1.189,2.152-2.669,3.4-3.114.439-.157.878-.3,1.3-.439a9.863,9.863,0,0,0,2.353-.956c.357-.274,1.014-.732,1.647-1.173.6-.42,1.289-.9,1.463-1.045a4.471,4.471,0,0,1,3.477-1.136,8.719,8.719,0,0,1,4.219,2.67,5.34,5.34,0,0,0,3.363,1.476c1.347.156,1.706-.1,2.007-.428.528-.729,3.7-8.844,4.093-10.025.143-.427,1.417-4.2,2.3-5l.15-.138a4.389,4.389,0,0,1,3.348-1.479,6,6,0,0,0,2.456-.18c.111-.033.339-.466.378-1.175l.019-.313a14.914,14.914,0,0,0,.041-3.25c-.038-.047-.31-.282-.49-.438-.56-.483-1.194-1.032-1.194-1.774,0-.177-.027-.6-.059-1.135a24.677,24.677,0,0,1-.066-4.243,30.981,30.981,0,0,0,.069-5.051c-.032-.166-.275-.776-.472-1.267-.991-2.479-1.335-3.552-.737-4.2a9,9,0,0,0,2.148-3.2c.053-.842.025-10.086,0-15.306-.19-.064-.387-.13-.562-.187-.9-.294-2.505-1.045-4.2-1.842-1.571-.737-3.2-1.5-3.842-1.684-.466-.133-1.649,1.463-2.1,2.063a9.426,9.426,0,0,1-1.034,1.253,11.031,11.031,0,0,1-5.5,2.894,4.981,4.981,0,0,1-5.007-2l-.195-.258c-1.315-1.74-2.737-3.731-2.97-5.331-.166-1.132-1.4-5.725-2.138-8.469-.136-.5-.257-.958-.361-1.345-.753.719-1.073,2.243-3.5,2.1-2.963-.178-8.059.474-9.719-.356s-2.52-3.319-1.467-4.266,1.882-3.26,1.349-3.674-4.741.237-6.163.652-1.541,1.482-2.726,2.489a2.268,2.268,0,0,0-.77,2.963,49.235,49.235,0,0,1,1.9,6.578c.119,1.244-.77-.593-1.244-1.245s-1.245-5.866-2.608-6.518a4.521,4.521,0,0,0-4.089-.059c-1.067.652-2.015,4.5-3.734,4.03a2.982,2.982,0,0,1-2.193-2.489c-.237-.771-.118-2.608-1.007-2.43s-2.963-.059-2.548-.711.415-3.437-.889-3.5-1.837,2.252-3.437,2.9-2.371-.3-4.623.474-3.97,4.208-6.578,5.749-6.1,5.511-7.052,4.681-1.9-1.482-1.659-2.43,0-1.448-1.008-1.88a5.853,5.853,0,0,1-2.548-2.21c-.592-.948-.83-5.1-1.6-5.867s-4.978-3.259-4.978-4.681.356-4.741-1.185-4.978-4.089-.3-3.733-1.481.466-3.793-.033-3.971-.8.237-1.8.533-2.311,2.963-2.252,2.193,1.481-5.926.533-6.518-1.541-.119-3.022.711-4.148,5.511-4.208,4.03,1.422-3.911,0-4.386-2.548,1.008-4.681,1.185-3.259,1.541-4.326,2.015-1.9,1.185-2.785.415-1.481-2.785-3.733-2.607-5.452,3.437-5.274,4.563,2.311,3.022,2.193,3.674-2.015.3-2.548.948.059,2.785-1.6,2.844-2.015-2.252-4.148-3.082-5.926-2.785-6.933-1.777-1.007,1.956-1.778,3.615-.652,5.037-1.3,4.741-1.422-2.9-2.43-2.963S89.78,395,89.721,393.93s.948-4.089-.77-4.148-1.6.83-4.445,1.778a21.1,21.1,0,0,1-6.637.889c-1.956.118-1.126,2.963-2.726,2.726s-4.445,1.3-4.563.356-.118-2.845-2.607-2.785-1.9,2.193-3.793,2.193-.77.652-3.5.533-3.792-.356-4.445.593-.533,1.6-2.015,1.778-1.3,1.778-2.785,1.9-2.37.592-3.792.711-2.667.474-3.082,1.541a9.3,9.3,0,0,0-.889,2.548,4.012,4.012,0,0,0,0,2.371c.3.889,1.126,1.422.3,1.9s-1.126-.3-1.481,1.126a50.67,50.67,0,0,0,0,9.482c.237,1.3,2.252,1.244,3.5.889s1.3-2.311,2.548-1.956,2.785,1.363,3.911,1.126,2.193-1.363,3.615-1.778,2.489-1.067,4.563-1.6,4.741-2.252,6.4-2.015-3.14,2.785-5.037,4.266-3.022,2.963-1.363,3.319,4.681-1.422,6.756-1.007,1.007,1.126,1.126,2.252,5.748,1.659,5.274,2.311-9.9.3-11.852,0-6.519-.593-6.993-1.185,0-3.437-.889-3.2-1.007,1.778-2.015,2.548-1.956,1.067-2.074,2.489.711.711,1.837,1.778,2.193-1.008,2.311.237-3.319,7.348-1.067,6.874,2.014-2.015,2.9-3.082.83-2.9,3.437-2.43,2.252,2.074,4.029,2.608,2.371.593,3.615,2.074,1.541,5.63-.356,6.281-2.43.415-4.5.356-3.437.533-5.57.711-5.274,1.3-7.7,1.126-3.615-.593-5.334.711-2.667,1.3,0,2.015,4.918,1.9,7.289,2.489a17.3,17.3,0,0,1,4.978,2.015,4.154,4.154,0,0,1,1.9,4.386c-.356,1.659.83,2.074,2.074,2.844s2.9,2.074,2.667,3.437,0,2.548-1.067,4.267-.059,2.015,2.37,2.726,2.785.355,5.57,0,4.445-1.9,3.437-3.022-2.251-2.134-.711-3.26,1.363.059,2.489-.533.533-3.319,1.126-2.252.711,2.548,2.489,3.556,3.082,2.251,4.385,1.422,2.015-4.918,3.141-3.2.948,5.333,2.43,6.933,1.719,2.785,4.918,2.489a14.02,14.02,0,0,1,6.874,1.185c1.6.593,2.074,1.422,4.444,1.956s3.911-1.363,4.563-.356,1.6,7.407,4.5,6.874,2.489-2.43,3.259-2.9,5.274-3.793,4.385-2.252-3.971,4.033-2.845,5.187,4.03,3.939,5.867,3.82,2.074-2.548,2.785-3.378,2.133-4.089,3.674-2.607,1.126,2.133-.474,3.319-4.563,3.615-4.326,4.741,2.548,3.259,3.792,3.852-.533.888-.83,2.193a18.061,18.061,0,0,0-.118,5.1c.178,1.6.118,3.852,1.244,2.726s0-2.963-.118-3.674-.119-3.852.83-4.444,1.784-.5,3.319-.356c1.244.119,1.007-.059,2.014-.3s1.659-.178,2.371-.889.415-2.193.533-2.963,1.541-2.607,1.6-1.422-.059,4.563,2.43,4.148c1.738-.289,3.022-1.363,4.208-1.363s2.134.533,3.793.474,2.43-1.244,3.081-.178.119,3.674-1.837,4.563-2.074,1.6-4.5,1.007-6.7-1.3-5.867-.178,2.785,4.978,5.1,4.978a57.381,57.381,0,0,0,6.163-.119c3.319-.237,1.778-1.659,4.5-2.015s0,.3,3.437.534a15.278,15.278,0,0,1,6.222,1.363c2.785,1.007,4.207,1.185,3.437,1.777s-6.341-.415-5.985,1.126c.168.73,1.015,1.393,1.878,2.072,1.1-.605,2.277-1.162,3.129-.571" transform="translate(-22.466 -204.4)" fill="#e8e8e8"/>
      <path id="Path_41964" data-name="Path 41964" d="M412.037,866.9c-.114,1.478-.237,3.378,1.778,3.674s2.489-.356,3.97.356,5.63,2.607,7.289,3.555,3.319,1.837,4.385.889-.237-2.607-1.067-3.2a44.96,44.96,0,0,0-5.926-2.845c-.83-.237-4.148.178-4.326-.178s1.837-1.719,1.3-2.252-3.14,1.363-3.259.77.83-2.37-.415-2.726-3.556-.356-3.734,1.956" transform="translate(-220.929 -463.742)" fill="#e8e8e8"/>
      <path id="Path_41965" data-name="Path 41965" d="M433.023,906.177c-.108-1.084-1.608-2.726-2.256-1.6a4.333,4.333,0,0,0,0,3.733,3.516,3.516,0,0,1,.537,2.43,3.56,3.56,0,0,0,.378,2.9c.688,1.007,3,2.015,3.948,3.318s2.963,3.971,2.9,4.919,1.245,3.141,2.489,2.548,2.311-3.5,1.956-4.918-3.437-3.141-3.555-4.267.474-4.5-.474-5.155-3.437-.711-3.852-1.422-2.015-1.9-2.074-2.489" transform="translate(-230.775 -484.883)" fill="#e8e8e8"/>
      <path id="Path_41966" data-name="Path 41966" d="M442.592,1065.571a7.1,7.1,0,0,0,.617-1.744,7.685,7.685,0,0,1,.822-2.18,5.326,5.326,0,0,1,3.735-2.454c1.261-.274,2.065-2.345,2.065-3.338a5.017,5.017,0,0,1,1.681-4.042,53.189,53.189,0,0,0,4.335-4.849c.458-.611,1.358-1.677,2.228-2.708.729-.863,1.548-1.834,1.822-2.21a6.253,6.253,0,0,0-.331-1.062,6.307,6.307,0,0,1-.57-2.955c.185-1.292,1.6-2.079,2.847-2.773a5.832,5.832,0,0,0,1.4-.93c.1-.29-.09-.618-.59-1.346a11.033,11.033,0,0,1-.724-1.162,3.473,3.473,0,0,1-.321-2.582,8.052,8.052,0,0,0-.316-4.321c-.151-.569-.307-1.157-.418-1.792a13.423,13.423,0,0,0-2.343-4.45l-.535-.795a12.478,12.478,0,0,1-.927-1.614c-.25-.512-.3-.6-1.16-1.154a3.04,3.04,0,0,0-1.932-.485,4.514,4.514,0,0,1-1.83-.27,3.8,3.8,0,0,0-1.551-.154,6.24,6.24,0,0,1-2.709-.372,2.348,2.348,0,0,1-1.412-2.008c-.24-1.55.391-3.845,1.251-4.548a2.761,2.761,0,0,0-.145-.946,3.3,3.3,0,0,1-.11-1.835,3.093,3.093,0,0,1,1.662-1.557,5.726,5.726,0,0,0,1.5-1.063c.413-.447.15-2-.025-3.026a7.4,7.4,0,0,1-.173-2.52,4.754,4.754,0,0,1,.727-1.869c.18-.3.427-.716.788-1.413.836-1.612-.132-3.5-1.1-5.146-1.2-2.028.378-3.026,1.225-3.561.18-.115.363-.228.53-.352.858-.636,2.429-.53,4.091-.416a12.926,12.926,0,0,0,2.242.04c.427-.061.863-.606,1.323-1.183a5.225,5.225,0,0,1,2.9-2.184,1.585,1.585,0,0,1,1.423.307c.832.7.77,2.117.7,3.612a6.783,6.783,0,0,0,.05,1.806c.406.524,1.869.435,2.78-.2.5-.346.029-3.267-.127-4.227-.093-.577-.176-1.1-.212-1.489a1.313,1.313,0,0,1,.518-1.322c.73-.489,1.665,0,2.748.57a8.235,8.235,0,0,0,1.422.647c1.32.345,1.318.346,2.133-.518a9.331,9.331,0,0,1,2.973-2.334c1.152-.644,2.32.223,3.352.984.726.535,1.551,1.147,2.155,1.093a2.079,2.079,0,0,0,1.451-.74,5.138,5.138,0,0,1,2.212-1.33,16.261,16.261,0,0,0,4.848-2.272c1.449-1.087,2.861-1.137,5.439-1.137h.772a3.977,3.977,0,0,0,1.587-.151c.285-.08.69-.193,1.352-.353,1.732-.422,2.675.663,3.365,1.453s1.026,1.087,1.681.945c1.488-.326,2.217-1.533,2.922-2.7a12.413,12.413,0,0,1,.736-1.129,26.271,26.271,0,0,1,3.731-4.185,2.088,2.088,0,0,1,2.2-.577,1.284,1.284,0,0,0,.768.036c.594-.132.758-.91.9-1.839.02-.134.039-.259.059-.368a4.219,4.219,0,0,1,1.1-1.8,9.01,9.01,0,0,0,1.226-1.722c.257-.513.559-1.036.853-1.542a10.555,10.555,0,0,0,1.147-2.351,7.071,7.071,0,0,0-1.294-.625c-1.105-.452-2.247-.92-2.493-1.9-.261-1.045.352-2.355.893-3.512a7.408,7.408,0,0,0,.438-1.046c.17-1.7,1.815-1.7,2.605-1.7a37.585,37.585,0,0,1,4.3.39l.53.067c1.3.158,1.88-.508,2.781-1.71.576-.768.537-1.53-.143-2.814a5.315,5.315,0,0,0-.9-1.139,5.555,5.555,0,0,1-1.562-2.478,12.389,12.389,0,0,0-.607-1.567c-.6-1.367-1.272-2.916-.9-4.464.445-1.855,2.762-2.726,4.3-3.3.376-.141.731-.275.911-.371a11.871,11.871,0,0,0,2.664-2.187,4.049,4.049,0,0,0,.879-1.408,11.614,11.614,0,0,1,1.209-2.165,9.688,9.688,0,0,1,3.471-3.228c.5-.3.93-.605,1.388-.93.544-.386,1.159-.823,1.989-1.321a6.721,6.721,0,0,0,2.49-2.489,3.3,3.3,0,0,0,.294-2.088,7.865,7.865,0,0,1,.066-2.019c.281-1.4,1.451-1.591,2.226-1.716a2.941,2.941,0,0,0,1.432-.488c.5-.389.465-.593.381-1.137a2.711,2.711,0,0,1,.039-1.334,3.87,3.87,0,0,1,1.419-1.562c.587-.465,1.391-1.1,1.391-1.56a5.349,5.349,0,0,1,.3-1.745,4.034,4.034,0,0,0,.229-1.6,5.532,5.532,0,0,0-.537-1.847,6.351,6.351,0,0,1-.664-2.8c.116-2.681,6.48-4.983,6.544-5.006a3.368,3.368,0,0,1,2.8.2,2.613,2.613,0,0,0,.6.22,6.553,6.553,0,0,1,1.553.5c.418.175.938.392,1.722.654,1.639.545,3.315,2.714,4.538,4.3.3.391.563.73.771.969a7.947,7.947,0,0,0,4.36,2.729,2.159,2.159,0,0,0,2.23-.634c.143-.122.3-.255.474-.4,1.174-.938,2.515-1.881,3.422-2.509a1.373,1.373,0,0,1,1.067-.235c.786.155,1.288.932,1.732,1.617.064.1.146.224.219.331.139-.135.317-.344.449-.5.094-.109.191-.223.292-.337a3.738,3.738,0,0,1,2.561-.959c.288-.034.592-.07.9-.125a12.354,12.354,0,0,1,1.634-.133c.328-.012.787-.028,1.051-.069A8.622,8.622,0,0,1,591.7,896c.213-.215.413-.416.575-.587.234-.249.295-1.224.183-2.9-.019-.278-.033-.506-.033-.653,0-1.016,1.026-1.785,1.931-2.463l.279-.21a3.121,3.121,0,0,0,.884-2.126,2.845,2.845,0,0,1,1.333-2.174c.2-.178.412-.359.592-.551.378-.4.4-.97.088-2.091-.073-.262-.154-.508-.232-.748a5.623,5.623,0,0,1-.388-2.783c.142-.889,1.527-2.378,4.785-5.594.875-.864,1.7-1.679,1.929-1.975.262-.339.671-.825,1.116-1.354a24.956,24.956,0,0,0,2.07-2.65,3.079,3.079,0,0,0-.3-2.309,3.233,3.233,0,0,1,.976-3.82c.771-.549,1.711.1,3.135,1.071a8.728,8.728,0,0,0,2.872,1.548.889.889,0,0,0,.738-.316,3.357,3.357,0,0,0,.812-2.067,11.716,11.716,0,0,1,.115-1.632,10.62,10.62,0,0,0,.089-2.757c-.1-.43-.169-.981-.246-1.565a11.545,11.545,0,0,0-.74-3.307,15.442,15.442,0,0,1-1.661-4.963c-.128-1.286,1.289-2.29,2.539-3.177a7.087,7.087,0,0,0,1.2-.961c.187-.74.363-4.4-.064-5.286-.348-.725-2.525-2.471-4.428-3.74-1.39-.926-2.795-4.1-2.9-5.264a3.655,3.655,0,0,1,1.92-3.37,8.736,8.736,0,0,0,1.107-.863,4.269,4.269,0,0,1,.622-.49,12.924,12.924,0,0,1,1.491-.716c.533-.233,1.085-.474,1.522-.7a16.4,16.4,0,0,0,2.609-3.283c.207-.305.386-.57.524-.763a11.066,11.066,0,0,0,1.392-3.356,28.589,28.589,0,0,0-.016-5,8.843,8.843,0,0,0-.793-1.817,9.444,9.444,0,0,1-.9-2.128,2.985,2.985,0,0,1,.249-1.769,2.806,2.806,0,0,0,.245-.956,7.168,7.168,0,0,0-1.116-3.2,16.333,16.333,0,0,1-.906-2.362,11.559,11.559,0,0,0-.657-1.735c-.153-.293-.4-.706-.675-1.162-.427-.712-.911-1.519-1.23-2.185a4.975,4.975,0,0,0-2.445-2.466,4.777,4.777,0,0,1-2-1.4,6.9,6.9,0,0,0-.53-.536,16.461,16.461,0,0,0-1.356-1,13.743,13.743,0,0,1-2.263-1.79c-.272-.3-.538-.639-.812-.983a11.581,11.581,0,0,0-1.637-1.792,7.082,7.082,0,0,1-1.62-2.417,8.319,8.319,0,0,0-.849-1.483c-.345-.421-2.065-.328-2.89-.282a10.245,10.245,0,0,1-1.309.021c-.376-.032-1.116-.034-1.9-.035a28.073,28.073,0,0,1-3.8-.159c-.368-.063-.895-.161-1.49-.272-1.522-.283-3.606-.67-4.436-.734-1.24-.095-4.279-.222-5.019-.141-.162.018-.353.045-.566.076a13.412,13.412,0,0,1-3.5.154,2.664,2.664,0,0,1-1.869-1.042,1.138,1.138,0,0,0-.7-.484,4.432,4.432,0,0,0-.256,1.929c0,.181-.006.329-.013.427a2.813,2.813,0,0,1-1.868,2.544,3.825,3.825,0,0,1-2.8-.384,7.388,7.388,0,0,0-.907-.332c-.023.035-.208.291-.33.462a2.685,2.685,0,0,1-1.947,1.362c-1.357.1-2.221-1.136-2.912-2.128a7.26,7.26,0,0,0-.671-.877c-.382-.382-.677-.413-1.473-.446-.277-.011-.577-.025-.907-.061-.478-.051-.857.252-1.34.687a2.994,2.994,0,0,1-.728.538,14.771,14.771,0,0,0-1.115,1.754c-.191.33-.353.6-.451.744a4.714,4.714,0,0,1-2.115,1.856c-1.651.654-3.6-1.541-3.968-1.988a10.9,10.9,0,0,0-2.065-2.034c-.087.168-.182.392-.249.549a2.9,2.9,0,0,1-1.136,1.6,6.558,6.558,0,0,1-3.822.4,4.9,4.9,0,0,1-3.639-2.305,2.7,2.7,0,0,1,.325-3.069c.055-.084.108-.159.146-.225-.023-.145-.131-.387-.662-.886a7.812,7.812,0,0,0-.8-.615,4.593,4.593,0,0,1-1.744-1.784,2.411,2.411,0,0,1,.335-2.151,2.345,2.345,0,0,0,.341-.877c.021-.455-.141-.611-1.058-1.28l-.276-.2a1.559,1.559,0,0,0-1.234-.4,8.991,8.991,0,0,1-1-.047l-.211-.022a6.046,6.046,0,0,1-3.631-1.225,33.466,33.466,0,0,1-3.539-3.619c-.776-.961-2.86-4.219-2.954-5.86a10.669,10.669,0,0,1,.523-2.852,9.07,9.07,0,0,0,.484-2.716c-.173-.5-1.205-1.309-1.959-1.9a14.165,14.165,0,0,1-1.408-1.2,39.261,39.261,0,0,1-2.637-3.487c-.366-.518-.661-.94-.8-1.118a25.243,25.243,0,0,1-1.565-2.695c-.353-.65-.68-1.257-.884-1.593a10.865,10.865,0,0,0-.762-1.078c-.24-.31-.485-.629-.767-1.061a10.274,10.274,0,0,1-.912-3.043,12.744,12.744,0,0,0-.462-1.854,9.9,9.9,0,0,0-2.228-1.956c-.524-.388-1.019-.755-1.387-1.082a11.379,11.379,0,0,0-1.989-1.389,3.419,3.419,0,0,1,.327,1.17,3.809,3.809,0,0,1-1.78,2.506c-.676.406-1.926.37-4.613-.13-.4-.072-.554.038-1.033.551a3.083,3.083,0,0,1-2.116,1.2,19.324,19.324,0,0,1-5.589-.461,3.871,3.871,0,0,1-2.659-2.427c-.384-.928.028-2.7.652-5.1.087-.332.184-.707.257-1.013a2.133,2.133,0,0,1-1.085-.4,3.292,3.292,0,0,1-1.237-1.508,3.391,3.391,0,0,0-.344-.613,5.538,5.538,0,0,0-.514.23,2.754,2.754,0,0,1-2.912.16c-1.462-.989-.784-2.569-.495-3.243l.052-.122c-.311-.17-.834-.4-1.182-.549a8.573,8.573,0,0,1-1.833-.954,14.765,14.765,0,0,0-1.428-.929c-.571-.347-1.2-.729-1.737-1.112-.579.077-1.1-.392-1.791-1.02-.215-.2-.43-.392-.618-.536-.45-.344-.45-.344-1.431-.2l-.1.014c-.353.051-1.005,1.22-1.356,1.848a9.565,9.565,0,0,1-1.267,1.916c-.315.329-.7.763-1.114,1.232a24.979,24.979,0,0,1-3.031,3.078,1.4,1.4,0,0,1-1.3.288c-.772-.242-1.05-1.081-1.319-1.893a4.089,4.089,0,0,0-.352-.866,4.131,4.131,0,0,0-1.5-.286,6.129,6.129,0,0,1-1.366-.213,7.384,7.384,0,0,0-1.823-.218c-.339-.016-.709-.034-1.115-.064a14.138,14.138,0,0,0-1.807.015,16.615,16.615,0,0,1-2.339,0,1.954,1.954,0,0,0-1.441.353,6.135,6.135,0,0,1-1.339.614c-.436.136-.955.321-1.492.512a16.919,16.919,0,0,1-3.293.959,2.309,2.309,0,0,1-2.065-1.34c-.064-.094-.146-.216-.218-.311a8.312,8.312,0,0,0-1.942,1.767c.061.133.161.319.236.455a2.631,2.631,0,0,1,.5,2.06c-.293.788-1.212,1.044-2.1,1.292-.314.087-.639.177-.931.291-.269.106-.5.222-.722.337a6.641,6.641,0,0,1-2.622.8,44.239,44.239,0,0,1-5,.352,5.812,5.812,0,0,1-1.482-.313,11.748,11.748,0,0,0-1.824-.436,2.016,2.016,0,0,0-1.378.216,3.75,3.75,0,0,1-1.939.4,5.655,5.655,0,0,1-3.276-1.515c-.187-.15-.364-.293-.538-.415a3.615,3.615,0,0,0-.687-.387c.331.386.767.826.983,1.046.24.243.435.443.532.562a3.063,3.063,0,0,1,.529,1.251,2.173,2.173,0,0,0,.22.637,23.537,23.537,0,0,1,1.509,2.436c.093.17.287.487.512.854a14.683,14.683,0,0,1,1.278,2.309c.057.189.435.985.71,1.566.408.86.671,1.424.79,1.752a4.514,4.514,0,0,0,.733.322,9.705,9.705,0,0,1,1.493.677,6.6,6.6,0,0,1,2.814,3.657c.072.883-1.127,2.463-1.727,3.191a24.172,24.172,0,0,0,1.9,1.942c.313.295.557.529.658.641a5.336,5.336,0,0,1,.753,2.06,9.4,9.4,0,0,0,.562,1.8,15.14,15.14,0,0,1,1.5,5.26c.04.635.186,1.7.327,2.727.322,2.347.4,3.092.287,3.5-.029.107-.051.224-.074.347a2.957,2.957,0,0,1-.928,1.885,1.527,1.527,0,0,0-.5,1.351,6.1,6.1,0,0,0,.587,2.375,2.77,2.77,0,0,1,.545,2.495c-.074.2-.2.614-.334,1.067s-.275.913-.4,1.272a3.74,3.74,0,0,0-.138,1.333c.126-.01.291-.028.408-.042a3.875,3.875,0,0,1,.827-.033,2.491,2.491,0,0,1,1.075.451,4.453,4.453,0,0,0,.633.348,2.834,2.834,0,0,1,1.38,1.6,2.086,2.086,0,0,1,.014,1.635c-.377.774-1.448,1.09-2.919,1.453-.2.05-.391.1-.549.14-.123.034-.145.04-.292.382a2.325,2.325,0,0,1-.716,1.018,9.035,9.035,0,0,1-3.53.913c-.2.03-.368.053-.464.071a7.53,7.53,0,0,0-1.736.756,4.2,4.2,0,0,0-.517.347,3.154,3.154,0,0,1-2.034.784,4.646,4.646,0,0,1-2.615-1.286,14.242,14.242,0,0,0-1.395-.979,7.1,7.1,0,0,0-2.817-1.2,3.947,3.947,0,0,0-1.909.426c-.2.078-.407.156-.613.228a3.661,3.661,0,0,0-.6.28,2.333,2.333,0,0,1-2.126.219,1.189,1.189,0,0,1-.8-.749c-.246-.714.23-1.5.761-2.271-.538.069-1.16.166-1.621.238a17.226,17.226,0,0,1-2.043.257,4.39,4.39,0,0,0-1.58.582c-.278.141-.533.269-.743.35a10.151,10.151,0,0,0-1.278.893c-.268.2-.539.408-.807.6a2.916,2.916,0,0,1,.213.37c.77,1.837-1.185,3.2-2.015,3.852s-2.785,1.9-3.319,3.141,1.185,1.837.77,3.022-1.3,2.311-.415,3.141,2.43.593,3.437,2.371,3.082,5.037,3.082,6.755-2.489,1.482-2.607,2.608,2.515,5.523,1.718,7.23c-.415.889-4.089,3.2-4.207,4.385s2.014,3.437.533,4.622-2.43.593-3.615.889-1.482-.059-2.845,1.3-.415,4.978.474,6.4,3.378,2.074,5.511,3.437,4.03,1.185,5.57,2.785.949,3.272,3.615,4.978c2.89,1.849,7.527,5.142,9.611,8.032s2.957,7.527,4.032,10.416,1.209,8.064,1.075,9.61a42.946,42.946,0,0,0,1.21,9.408c.672,2.352,1.149,4.376,2.486,6.115,1.14,1.483,6.608,2.621,7.325,3.875s-1.075,1.613-1.881,2.061-.179,6.81-.806,8.512-1.075-7.8-1.433-9.05-3.853-3.225-5.466-4.39-2.778-4.659-3.047-6.72-.358-7.975-.806-10.662-2.6-7.079-3.763-9.587-4.211-4.839-7.168-7.258-5.824-4.211-7.347-6.093.9-2.509,0-4.032-3.943,3.494-4.559,4.749-.907,5.734-1.624,10.125-1.523,15.68-2.419,19.443-1.881,12.634-2.309,14.873-1.9,11.917-1.587,13.888-2.286,11.469-2.823,13.619,1.523-3.494,2.688-5.018,1.145-4.443,3.046-4.569c1.344-.09,2.061,0,3.584,1.7s5.556,5.2,4.032,6.631-1.971,2.13-3.763,1.737-4.39-2.1-5.376-1.289-.716,4.211-1.523,5.376-2.688,3.315-3.136,5.107-.538,10.841-1.075,13.082-5.287,22.131-6.451,28.493-6.093,20.429-6.72,22.669.627,7.884-.448,10.125-4.659,8.064-6.183,10.3-5.2,9.318-7.974,10.035c-2.461.635-5.7-.207-8.707.216.878,2.951,1.741,5.626,3.552,6.4s3.966-1.466,4.829,0,.517,6.295,2.846,5.519,1.9-3.966,4.656-3.708,1.9,1.638,4.4,2.242,4.829,1.035,4.656,2.328-.431,6.812-1.811,8.192-4.225,3.794-4.053,5.778,3.536,5.173,5.433,4.053,2.155-4.915,2.759-6.036,1.725-3.018,2.759-1.811-.776,5.26.776,6.295,5.864,1.639,8.278,2.846,4.829,1.811,6.3,2.846,2.242,3.1,5.432,3.621,4.311,1.035,6.554.776,3.622-1.638,5.088-.863,2.328,1.725,1.983,2.587-1.38,2.242-.776,2.845,3.708,1.466,4.484,2.242,4.656,8.8,5.864,8.278,2.155-4.484,3.708-4.311,2.846,3.191,4.312,2.759,3.88-.776,4.311-1.466c.374-.6,1.075-3.211,2.269-3.267.251-1.219.433-2.7.59-3.979.275-2.242.449-3.54.823-4.164" transform="translate(-189.072 -383.092)" fill="#e8e8e8"/>
      <path id="Path_41967" data-name="Path 41967" d="M1286.383,256.626c-3.936-1.009-5.046-3.229-6.358-3.936s-2.422.908-4.138,1.132a8.27,8.27,0,0,1-4.945-1.232c-1.413-.807-4.138,1.816-6.964,1.11s-2.826-1.312-4.138-2.624-4.037-.807-4.845-2.22-1.009-2.927-4.34-5.248-3.936,1.615-6.358,2.927-1.413,2.22-6.056,2.119-5.45-2.019-7.065-2.624-.807,2.018-2.624,3.734-1.211-4.744-2.019-5.652a9.847,9.847,0,0,0-3.129-2.321,7.186,7.186,0,0,0-6.056-.5c-1.715.706,1.01,4.541-.706,5.652s-5.248-.1-6.358-1.312-.5-2.624-.5-3.633-2.826-3.835-3.835-5.147-3.331-3.028-4.542-4.541-.3-3.633-1.412-5.551a11.444,11.444,0,0,0-4.138-4.34c-1.716-1.01-3.936-.505-6.561-.1s-3.128-.807-4.138-1.487a14.579,14.579,0,0,0-5.551-2.247c-2.019-.2-3.129,1.918-4.441,3.431s-2.321,1.918-5.248,2.624-2.22-2.624-3.331-3.725-3.128-.11-5.551-1.422.1-2.422-.706-3.835-3.129.4-5.248,1.514-3.835-1.11-5.45.1-2.927.3-4.138,1.01-1.615,1.715-3.835,2.55-1.716-4.872-2.322-6.486-1.211-2.119-3.229-3.328-2.22-.1-4.441,0,0-2.422,0-3.734-.807-1.413-1.917-2.523-2.221.1-3.734.807-2.321-1.413-4.642-1.918-1.514-3.936-4.138-4.542-2.322-2.22-5.248-3.028-2.927,1.918-5.854,1.11-.4-3.532-.807-5.45,1.816-3.633,1.11-5.45-3.835-1.816-4.744-3.23,1.01-6.358,2.019-8.377,2.523-3.532,3.129-5.45.5-2.119-2.322-3.028-3.431,1.009-4.945,2.523-2.826,2.523-3.936,3.633.908,5.248.505,6.762-2.019,1.514-3.735,1.413-2.321.908-2.927,2.119-2.12,2.12-5.652,2.725-5.753-1.615-7.166-2.523-1.716.1-4.137.605c-.1.021-.187.032-.283.05-.041.828-.06,2.067-.055,3.728v.346a6.944,6.944,0,0,0,1.2,1.835,7.017,7.017,0,0,1,1.04,1.534c.465,1.209-.442,3.585-1.257,4.536a7.472,7.472,0,0,0-.982,3.241,4.8,4.8,0,0,0,.568.562,2.993,2.993,0,0,1,1.351,2.229c-.081,1.372-1.654,4.059-2.279,4.854a25.9,25.9,0,0,1-2.27,2.262c-.485.449-.942.873-1.11,1.063a4.664,4.664,0,0,0-.407.671,6.226,6.226,0,0,1-1.849,2.311,3.625,3.625,0,0,1-2.049.563c-.564.023-.761.049-.942.272-.157.194.369,1.019.594,1.372a3.322,3.322,0,0,1,.639,1.4l.124,1.413c.115,1.3.269,3.035.311,3.62.067.942-.7,1.831-1.378,2.615-.2.233-.393.454-.517.628a14.625,14.625,0,0,0,.6,3.061,8.365,8.365,0,0,1,.428,2.192,8.738,8.738,0,0,0,.077,1.019,6.815,6.815,0,0,1-.16,3.492c-.55,1.1-2.633,1.52-5.816,1.84l-.279.028a2.768,2.768,0,0,1-2.14-1.01,2.482,2.482,0,0,0-1.448-.847c-.347-.007-.493.163-.846.991a2.49,2.49,0,0,1-1.16,1.487,35.475,35.475,0,0,1-3.467,1c-.956.25-1.944.509-2.284.631-.19.068-.463.156-.784.259a16.475,16.475,0,0,0-3.251,1.29c-.227.518-.215,2.456.035,5.766.035.462.061.83.069,1.045a23.561,23.561,0,0,0,2.6,2.642c1.734,1.609,2.047,1.932,2.105,2.4.119.951-.933,2.155-1.991,2.684a5.887,5.887,0,0,1-2.721.16,7.36,7.36,0,0,0-2.1.016,8.073,8.073,0,0,0-.385,2.77c-.015.436-.027.78-.064,1.034a6.98,6.98,0,0,1-1.112,2.865c.02.119.421.6,1.48,1.134.275.138.541.249.789.355a3.816,3.816,0,0,1,1.806,1.206c.6.861-.128,1.971-3.253,4.953-.141.134-.249.237-.31.3-.175.175-.836,1.1-1.367,1.851a31.657,31.657,0,0,1-2.167,2.861,33.555,33.555,0,0,0-2.033,2.768c-.517.744-.981,1.412-1.331,1.875a2.936,2.936,0,0,1-.66,3.1,4.164,4.164,0,0,1-2.089,1.131,5.739,5.739,0,0,0-1.16.46c-.295.209-.221,1.778-.2,2.294.013.284.026.548.026.771,0,.393.723,1.065,1.36,1.658.417.388.849.789,1.248,1.242a3.872,3.872,0,0,1,.666,3.49,3.624,3.624,0,0,0-.083.9c.07.453.944,1.256,1.466,1.736.3.275.571.528.759.739a4.713,4.713,0,0,1,.086,5.018,6.023,6.023,0,0,0-.677,1.684,4.182,4.182,0,0,1-.708,1.6,7.665,7.665,0,0,1-3.36,1.868,15.571,15.571,0,0,0-.184,1.641,10.413,10.413,0,0,1-.468,2.862,5.8,5.8,0,0,0-.078,2.88c.045.376.091.768.127,1.182a4.116,4.116,0,0,1-1.935,3.725,8.194,8.194,0,0,0,2.51.342,4.985,4.985,0,0,0,1.553-.235,3.3,3.3,0,0,1,3.158.38,5.387,5.387,0,0,1,2.072,2.552c.155.326.328.7.58,1.135a8.071,8.071,0,0,0,1.595,1.75,5.063,5.063,0,0,1,1.926,2.643c.051.3.1.608.158.913a19.752,19.752,0,0,1,.4,3.113,4.859,4.859,0,0,1-1.07,2.263,10.827,10.827,0,0,0-.835,1.392,4.216,4.216,0,0,0,1.039.1,2.884,2.884,0,0,1,2,.545,3.437,3.437,0,0,1,.611.755c.26.4.39.6,1.257.679a2.247,2.247,0,0,0,.935-.073c.8-.222,1.258-.072,2.569.836s2.732,3.179,4.1,5.368a21.537,21.537,0,0,0,2.149,3.116c1.393,1.316,1.245,2.09.882,3.04a5.418,5.418,0,0,0-.189.558,1.266,1.266,0,0,0,.1,1.063c.04.05.165.205.551.179a2.8,2.8,0,0,1,3.039,1.947,4.544,4.544,0,0,1,.313,1.193c.149.9.23,1.186.954,1.307a10.426,10.426,0,0,0,2.721.074c.638-.04,1.36-.085,2.361-.085.9,0,1-.136,1.087-.246.426-.547.913-.817,2.263-.684,1.55.157,1.6.124,2.242-.264.226-.137.5-.3.884-.5a2.09,2.09,0,0,1,2.483.215,3.977,3.977,0,0,0,.148-.488,1.552,1.552,0,0,1,.815-1.219,1.389,1.389,0,0,1,1.244.2,4.214,4.214,0,0,1,1.151,1.258c.627.9,1.02,1.406,1.889,1.277a3.472,3.472,0,0,0,1.846-.925,3.248,3.248,0,0,1,2.165-.951,70.871,70.871,0,0,0,7.73-.456c.28-.047.526-.085.744-.119,1.186-.184,1.311-.2,1.853-.745a3.5,3.5,0,0,0-.043-1.012c-.116-.955-.333-2.733,1.487-3.243a4.381,4.381,0,0,1,2.981.183,4.438,4.438,0,0,0,1.6.332,5.361,5.361,0,0,0,1.757-.353,5,5,0,0,1,3.032-.246,9.166,9.166,0,0,1,4.56,2.374c.428.4.808.716,1.155,1a9.379,9.379,0,0,1,1.831,1.841,2.659,2.659,0,0,1-.081,2.615,5.125,5.125,0,0,0-.241.694,3.213,3.213,0,0,0,1.162.112,2.878,2.878,0,0,1,2.926,1.372,14.327,14.327,0,0,0,1.164,1.5c1.141,1.359,2.435,2.9,2.3,4.613a4.679,4.679,0,0,1-.867,2.469,2.223,2.223,0,0,0-.459,1.109,6.51,6.51,0,0,0,.3,2.182,8.185,8.185,0,0,1,.325,1.937c0,.163,0,.352-.01.559-.04,1.481.051,2.313.271,2.473a.632.632,0,0,0,.1-.011,2.757,2.757,0,0,0,1.362-1c.383-.429.781-.871,1.385-.789a1.109,1.109,0,0,1,.853.669l.043.086c2.025,4.066,3.364,4.311,3.846,4.228a1.276,1.276,0,0,0,1.084-.838,1.866,1.866,0,0,1,2.552-1.01c1.229.365,2.064,1.535,2.948,2.775.9,1.256,1.823,2.556,3.1,2.9a10.8,10.8,0,0,0,5,.114c.3-.05.581-.1.843-.127a10.984,10.984,0,0,0,1.084-2.708c.674-2.123,1.311-4.128,2.683-4.378l.24-.044a6.207,6.207,0,0,1,4,.159,8.311,8.311,0,0,1,1.373.694,3.485,3.485,0,0,0,2.721.67c2.263-.4,4.938-1.906,5.115-2.659a23.593,23.593,0,0,0,.12-2.751c.07-4.648.251-6.705,1.191-7.415a83.476,83.476,0,0,0,6.6-5.775,11.325,11.325,0,0,0,1.617-2.7c.723-1.484,1.347-2.765,2.413-3.179a5.11,5.11,0,0,0,1.464-1.35c.638-.743,1.136-1.343,1.842-1.28a1.1,1.1,0,0,1,.86.537,6.234,6.234,0,0,1,.412.815,5.126,5.126,0,0,0,.264.542c.018-.01.038-.023.062-.038a7.9,7.9,0,0,0,1.222-1.449c1.049-1.417,2.354-3.179,4.093-3.427l.4-.058c1.943-.282,3.347-.487,4.361,1.031a8.94,8.94,0,0,1,.846,1.839,6.22,6.22,0,0,0,1.291,2.379,4.664,4.664,0,0,0,4.1.913,6.156,6.156,0,0,0,1.356-.939c1.25-1.01,2.963-2.393,5.012-1.881,1.325.331,2.749,1.557,4.126,2.743,1.083.933,2.725,2.339,3.314,2.169a9.436,9.436,0,0,0,2.24-1.411c1.61-1.2,3.433-2.562,5.059-1.911a9.326,9.326,0,0,1,3.342,2.883,12.533,12.533,0,0,0,1.751,1.817,23.693,23.693,0,0,0,3.724,2.052c.866.415,1.613.774,2.131,1.1a6.394,6.394,0,0,1,1.517,1.527,7.462,7.462,0,0,0,2.757,2.4c1.042.488,2.228.9,3.273,1.268a9.886,9.886,0,0,1,3.338,1.539c.755.755,2.787,3.595,2.883,5.513.014.286.024.571.032.855a7.927,7.927,0,0,0,.506,3.184,4.893,4.893,0,0,0,.844,1.085,3.566,3.566,0,0,1,1.266,2.469c0,.94.944,1.787,2.037,2.768l.062.055a2.247,2.247,0,0,0,.882.411c1.44.444,2.144,1.212,1.519,3.664a4.277,4.277,0,0,1-.217,3.556c-.605,1.211-.1,1.413,1.817,2.018s3.532-.5,4.844-.908,2.321.808,4.441.4,1.816-1.514,2.725-3.331,2.119-.606,3.331-2.019,1.009-2.725,1.009-4.643,3.936-4.541,3.129-6.257a17.28,17.28,0,0,0-3.734-4.945c-1.514-1.413.807-2.422.605-3.734s.4-3.532,0-5.248.5-5.753.909-8.074,2.523-5.248,2.624-7.266.1-3.936-2.119-5.753-.807-2.523-1.009-4.744,1.817-4.441,1.716-6.257,3.33-5.349,3.835-7.872a20.046,20.046,0,0,1,1.918-5.45,3.671,3.671,0,0,0,.5-3.532c-.606-1.716-.2-4.34.5-6.56s2.119-4.945,2.523-6.157.2-4.844.1-6.056.807-3.431.908-4.945,4.542-4.945,5.854-6.156.606-2.523,1.312-3.936,5.753-4.34,7.064-5.652,1.11-5.248,1.817-7.267,3.33-4.34,3.936-5.753-4.239-.908-8.175-1.918" transform="translate(-550.54 -88.998)" fill="#e8e8e8"/>
      <path id="Path_41968" data-name="Path 41968" d="M903.529,409.876a7.071,7.071,0,0,1,.2-3.707,10.337,10.337,0,0,0,.343-2.354c.139-1.745.23-2.9,1.211-3.036a6.624,6.624,0,0,0,2.682-1.354,2.807,2.807,0,0,0,.413-1.022,7.571,7.571,0,0,1,.856-2.095,3.2,3.2,0,0,0,.085-3.1c-.159-.179-.391-.39-.645-.622a5.407,5.407,0,0,1-1.97-2.68,4.511,4.511,0,0,1,.085-1.409c.158-.966.217-1.592-.283-2.16-.346-.392-.748-.766-1.137-1.128-.965-.9-1.876-1.745-1.876-2.842,0-.2-.012-.439-.024-.695-.064-1.355-.143-3.042.944-3.734a6.772,6.772,0,0,1,1.529-.634,3.757,3.757,0,0,0,1.312-.585,1.91,1.91,0,0,0,.521-.995,2.032,2.032,0,0,1-.5.068,5.1,5.1,0,0,1-1.688-.406l-.385-.138a5.642,5.642,0,0,0-.732-.2c-.825-.176-1.468-.425-1.6-1.855a5.309,5.309,0,0,0-1.46-3,16.04,16.04,0,0,0-2.839-1.823,19.837,19.837,0,0,1-1.76-1.054,52.233,52.233,0,0,1-5.95-5.716,4.023,4.023,0,0,1-.262-3.07,5.223,5.223,0,0,0,.115-.794l0-.319a1.469,1.469,0,0,0-.47-1.364,6.091,6.091,0,0,0-4-1.665,6.879,6.879,0,0,0-2.391.793,9.5,9.5,0,0,1-2.159.805,6.817,6.817,0,0,1-2.7-.085,6.156,6.156,0,0,0-1.388-.148c-.345.016-.566.228-.959.632a3.186,3.186,0,0,1-1.8,1.109,4.573,4.573,0,0,1-2.89-.969,7.133,7.133,0,0,0-1.768-.855c-.325-.075-.469.016-.974.622a2.709,2.709,0,0,1-1.794,1.195,4.2,4.2,0,0,1-2.551-.672,9.376,9.376,0,0,0-1.043-.493,9.058,9.058,0,0,1-1.853-1.061,5.893,5.893,0,0,0-1.767-.954c-.267-.064-.428.041-.885.464a2.511,2.511,0,0,1-1.718.86c-.914,0-2.49-1.014-4.616-2.447-.567-.382-1.1-.743-1.345-.872-.22-.117-.505-.26-.826-.421a25.572,25.572,0,0,1-3.49-1.985c-.293-.217-.582-.438-.867-.657a13.057,13.057,0,0,0-2.379-1.593,4.61,4.61,0,0,0-.816.722,4.68,4.68,0,0,1-2.689,1.668c-1.827.2-3.776-1.273-4.942-2.152-.148-.112-.279-.211-.389-.288a21.323,21.323,0,0,0-4.211-2.236,6.951,6.951,0,0,0-2.2,1.212,12.422,12.422,0,0,1-2.32,1.368,11.808,11.808,0,0,1-5.461,1.1c-.285-.031-.563-.056-.834-.081a9.208,9.208,0,0,1-4.08-1.019,5.978,5.978,0,0,0-2.378-.405,5.016,5.016,0,0,1-2.649-.569,4.936,4.936,0,0,1-1.374-2.112c-.4.733-.8,1.6-.982,2-.107.231-.192.415-.247.525a8.3,8.3,0,0,0-.379,1.425c-.091.425-.183.852-.286,1.2-.069.238-.149.619-.243,1.066a14.657,14.657,0,0,1-1.126,3.747,4.793,4.793,0,0,1-2.3,1.995l-.292.148a14.049,14.049,0,0,1-3.559,1.118c-.667.13-1.26.2-1.783.254a11.407,11.407,0,0,0-1.379.206,1.094,1.094,0,0,0-.477.187c.019.156.083,1.006.134,1.69.068.907.115,1.537.13,1.881.082.061.2.141.295.2a3.382,3.382,0,0,1,1,.869,6.129,6.129,0,0,1,.6,3.349,60.676,60.676,0,0,0,3.027,6.1c.183.325.338.59.47.814a4.574,4.574,0,0,1,.882,2.659,4.39,4.39,0,0,1-.341,1.813,2.229,2.229,0,0,0-.163,1.581,5.69,5.69,0,0,0,1.074,1.649c.657.806,1.278,1.567,1.139,2.465a12.022,12.022,0,0,1-.3,1.212c-.226.821-.828,3-.468,3.5.3.425.619.953.951,1.511a16.3,16.3,0,0,0,1.792,2.622,4.03,4.03,0,0,0,1.122.812,4.573,4.573,0,0,1,2.033,1.915,9.763,9.763,0,0,0,1.646,1.957,6.726,6.726,0,0,1,1.6,2.047,3.92,3.92,0,0,1,.045,2.052,3.671,3.671,0,0,0,.47,3.064,7.839,7.839,0,0,0,3.121,2.167,11.546,11.546,0,0,1,2.367,1.367,4.181,4.181,0,0,0,1.522.86,3.964,3.964,0,0,1,1.643.973,5.144,5.144,0,0,1,1.468,3.005,8.781,8.781,0,0,0,.231.92,7.623,7.623,0,0,1,.283,1.839,3.793,3.793,0,0,0,.357,1.73,7.927,7.927,0,0,0,.8.786c.7.633,1.428,1.289,1.331,2.157a3.029,3.029,0,0,1-.73,1.361c-.233.312-.719.961-.7,1.192.57.392.713.359,1.833-.067.3-.114.64-.243,1.038-.376,1.87-.623,2.314-.772,4.009-1.465a5.565,5.565,0,0,0,1.276-.769,4.508,4.508,0,0,1,3.273-1.086,5.035,5.035,0,0,1,2.756.981c.624.407.777.474,1.117.331a5.593,5.593,0,0,0,1.383-.942c.667-.561,1.423-1.2,2.386-.875a2.16,2.16,0,0,1,1.2,1.15c.247.441.383.684,1,.768.4.055.777.083,1.113.108,1.157.087,2.353.177,2.75,1.47a5.079,5.079,0,0,1,.161,1.3c.035.911.086,1.488.659,1.838a5.787,5.787,0,0,1,2.782,3.3c.545,2.177.477,3.512-.213,4.2a5.355,5.355,0,0,1-.764.586c-1.114.761-1.378,1.11-1.178,1.555.32.71.773.741,2.413.486.21-.033.425-.066.644-.1a16.508,16.508,0,0,1,3.741.085c.713.068,1.45.139,2.168.16a15.485,15.485,0,0,0,5.3-.768,8.8,8.8,0,0,0,2.224-1.106c1.01-.632,1.965-1.229,3.044-.825a4.529,4.529,0,0,1,1.408.937c.613.542.705.558,1.008.416a11.7,11.7,0,0,1,1.356-.5c.927-.3,1.977-.643,2.1-1.207l.083-.387a5.645,5.645,0,0,1,1.963-3.633c.414-.368.765-.626,1.046-.834a3.68,3.68,0,0,0,1.553-2.067,12.013,12.013,0,0,0,.291-3.991c-.045-1.809-.081-3.238.525-4.009l.241-.314a5.592,5.592,0,0,1,4.438-2.565,8.188,8.188,0,0,1,3.321.266,9.549,9.549,0,0,0,2.919.353c2.2-.057,5.891-.151,7.363-1.181,1.6-1.121,2.5-1.817,2.391-3.093-.034-.4-.079-.772-.122-1.131" transform="translate(-427.233 -184.941)" fill="#e8e8e8"/>
      <path id="Path_41969" data-name="Path 41969" d="M782.08,462.367a10.766,10.766,0,0,0-1.167.426,2.339,2.339,0,0,1-2.767-.667,3.109,3.109,0,0,0-.9-.634c-.333-.122-.927.25-1.618.682a10.241,10.241,0,0,1-2.638,1.29,17.066,17.066,0,0,1-5.175.839c-.2,0-.4,0-.614-.01-.772-.023-1.536-.1-2.275-.167a15.423,15.423,0,0,0-3.368-.092c-.208.028-.413.06-.613.092-1.457.227-3.268.51-4.137-1.42-.813-1.808.847-2.943,1.74-3.552a4.989,4.989,0,0,0,.533-.395s.331-.5-.212-2.667a4.3,4.3,0,0,0-2.057-2.316,3.448,3.448,0,0,1-1.431-3.156,4.047,4.047,0,0,0-.091-.888c-.06-.2-.3-.256-1.327-.333-.366-.027-.771-.058-1.21-.119a2.719,2.719,0,0,1-2.19-1.58c-.143-.256-.22-.38-.3-.406-.159-.039-.577.362-.835.578a7.032,7.032,0,0,1-1.8,1.2A2.564,2.564,0,0,1,745,448.6a3.443,3.443,0,0,0-1.93-.72,2.974,2.974,0,0,0-2.256.77,7.11,7.11,0,0,1-1.626.966c-1.744.713-2.245.88-4.109,1.5-.374.125-.694.246-.975.353-1.154.439-2.066.784-3.349-.156a1.579,1.579,0,0,1-.657-1.052,3.509,3.509,0,0,1,1.006-2.4c.128-.17.308-.412.391-.555a5.638,5.638,0,0,0-.781-.794,9.149,9.149,0,0,1-.966-.962,4.584,4.584,0,0,1-.717-2.637,6.544,6.544,0,0,0-.2-1.444,10.182,10.182,0,0,1-.278-1.094,3.676,3.676,0,0,0-.99-2.162,2.4,2.4,0,0,0-1.062-.624,5.747,5.747,0,0,1-2.018-1.134,10.189,10.189,0,0,0-2.044-1.164,9.35,9.35,0,0,1-3.708-2.641,5.169,5.169,0,0,1-.788-4.286,3.178,3.178,0,0,0,.054-1.214,5.863,5.863,0,0,0-1.246-1.5,11.175,11.175,0,0,1-1.906-2.3,3,3,0,0,0-1.412-1.3,5.552,5.552,0,0,1-1.521-1.123,17.356,17.356,0,0,1-2-2.9c-.315-.529-.614-1.029-.878-1.4-.747-1.045-.34-2.825.225-4.873.116-.421.226-.818.258-1.028.013-.208-.493-.827-.795-1.2a6.931,6.931,0,0,1-1.363-2.184,3.771,3.771,0,0,1,.181-2.608,2.95,2.95,0,0,0,.251-1.178,3.066,3.066,0,0,0-.664-1.937c-.135-.23-.294-.5-.481-.835-.846-1.5-1.906-3.539-2.682-5.27l-.04.038a6.375,6.375,0,0,0-.809.846,4.745,4.745,0,0,0-.26,2,6.5,6.5,0,0,1-.065,1.164c-.019.1-.032.185-.044.27a2.234,2.234,0,0,1-1.705,2.009,14.266,14.266,0,0,0-2.6,1.455l-.352.231c-.22.144-.265.4-.315.938a3.793,3.793,0,0,1-.15.868,9.635,9.635,0,0,1-1.418,2.829,8.028,8.028,0,0,1-3.349,1.616l-.168.054a13.334,13.334,0,0,1-5.315.349,17.028,17.028,0,0,1-1.852-.489,7.578,7.578,0,0,0-1.7-.4,11.1,11.1,0,0,0-2.171.67c-.527.2-.982.366-1.321.454-.172.045-.755.332-2.435,2.018l-.07.07a5.763,5.763,0,0,1-3.077.962,5.177,5.177,0,0,0-1.119.325,6.13,6.13,0,0,1-1.778.456,4.86,4.86,0,0,0-1.881.583l-.2.1a18.29,18.29,0,0,0-2.43,1.852,1.253,1.253,0,0,0-.071.7,6.632,6.632,0,0,1-.06,2.6,5.73,5.73,0,0,0,1.351,2.247c.41.367,1.189,1.178,1.943,1.963.685.713,1.393,1.451,1.662,1.683a13.772,13.772,0,0,1,2.48,4.795,18.348,18.348,0,0,0,.618,2.028,11.185,11.185,0,0,1,.593,2.044c.038.533-.452,4.081-1.341,4.908-.123.114-.451.536-.742.907-1.177,1.512-2.23,2.793-3.176,3.152-.3.113-.6.241-.905.372a10.26,10.26,0,0,1-3,.922,4.3,4.3,0,0,0-2.386,1.641,4.352,4.352,0,0,0,.406.477,2.539,2.539,0,0,1,.624.878,12.063,12.063,0,0,1,.323,2.3l.036.412a9.7,9.7,0,0,0,.359,1.383,5.241,5.241,0,0,1,.423,2.46c-.026.106-.056.261-.092.445a8.294,8.294,0,0,1-.812,2.6,14.266,14.266,0,0,0,3.025,1.579l.154.045c1.175.341,2.785.808,2.863,1.983.074,1.112-1.3,1.543-2.635,1.959-.319.1-.613.19-.817.275a4.843,4.843,0,0,0-.248,2.24c.074.964-1.648,2.917-2.437,3.717.186.2.463.441.639.6a3.344,3.344,0,0,1,.9.988c.38.836-.186,7.24-.193,7.3-.159,1.432-3.161,3.344-3.288,3.424-.171.108-.115.84-.084,1.234a6.051,6.051,0,0,1,.021,1.037c-.094.939-.975,4.766-1.155,5.439-.275,1.032-3.129,3.663-3.945,4.208-.453.3-1.3.766-2.205,1.257-.97.528-2.068,1.127-2.571,1.477-.188.131-.492.7-.4,3.035.006.165.011.3.011.394,0,1.015-1.184,1.622-3.133,2.5l-.513.233c-.278.129-.532.261-.78.389a8.028,8.028,0,0,1-3.087,1.032c-.751.081-1.647.09-2.513.1a17.359,17.359,0,0,0-2.214.1,15.028,15.028,0,0,0-.312,3.594c-.005.487-.011.891-.031,1.129a1,1,0,0,1-.575.851c-.708.331-1.478-.183-3.016-1.276a10.67,10.67,0,0,0-1.8-1.134,5.957,5.957,0,0,0-3.307-.022c-.471.44-.959,3.81-.848,4.505.2,1.112-.675,4.116-.813,4.531-.112.335-.314.848-.537,1.41a21.3,21.3,0,0,0-.915,2.578c-.053.274-.188.811-.353,1.465a27.863,27.863,0,0,0-.9,4.361c.069,1.867-4.158,5.966-4.339,6.14-.655.631-1.006,3.189-1.174,4.418a7.055,7.055,0,0,1-.289,1.525,36.162,36.162,0,0,0,.023,3.7c.029.845.048,1.435.048,1.832.5.365,1.135.752,1.713,1.1a15.141,15.141,0,0,1,1.624,1.069,8.961,8.961,0,0,0,1.443.714c1.394.607,2.071.927,2.221,1.576a1.977,1.977,0,0,1-.25,1.215c-.4.933-.338,1.095-.085,1.267s.6.067,1.3-.273c.62-.3,1.657-.809,2.386.083a4.713,4.713,0,0,1,.645,1.063,1.726,1.726,0,0,0,.694.867.551.551,0,0,0,.545.084,1.087,1.087,0,0,1,.992.17,1.165,1.165,0,0,1,.353.987,11.848,11.848,0,0,1-.418,1.907c-.275,1.057-.919,3.532-.722,4.073a2.278,2.278,0,0,0,1.659,1.5,17.87,17.87,0,0,0,4.978.388c.421-.03.66-.267,1.048-.683a2.556,2.556,0,0,1,2.513-1.04c2.688.5,3.342.394,3.5.326a2.815,2.815,0,0,0,.983-1.14c-.016-.045-.158-.4-.251-.642-.361-.919-.672-1.712-.174-2.267a1.007,1.007,0,0,1,1.06-.273,11.209,11.209,0,0,1,3.718,2.22c.314.279.781.625,1.275.992,1.434,1.062,2.4,1.818,2.746,2.6a12.625,12.625,0,0,1,.565,2.178,11.154,11.154,0,0,0,.683,2.488c.253.388.475.675.691.954a12.423,12.423,0,0,1,.865,1.227c.213.351.557.984.925,1.663.492.91,1.167,2.157,1.406,2.455.153.192.471.641.863,1.2a39.773,39.773,0,0,0,2.482,3.3,13.183,13.183,0,0,0,1.238,1.044,7.208,7.208,0,0,1,2.49,2.646c.275.8.013,1.914-.45,3.658a10.667,10.667,0,0,0-.47,2.344c.06,1.051,1.766,3.908,2.6,4.937a31.921,31.921,0,0,0,3.326,3.4,4.608,4.608,0,0,0,2.756.851l.214.023a7.606,7.606,0,0,0,.837.038,3.092,3.092,0,0,1,2.189.716l.268.2c.956.7,1.782,1.3,1.72,2.66a3.672,3.672,0,0,1-.53,1.564c-.2.375-.327.632-.272.763a3.554,3.554,0,0,0,1.186,1.09,9.127,9.127,0,0,1,.976.757,2.868,2.868,0,0,1,1.179,2.159,1.881,1.881,0,0,1-.413,1.014c-.411.631-.545.954-.311,1.325a3.272,3.272,0,0,0,2.546,1.573,4.89,4.89,0,0,0,2.824-.25,5.818,5.818,0,0,0,.371-.785c.286-.673.582-1.369,1.227-1.6a1.22,1.22,0,0,1,.986.083,10.676,10.676,0,0,1,2.83,2.6c.86,1.034,1.872,1.625,2.126,1.522a3.181,3.181,0,0,0,1.379-1.265c.1-.135.228-.369.39-.646.876-1.509,1.325-2.178,1.844-2.413a3.8,3.8,0,0,0,.315-.268,3.293,3.293,0,0,1,2.6-1.092c.289.032.552.042.8.052a3.338,3.338,0,0,1,2.549.918,8.12,8.12,0,0,1,.855,1.1c.433.621,1.018,1.447,1.471,1.44.246-.018.448-.274.75-.7a1.924,1.924,0,0,1,2.05-1.081,8.78,8.78,0,0,1,1.115.4,2.691,2.691,0,0,0,1.637.36,1.21,1.21,0,0,0,.809-1.149c.006-.075.007-.187.009-.326.017-1.22.1-2.574.895-3.21a1.494,1.494,0,0,1,1.266-.287,2.7,2.7,0,0,1,1.625,1.012,1.105,1.105,0,0,0,.851.5,11.951,11.951,0,0,0,3.073-.15c.232-.033.44-.062.615-.082a49.889,49.889,0,0,1,5.321.136c.916.07,2.963.451,4.607.756.588.109,1.107.206,1.47.269a28.155,28.155,0,0,0,3.529.134c.854,0,1.591,0,2.036.041a10,10,0,0,0,1.082-.026,7.322,7.322,0,0,1,3.608.389,11.835,11.835,0,0,0,1.93-2.814c1.058-1.865,2.257-3.979,4.194-4.829a20.59,20.59,0,0,0,2.136-1.093,5.62,5.62,0,0,1,3.868-.927,15.54,15.54,0,0,0,3.691-.215c.579-.089,1.177-.18,1.914-.235.7-.052,2.345-.174,2.638-.562a.356.356,0,0,0,.012-.268,8.664,8.664,0,0,0-.95-2.036,6.987,6.987,0,0,1-1.094-2.663c-.1-1.554.054-3.592,1.323-4.471a3.73,3.73,0,0,0,.864-.977,7.007,7.007,0,0,1,1.676-1.793,5.847,5.847,0,0,0,.873-.81,3.746,3.746,0,0,1,3.206-1.447c.476,0,.9.011,1.3.02a8.243,8.243,0,0,0,3.528-.419,22.005,22.005,0,0,0,4.316-2.15c.161-.118.491-.432.839-.766,1.734-1.657,3.42-3.146,4.97-3.146.335,0,.64-.008.922-.015a6.181,6.181,0,0,1,2.5.266,18.494,18.494,0,0,0,.753-3.209,11.923,11.923,0,0,1,.512-2.249,2.719,2.719,0,0,0,0-2.293c-.055-.207-.115-.438-.181-.7a8.472,8.472,0,0,1,.266-3.873,13.52,13.52,0,0,0,.391-2.408,18.193,18.193,0,0,0-1.364-6.975c-1.047-2.268-1.85-4.318-1.087-6.441.41-1.138-.052-2.629-1.414-4.559a11.375,11.375,0,0,1-1.321-4.484c-.1-.628-.208-1.263-.337-1.869-.184-.863-1.537-1.81-2.73-2.647-1.324-.927-2.574-1.8-2.978-2.926a3.072,3.072,0,0,1,.819-3.527,4.408,4.408,0,0,0,.464-.576,39.347,39.347,0,0,0,1.829-5.461l.2-.7c.238-.817-.128-1.3-.978-2.316a14.573,14.573,0,0,1-1.2-1.586c-.255-.4-.474-.7-.652-.939-.905-1.227-.916-1.712-.075-3.458a4.363,4.363,0,0,1,3.009-2.039,3.785,3.785,0,0,0,1.029-.4c0-.007-.005-.03-.012-.066a3.43,3.43,0,0,0-.887-1.633,5.99,5.99,0,0,1-1.123-1.809,3.4,3.4,0,0,1,.023-2.514,2.593,2.593,0,0,0,.164-1.414c-.118-.652-1.3-1.894-2.251-2.893a11.974,11.974,0,0,1-2.475-3.164,1.709,1.709,0,0,1,.05-1.469c.539-1.017,2.054-1.36,3.39-1.662a9.446,9.446,0,0,0,1.244-.333,12.617,12.617,0,0,1,1.348-.452,6.159,6.159,0,0,0,2.051-.9c.793-.56.869-1.217.976-2.781l.046-.636a13.425,13.425,0,0,0-.7-4.07c-.151-.543-.281-1.013-.352-1.393-.27-1.44,1.237-2.057,2.448-2.553a10.091,10.091,0,0,0,1.615-.772,7.753,7.753,0,0,0,1.859-1.741c.375-.442.8-.943,1.416-1.559.662-.663.278-1.618-.383-3a7.739,7.739,0,0,1-.671-1.721c-.116-.577-1.035-1.046-1.773-1.423a3.665,3.665,0,0,1-1.437-1.013,6.057,6.057,0,0,1-.63-4.168c.188-.61-1.132-1.682-1.63-2.086a3.657,3.657,0,0,0-1.485-.633,6.28,6.28,0,0,1-1.49-.542,6.007,6.007,0,0,1-2.65,1.384" transform="translate(-333.398 -212.102)" fill="#e8e8e8"/>
      <path id="Path_41970" data-name="Path 41970" d="M1091.259,822.107a20.821,20.821,0,0,1-4.425,4c-1.649.873-6.367.241-8.1-.408-1.756-.659-1.39-1.867-1.251-2.322.017-.058.042-.139.055-.2-.139-.128-.287-.269-.449-.424a10.962,10.962,0,0,0-3.388-2.465h-.006c-.559,0-2.074,2.109-2.889,3.244-1.155,1.608-2.245,3.127-3.307,3.638a2.072,2.072,0,0,1-1.724.07c-1.36-.56-2.122-2.432-2.729-4.144-.072-.2-.129-.365-.175-.475-.144-.344-.488-.546-1.083-.874a10.556,10.556,0,0,1-.96-.576,12.87,12.87,0,0,0-2.461-1.281l-.332-.145a2.291,2.291,0,0,1-1.286-2.483,4.942,4.942,0,0,0-.081-1.087,2.726,2.726,0,0,0-.087-.325l-.08-.021a4.989,4.989,0,0,1-1.6-.734,2.546,2.546,0,0,1-1.175-2.681,2.737,2.737,0,0,0-.167-1.451c-.18-.4-.187-.418-1.044-.283a5.644,5.644,0,0,1-2.571-.063,9.232,9.232,0,0,1-3.411-2.307,8.849,8.849,0,0,0-2.508-1.844c-.75-.277-1.962.663-2.938,1.417-1.046.808-1.952,1.5-2.875,1.408a3.793,3.793,0,0,1-2.03-.994,4.225,4.225,0,0,0-2.08-1.041.44.44,0,0,0-.376.08c-.733.544-1,2.781-1.134,3.855-.04.332-.075.614-.111.818-.116.658-.353,1.575-.629,2.636s-.578,2.232-.8,3.321a33.792,33.792,0,0,1-3.51,8.563c-.435.622-.543,2.271-.639,3.726a12.453,12.453,0,0,1-.641,3.96,3.336,3.336,0,0,1-1.9,1.913,3.917,3.917,0,0,1-3.118-.481c-1.638-.855-2.284-2.75-2.855-4.423-.147-.43-.291-.856-.451-1.253-.149-.373-.269-.73-.379-1.065-.442-1.331-.606-1.828-2.027-1.961a2.547,2.547,0,0,0-.649,0c-.008.048-.016.106-.022.153a2.085,2.085,0,0,1-1.021,1.695c-1.339.787-2.059-.331-2.405-.87a2.153,2.153,0,0,0-1.161-1.08c-.538-.155-.538-.157-.825.231a4.327,4.327,0,0,1-1.492,1.355c-1.58.861-2.964-.085-4.075-.845a9.23,9.23,0,0,0-1.173-.722,11.388,11.388,0,0,0-.6,2.632,11.818,11.818,0,0,1-.634,2.767,9.817,9.817,0,0,1-5.121,4.962,3.462,3.462,0,0,1-1.172.207,6.086,6.086,0,0,1-3.194-1.248,5.763,5.763,0,0,0-1.637-.837c-.666-.145-.763-.068-1.126.225a4,4,0,0,1-1.475.811,3.829,3.829,0,0,1-3.056-.422,15.622,15.622,0,0,0-1.781-.709c-.636-.206-.648-.184-.97.342a2.973,2.973,0,0,1-2.36,1.643c-2.5.317-4.749-1.605-6.2-3.278a16.166,16.166,0,0,1-2.478-5.062,2.1,2.1,0,0,1-.01-1.678,2.82,2.82,0,0,1,1.847-1.232,4.589,4.589,0,0,0,1.161-.5c.286-.2.639-.437,1.02-.692A14.643,14.643,0,0,0,978.1,822.3c.129-.241-.34-1.291-.566-1.8a8.635,8.635,0,0,1-.723-2.052c-.084-.53-.153-1.354-.233-2.308a24.143,24.143,0,0,0-.538-4.11c-.12-.28-1.264-.657-2.021-.908a18.369,18.369,0,0,1-2.949-1.176c-2.2-1.173-6.47-3.68-7.823-4.635s-1.131-3.172-.961-4.958c.048-.505.093-.982.093-1.337,0-.709-1.069-1.591-2.013-2.367a17.1,17.1,0,0,1-1.522-1.358,13.5,13.5,0,0,1-1.965-3.417,11.023,11.023,0,0,0-1.393-2.519,6.191,6.191,0,0,0-1.418,2.733l-.014.084c-.166,1-.475,2.868-2.077,3.469a18.8,18.8,0,0,0-1.831.851c-.553.281-1.124.572-1.683.8-1.234.494-1.939-.981-2.623-2.407-.408-.851-1.168-2.435-1.683-2.5-.709-.085-1.4.594-2.064,1.255a3.869,3.869,0,0,1-1.723,1.212c-.854.185-1.831-.348-2.962-.963a8.785,8.785,0,0,0-2.235-.984c-.473-.087-.483-.071-.748.316a2.845,2.845,0,0,1-1.262,1.132c-1.359.6-2.763-1.067-4-2.533a9.4,9.4,0,0,0-1.052-1.141,2.6,2.6,0,0,0-1.294-.155,8.676,8.676,0,0,1-2.607-.265c-1.569-.439-1.906-1.952-2.152-3.057a3.054,3.054,0,0,0-.458-1.292c-.6-.47-1.125-.476-2.368-.444-.295.007-.614.016-.964.016-1.03,0-2.867,1.755-3.853,2.7a12.075,12.075,0,0,1-1.005.9,23.265,23.265,0,0,1-4.7,2.357,9.744,9.744,0,0,1-4.136.522c-.382-.01-.8-.02-1.256-.02a2.222,2.222,0,0,0-2.026.934,7.307,7.307,0,0,1-1.107,1.016,5.418,5.418,0,0,0-1.3,1.417,5.134,5.134,0,0,1-1.263,1.372c-.477.331-.724,1.524-.63,3.041a6.671,6.671,0,0,0,.888,1.969,9.563,9.563,0,0,1,1.124,2.5,1.876,1.876,0,0,1-.3,1.573c-.678.9-2.127,1.079-3.811,1.2-.674.05-1.24.137-1.788.221a17.264,17.264,0,0,1-4.026.231,4.1,4.1,0,0,0-2.974.716,21.949,21.949,0,0,1-2.29,1.171c-1.445.634-2.458,2.42-3.438,4.146a12.928,12.928,0,0,1-2.242,3.2c.2.349.392.722.574,1.091a6.114,6.114,0,0,0,1.194,1.88,12.936,12.936,0,0,1,1.879,2.038c.253.318.5.629.75.909a13.33,13.33,0,0,0,1.98,1.54,17.038,17.038,0,0,1,1.509,1.119,8.1,8.1,0,0,1,.651.656,3.275,3.275,0,0,0,1.433,1,6.586,6.586,0,0,1,3.279,3.258c.286.6.749,1.37,1.157,2.051.294.489.559.932.724,1.248a12.657,12.657,0,0,1,.761,1.985,14.854,14.854,0,0,0,.814,2.135,8.237,8.237,0,0,1,1.285,4,4.3,4.3,0,0,1-.354,1.475,1.444,1.444,0,0,0-.167.878,9.432,9.432,0,0,0,.755,1.694A8.162,8.162,0,0,1,897.31,848a29.109,29.109,0,0,1-.016,5.522,12.666,12.666,0,0,1-1.653,3.938c-.132.185-.3.438-.5.73-1.224,1.809-2.31,3.344-3.2,3.809-.487.256-1.091.519-1.624.753a13.357,13.357,0,0,0-1.27.6,2.7,2.7,0,0,0-.4.324,10.314,10.314,0,0,1-1.284,1c-1.084.737-1.271,1.289-1.219,1.893a8.632,8.632,0,0,0,2.182,4.059c.709.472,4.278,2.9,4.989,4.386.685,1.426.391,5.532.146,6.464-.17.643-.856,1.13-1.805,1.8-.557.4-1.861,1.319-1.865,1.7a13.828,13.828,0,0,0,1.477,4.358,12.234,12.234,0,0,1,.918,3.858c.072.548.141,1.066.221,1.427a11.224,11.224,0,0,1-.06,3.284,11.56,11.56,0,0,0-.107,1.375,4.905,4.905,0,0,1-1.285,3.293,2.514,2.514,0,0,1-1.967.786c-1.117-.06-2.43-.96-3.7-1.829a14.682,14.682,0,0,0-1.452-.923,1.658,1.658,0,0,0-.329,1.557,4.577,4.577,0,0,1,.347,3.779,20.434,20.434,0,0,1-2.3,3c-.428.508-.821.975-1.074,1.3-.28.363-.936,1.015-2.071,2.136-1.332,1.316-4.106,4.054-4.332,4.733a4.212,4.212,0,0,0,.336,1.99c.085.261.173.53.253.814.334,1.195.541,2.559-.466,3.633-.215.23-.462.448-.706.661s-.794.7-.784.862a4.667,4.667,0,0,1-1.516,3.5l-.291.22c-.4.3-1.219.913-1.286,1.191,0,.1.016.291.031.523.11,1.635.153,3.3-.619,4.119-.17.18-.38.392-.605.618a13.627,13.627,0,0,0-1.455,1.617,15.678,15.678,0,0,1-.227,4.829,17.836,17.836,0,0,0-.276,2.82c.034.788,1.189,2.029,2.117,3.027a8.108,8.108,0,0,1,2.072,2.872,8.566,8.566,0,0,1,.12,3.636c-.032.268-.066.554-.1.866l-.038.385a29.513,29.513,0,0,1-.567,3.924,2.968,2.968,0,0,0,.625,2.816,6.92,6.92,0,0,1,1.039,2.206,12.16,12.16,0,0,0,.876,2.048,3.926,3.926,0,0,0,.585-.893,3.473,3.473,0,0,1,2.334-2.087,5.24,5.24,0,0,0,1.48-.66c.87-.5,2.187-1.247,3.254,0l.32.381c.736.884.849,1.021,1.9.863a1.866,1.866,0,0,0,1.167-.62,1.4,1.4,0,0,1,1.789-.383l.281.161c.6.351.873.51,1.538.225a10.232,10.232,0,0,0,3.363-2.836c.244-.352.54-.714.827-1.063a5.492,5.492,0,0,0,1.276-2.019,7.507,7.507,0,0,0,.021-.893,2.986,2.986,0,0,1,.826-2.609c.56-.435,1.326-1.031,1.378-1.55a7.594,7.594,0,0,1,1.666-3.947l.378-.381a36.988,36.988,0,0,1,3.413-3.141,4.069,4.069,0,0,0,.934-1.483c.522-1.142,1.308-2.871,3.6-2.1a5.918,5.918,0,0,1,3.149,2.448,6.08,6.08,0,0,0,1.364,1.454,12.328,12.328,0,0,1,3.47,3.215,8.214,8.214,0,0,1,.991,1.97,3.28,3.28,0,0,0,.772,1.394c.206.149.47.306.747.472,1.123.674,2.661,1.6,2.043,2.96a9.434,9.434,0,0,0,.115,4.321,10.04,10.04,0,0,0,1.577,3.233l.177.278a3.018,3.018,0,0,1,.705-1.577l.332-.328c.578-.567,1.37-1.342,1.334-1.769a29.3,29.3,0,0,1,.013-4.616c.075-.423,1.122-4.381,2.513-5.192.683-.4.738-.589.846-.968.03-.109.063-.344.11-.646.39-2.487.757-3.811,1.682-4.147a2.639,2.639,0,0,1,3.2.72,5.309,5.309,0,0,0,1.857,1.124c.5-1.212,1.969-4.195,3.26-4.592a4.3,4.3,0,0,1,1.543-.107c.614.035,1.005.044,1.293-.2a7.692,7.692,0,0,0,.683-.759c1.029-1.228,2.942-3.514,4.954-2a5.3,5.3,0,0,1,2.07,4.084c.038.3.076.594.135.879a15.006,15.006,0,0,0,2.009,4.809,4.132,4.132,0,0,0,3.9,1.922c1.767-.14,2.193-.466,2.686-1.124a5.306,5.306,0,0,0,.389-.986c.363-1.088.814-2.44,1.927-2.928a2.312,2.312,0,0,1,1.93.092,2.881,2.881,0,0,1,2.058,2.669,1.15,1.15,0,0,0,.253.785c.186.2.436.2,1.048.169a3.047,3.047,0,0,1,2.763.908c.279.314.551.655.831,1.007a8.848,8.848,0,0,0,3.512,3.039c.531.223.966.382,1.329.514,1.3.475,2.012.735,2.544,2.331.55,1.652,1.313,4.79,1.546,5.948a8.254,8.254,0,0,1,.071,1.684,5.964,5.964,0,0,0,.431,3.037,7.23,7.23,0,0,0,1.611,1.5c1.1.854,2.354,1.822,2.531,3.182a32.191,32.191,0,0,0,2.067,6.469,21.345,21.345,0,0,0,2.255,4.161c.952,1.238.857,2.91.694,4.38-.033.293-.084.577-.135.853-.192,1.045-.247,1.534.476,2.177a2.233,2.233,0,0,0,2.043.488,7.118,7.118,0,0,1,1.33-.036,5.756,5.756,0,0,1,3.017,1.124l.33.207a8.572,8.572,0,0,1,1.234.949,2.758,2.758,0,0,0,1.084.7c.214.066.466.154.74.249a7,7,0,0,0,2.283.551,4.668,4.668,0,0,0,.52-.657,5.5,5.5,0,0,1,1.431-1.5,7.873,7.873,0,0,0,.889-.718,5.519,5.519,0,0,1,1.684-1.139c.2-.079.435-.19.688-.307,1.319-.613,2.242-.993,2.973-.656a1.178,1.178,0,0,1,.651.765,5.86,5.86,0,0,1,.07,1.764,4.849,4.849,0,0,0,.087,1.738.7.7,0,0,0,.492.265.779.779,0,0,0,.558-.12c.658-.556.691-.865.686-.946-.062-.917-.057-3.083,1.318-3.39a9.314,9.314,0,0,1,4.113-.07,2.708,2.708,0,0,1,1.591.939,2.342,2.342,0,0,0,.512.469,5.973,5.973,0,0,1,1.027.972,3.684,3.684,0,0,0,1.643,1.232,2.98,2.98,0,0,0,1.006.192,2.4,2.4,0,0,1,.656.1c.167-1.325.374-2.972,1.649-3.291a5.1,5.1,0,0,1,2.543.062c.3.058.647.126,1.067.193a8.784,8.784,0,0,0,1.17.1,2.093,2.093,0,0,1,2.267,1.333c.1.25.212.528.329.825a24.3,24.3,0,0,0,1.566,3.433,8.562,8.562,0,0,1,.586,1.225,2.442,2.442,0,0,0,.245.512,1.64,1.64,0,0,0,1.448-.447,3.111,3.111,0,0,1,1.412-.911,8.728,8.728,0,0,0,1.307-.562,11.552,11.552,0,0,1,2.348-.925,8.83,8.83,0,0,0,1.495-.543,10.672,10.672,0,0,1,2.507-.808,12.47,12.47,0,0,0,1.929-.58,4.284,4.284,0,0,1,2.384-.369,6.662,6.662,0,0,0,1.961-.361c1.352-.365,2.752-.744,3.677-.109.891.613.969,1.794,1.038,2.837a3.51,3.51,0,0,0,.3,1.573,4.717,4.717,0,0,1,.7,1.021c.283.516.349.64,1.088.668.467.022.537-.067.732-.3a1.821,1.821,0,0,1,2.117-.62,4.362,4.362,0,0,1,1.875,1.036,2.923,2.923,0,0,0,1.726.826c2.113.282,2.5.378,3.706,1.208a5.352,5.352,0,0,1,1.49,1.933,5.831,5.831,0,0,0,1.308,1.792c1.253,1,3.111,1.936,4.426,1.775a5.134,5.134,0,0,0,3.206-1.363,5.028,5.028,0,0,0,.826-1.928c.374-1.269.88-3.01,2.423-2.656.921.212,1.6,1.129,2.263,2.016.333.447.889,1.2,1.141,1.259.223-.148.058-1.363-.03-2.016a5.738,5.738,0,0,1-.041-2.174,5.06,5.06,0,0,0-.25-2.935,11.809,11.809,0,0,0-1.942-2.911,3.716,3.716,0,0,1-.755-1.811c-.113-.595-.154-.742-.55-.912a19.64,19.64,0,0,0-2.907-.843c-.738-.176-1.436-.342-2.052-.538-1.473-.469-4.1-1.735-5-2.8a9.133,9.133,0,0,1-1.533-4.212.972.972,0,0,1,.373-.779,1.674,1.674,0,0,1,1.527-.053c.28.074.937.245,1.1.143a1.227,1.227,0,0,0,.468-1.378,7.967,7.967,0,0,0-.753-.686c-1.027-.872-2-1.7-1.872-2.638a1.246,1.246,0,0,1,.759-.975,6.776,6.776,0,0,1,4.866-.046,16.077,16.077,0,0,1,1.576.579,3.78,3.78,0,0,0,2.063.5c.235-.069.336-.222.567-.641a2.672,2.672,0,0,1,1.472-1.426,6.306,6.306,0,0,0,1.137-.477,1.339,1.339,0,0,0-.133-.172c-.207-.236-.473-.493-.755-.771-1.221-1.2-2.74-2.684-2.23-4.361a13.621,13.621,0,0,1,1.511-3.054c.2-.32.371-.6.485-.829.053-.107.109-.23.17-.363.43-.949,1.151-2.538,2.825-2.7a12.013,12.013,0,0,0,3.8-.816l.2-.083c.786-.32,3.147-1.283,3.451-1.853-.023-.2-.106-.548-.185-.887-.344-1.451-.864-3.643.518-4.661l.427-.319a5.367,5.367,0,0,1,3.412-1.38,8.617,8.617,0,0,0,4.079-1.309,9.273,9.273,0,0,0,.366-1.234c.441-1.718.943-3.666,2.294-3.951a4.846,4.846,0,0,1,2,.125,2.817,2.817,0,0,0,1.989-.035,2.074,2.074,0,0,0,.757-.854,2.975,2.975,0,0,1,2.75-1.666,20.736,20.736,0,0,1,2.988.118,8.91,8.91,0,0,0,3.34-.065c.5-.2.837-.362,1.131-.507a5.035,5.035,0,0,1,2.106-.616c2.579-.247,3.231-.692,3.322-1.023a5.638,5.638,0,0,0-.624-3.55l-.062-.091c-.683-.984-1.618-2.331-1.261-3.665a3.864,3.864,0,0,0,.06-1.507c-.072-.418-.215-.635-.292-.657a2.927,2.927,0,0,0-1.193.2,5.982,5.982,0,0,1-2.69.29,4.071,4.071,0,0,1-3-1.851,1.65,1.65,0,0,1,.007-1.543,11.961,11.961,0,0,0,.921-3.367c.04-.259.055-.557.073-.868.071-1.265.178-3.178,2.069-3.493.383-.064.694-.141.966-.207a3.641,3.641,0,0,1,3.016.281,7.514,7.514,0,0,0,1.357.5,3.435,3.435,0,0,1,2.226,1.4c.839,1.3,3.853,3.537,4.511,3.159a2.7,2.7,0,0,0,1.282-1.806c.08-.238.159-.472.255-.695.064-.149.118-.291.17-.424a2.305,2.305,0,0,1,1.942-1.8c.263-.035.645-.121,1.111-.224a28.03,28.03,0,0,1,3.721-.632,7.649,7.649,0,0,0-.237-.815c-.606-1.615,5.854-4.138,9.285-4.541s3.129,1.615,6.056,1.716,3.633-3.835,4.34-5.551,2.927-1.211,5.248-1.615,2.826-2.523,4.34-3.633,0-3.734-.505-5.854,1.615-4.138,2.422-5.652-.5-1.716-2.826-3.532-7.065-5.652-8.881-7.469.707-6.964-.3-9.184-7.67-3.936-9.79-5.853-2.119-6.258-1.211-8.882,6.964-3.532,9.79-4.441,2.624-4.844,2.725-7.266-4.946-6.157-5.652-7.469-1.514.4-4.037,0,.2-4.239.3-6.056-3.229-.1-5.047-1.312-.4-3.734-.1-5.853,2.826-3.229,3.128-4.744-4.137-4.239-5.046-6.863,1.615-3.028,1.413-5.248-3.936-2.22-7.872-2.725-4.643-1.009-8.377-.5-4.239,3.835-5.955,5.248-2.422.3-4.642.1-1.817.909-3.936,2.826-2.12,3.734-2.523,5.753,3.532,3.129,4.441,4.441-1.11,2.22-3.129,2.927-2.725,3.835-4.34,5.248-1.211,1.11-3.835.3-1.312,1.211-3.634,1.312-1.716-1.412-1.615-2.725-2.019-1.918-1.817-3.835,4.945-2.422,6.964-3.128.807-4.744,1.413-6.762,1.615-3.936.4-5.349c-.435-.507-1.027-1.095-1.639-1.735-.976,1.2-2.481,3.084-3.953,4.925-2.363,2.956-4.6,5.747-5.035,6.228" transform="translate(-464.647 -421.207)" fill="#e8e8e8"/>
      <path id="Path_41971" data-name="Path 41971" d="M1208.47,560.777a3.688,3.688,0,0,1-1.486-.753l-.062-.055c-1.265-1.136-2.574-2.31-2.574-3.972,0-.455-.3-.8-.83-1.364a6.27,6.27,0,0,1-1.109-1.466,9.178,9.178,0,0,1-.676-3.855c-.009-.274-.018-.55-.032-.825-.061-1.219-1.642-3.683-2.411-4.451a11.6,11.6,0,0,0-2.728-1.155c-1.082-.378-2.309-.808-3.427-1.331a8.941,8.941,0,0,1-3.336-2.854,5.207,5.207,0,0,0-1.109-1.163c-.442-.276-1.186-.633-1.974-1.011a24.6,24.6,0,0,1-4-2.223,13.846,13.846,0,0,1-2-2.057,8.258,8.258,0,0,0-2.71-2.429c-.787-.313-2.286.806-3.492,1.706a9.969,9.969,0,0,1-2.754,1.666c-1.438.421-3.005-.932-4.822-2.5a11.586,11.586,0,0,0-3.463-2.4c-1.272-.319-2.51.686-3.6,1.571a6.6,6.6,0,0,1-1.86,1.215,6.291,6.291,0,0,1-5.713-1.267,7.511,7.511,0,0,1-1.7-2.992,7.872,7.872,0,0,0-.677-1.509c-.414-.62-.8-.617-2.782-.329l-.4.058c-1.071.153-2.154,1.615-3.023,2.789a7.949,7.949,0,0,1-1.625,1.832,1.665,1.665,0,0,1-1.413.3c-.717-.209-1.021-.892-1.287-1.495q-.022-.047-.042-.095c-.127.139-.261.294-.369.421a5.961,5.961,0,0,1-2.1,1.8c-.475.185-1.069,1.4-1.546,2.381a12.371,12.371,0,0,1-1.9,3.106,84.374,84.374,0,0,1-6.792,5.951c-.465.568-.522,4.337-.549,6.148a19.417,19.417,0,0,1-.162,3.1c-.447,1.9-4.347,3.512-6.405,3.88a5.025,5.025,0,0,1-3.826-.869,6.99,6.99,0,0,0-1.111-.569,4.682,4.682,0,0,0-3.148-.085l-.242.044c-.45.184-1.088,2.2-1.431,3.276-.653,2.058-1.169,3.683-2.361,3.815-.261.029-.542.076-.846.126a12.354,12.354,0,0,1-5.682-.148c-1.841-.5-2.987-2.106-4-3.524-.718-1.006-1.4-1.957-2.092-2.163a1.07,1.07,0,0,0-.492-.077,3.037,3.037,0,0,0-.18.309,2.854,2.854,0,0,1-2.229,1.657c-2.493.434-4.437-2.894-5.308-4.585a3.949,3.949,0,0,1-2.152,1.391,1.672,1.672,0,0,1-1.453-.347c-.92-.781-.873-2.5-.84-3.747.006-.191.01-.365.01-.515a6.891,6.891,0,0,0-.277-1.542,7.854,7.854,0,0,1-.342-2.746,3.768,3.768,0,0,1,.712-1.822,3.113,3.113,0,0,0,.61-1.713c.082-1.055-.986-2.326-1.928-3.447a15.281,15.281,0,0,1-1.3-1.694c-.392-.633-.746-.625-1.512-.607a4.512,4.512,0,0,1-1.829-.233,1.5,1.5,0,0,1-.876-.8,2.6,2.6,0,0,1,.245-1.991c.129-.325.371-.929.267-1.075a8.024,8.024,0,0,0-1.548-1.536c-.369-.306-.773-.642-1.227-1.068a7.637,7.637,0,0,0-3.848-1.985,3.464,3.464,0,0,0-2.139.214,6.833,6.833,0,0,1-2.258.433,6.013,6.013,0,0,1-2.133-.423,2.791,2.791,0,0,0-2.009-.152c-.365.1-.47.24-.318,1.491a2.682,2.682,0,0,1-.419,2.35,3.861,3.861,0,0,1-2.749,1.2c-.213.033-.452.07-.726.115a72.053,72.053,0,0,1-8,.478c-.405,0-.656.191-1.142.587a5,5,0,0,1-2.632,1.273c-1.9.281-2.833-1.063-3.452-1.953-.127-.183-.257-.369-.38-.52a3.131,3.131,0,0,1-.565,1.174,1.269,1.269,0,0,1-.879.508,1.5,1.5,0,0,1-1.1-.469c-.333-.288-.422-.365-.842-.146-.344.18-.593.331-.8.455-.964.584-1.319.682-3.239.49a1.953,1.953,0,0,0-.787.006.215.215,0,0,1-.039.061c-.429.552-.953.871-2.364.871-.951,0-1.647.043-2.261.082a11.965,11.965,0,0,1-3.088-.093,2.675,2.675,0,0,1-2.283-2.637,3.345,3.345,0,0,0-.186-.779c-.389-.841-.613-1.059-1.476-1.011a2.2,2.2,0,0,1-1.9-.77,2.817,2.817,0,0,1-.409-2.5,7.06,7.06,0,0,1,.241-.716c.212-.556.234-.614-.482-1.29a20.58,20.58,0,0,1-2.411-3.437c-1.157-1.857-2.6-4.168-3.644-4.893a3.967,3.967,0,0,0-1.091-.642,1.127,1.127,0,0,0-.129.035,3.809,3.809,0,0,1-1.5.124,2.8,2.8,0,0,1-2.474-1.412,1,1,0,0,0-1.277-.562,4.449,4.449,0,0,1-1.99-.366,1.233,1.233,0,0,1-.653-.792c-.221-.831.4-1.765,1.12-2.846a6.915,6.915,0,0,0,.8-1.388,19.491,19.491,0,0,0-.374-2.81c-.054-.31-.109-.621-.161-.928-.083-.5-.762-1.115-1.42-1.714a9.335,9.335,0,0,1-1.91-2.144c-.279-.488-.47-.891-.637-1.246a3.836,3.836,0,0,0-1.538-1.918c-.651-.456-1.038-.352-1.81-.144a6.328,6.328,0,0,1-2.041.289,8.288,8.288,0,0,1-4.022-.874c-1.791.975-4.707,1.142-7.81,1.221a11.078,11.078,0,0,1-3.349-.4,6.55,6.55,0,0,0-2.743-.23,4.039,4.039,0,0,0-3.338,1.938l-.257.335a9.074,9.074,0,0,0-.18,2.97,12.593,12.593,0,0,1-.41,4.642,5.207,5.207,0,0,1-2.09,2.758c-.269.2-.573.422-.932.742a4.035,4.035,0,0,0-1.437,2.669,4.151,4.151,0,0,0,1.264.481,5.114,5.114,0,0,1,2.092.941c.931.756,2.664,2.163,2.155,3.817a4.648,4.648,0,0,0,.43,2.8,5.611,5.611,0,0,0,.826.469c.994.507,2.355,1.2,2.624,2.545a6.828,6.828,0,0,0,.544,1.341c.671,1.4,1.589,3.319.068,4.84-.57.57-.972,1.043-1.326,1.462a9.266,9.266,0,0,1-2.211,2.051,11.441,11.441,0,0,1-1.883.912,4.638,4.638,0,0,0-1.479.78c.065.291.187.73.328,1.238a14.322,14.322,0,0,1,.75,4.631l-.044.618c-.11,1.591-.2,2.964-1.657,3.99a7.663,7.663,0,0,1-2.531,1.131,11.107,11.107,0,0,0-1.185.4,10.2,10.2,0,0,1-1.5.414c-.6.137-2.205.5-2.32.848a.292.292,0,0,0,.028.118,11.98,11.98,0,0,0,2.14,2.639c1.268,1.332,2.466,2.591,2.671,3.718a4.147,4.147,0,0,1-.216,2.2,1.834,1.834,0,0,0-.051,1.446,4.443,4.443,0,0,0,.857,1.352,4.983,4.983,0,0,1,1.222,2.322c.351,1.614-1.2,2.08-2.132,2.359-.829.249-1.687.506-2.017,1.191-.556,1.154-.556,1.154-.081,1.8.2.264.437.592.717,1.034a13.089,13.089,0,0,0,1.074,1.413c.875,1.046,1.779,2.127,1.289,3.806l-.2.7A34,34,0,0,1,967,581.838a5.66,5.66,0,0,1-.638.808c-.545.608-.846.943-.5,1.9.23.64,1.375,1.442,2.385,2.149,1.508,1.056,3.067,2.149,3.384,3.633.134.63.243,1.291.351,1.944a10.811,10.811,0,0,0,1.047,3.814c.621.88,2.508,3.555,1.614,6.039-.558,1.549.107,3.208,1.033,5.216a19.8,19.8,0,0,1,1.512,7.71,14.771,14.771,0,0,1-.429,2.7,7.254,7.254,0,0,0-.276,3.128c.064.254.123.478.176.679a4.234,4.234,0,0,1-.055,3.292,10.944,10.944,0,0,0-.424,1.929,18.375,18.375,0,0,1-1.009,3.945,5.18,5.18,0,0,1,.606,1.732c.232,1.042.416,1.686,1.01,1.852a7.259,7.259,0,0,0,2.148.206,3.671,3.671,0,0,1,2.214.426,8.374,8.374,0,0,1,1.39,1.443c.517.612,1.728,2.045,2.184,2.08a1.488,1.488,0,0,0,.511-.55,2.03,2.03,0,0,1,2.371-.993,9.759,9.759,0,0,1,2.718,1.156,6.14,6.14,0,0,0,1.852.8,4.024,4.024,0,0,0,.921-.778c.807-.8,1.912-1.9,3.4-1.712,1.392.174,2.214,1.89,2.941,3.4a11.458,11.458,0,0,0,.806,1.5c.418-.181.853-.4,1.31-.634a19.88,19.88,0,0,1,2-.924c.728-.273.921-1.445,1.05-2.22l.014-.086c.109-.653,1.041-3.417,2.473-4a1.43,1.43,0,0,1,1.432.176,8.746,8.746,0,0,1,1.968,3.2,12.936,12.936,0,0,0,1.672,2.982,15.535,15.535,0,0,0,1.376,1.223c1.279,1.053,2.6,2.143,2.6,3.615,0,.431-.049.945-.1,1.489-.109,1.151-.292,3.078.284,3.485,1.188.838,5.336,3.294,7.652,4.529a17.124,17.124,0,0,0,2.7,1.068c1.449.478,2.593.857,3,1.806a20.01,20.01,0,0,1,.663,4.611c.074.884.144,1.72.219,2.191a7.593,7.593,0,0,0,.6,1.644c.5,1.122,1.019,2.282.513,3.222-.468.87-1.886,1.86-3.692,3.065-.369.245-.708.473-.985.668a5.863,5.863,0,0,1-1.583.716,2.73,2.73,0,0,0-.9.4s-.038.105.077.425a15.369,15.369,0,0,0,2.179,4.552c.975,1.125,2.889,2.98,4.77,2.733a1.415,1.415,0,0,0,1.188-.882,2.1,2.1,0,0,1,2.845-1.039,17.214,17.214,0,0,1,1.953.776c.892.4,1.226.556,1.924.346a2.423,2.423,0,0,0,.927-.521,2.5,2.5,0,0,1,2.482-.546,6.933,6.933,0,0,1,2.163,1.055c1.21.771,2.014,1.216,2.952.881a8.225,8.225,0,0,0,4.194-4.11,11.356,11.356,0,0,0,.509-2.346c.281-1.8.524-3.357,1.471-3.881a1.4,1.4,0,0,1,1.253-.04,9.359,9.359,0,0,1,1.563.925c1.168.8,1.746,1.112,2.389.761a2.7,2.7,0,0,0,.966-.9,2,2,0,0,1,2.577-.822,3.662,3.662,0,0,1,2.067,1.755c.073.113.165.256.237.348.163-.1.184-.166.229-.51.166-1.245.868-1.694,2.425-1.547,2.471.233,2.949,1.671,3.41,3.063.1.306.209.632.346.973.169.422.323.873.479,1.33.5,1.454,1.01,2.957,2.073,3.512a2.492,2.492,0,0,0,1.846.386,1.828,1.828,0,0,0,.952-1.059,12.041,12.041,0,0,0,.5-3.392c.12-1.828.234-3.555.927-4.547a32.061,32.061,0,0,0,3.251-7.963c.234-1.128.546-2.334.822-3.4.255-.985.5-1.916.6-2.512.032-.183.062-.436.1-.731.193-1.593.485-4,1.774-4.958a2.065,2.065,0,0,1,1.616-.376,5.773,5.773,0,0,1,2.807,1.366,2.379,2.379,0,0,0,1.2.655c.308.04,1.184-.668,1.717-1.08,1.292-1,2.9-2.241,4.489-1.654a10.068,10.068,0,0,1,3.035,2.165,8.2,8.2,0,0,0,2.765,1.947,4.093,4.093,0,0,0,1.88.02c.877-.136,2.079-.325,2.769,1.222a4.3,4.3,0,0,1,.3,2.225c-.05.687-.063.872.459,1.22a3.374,3.374,0,0,0,1.125.52c.8.22,1.1.568,1.32,1.555a6.444,6.444,0,0,1,.119,1.438c0,.837.05.885.316,1l.33.143a14.3,14.3,0,0,1,2.736,1.434,8.978,8.978,0,0,0,.818.489,3.488,3.488,0,0,1,1.8,1.668c.055.129.123.322.206.556.277.781,1.013,2.857,1.821,3.19a.449.449,0,0,0,.407-.032c.691-.333,1.755-1.816,2.7-3.124,1.7-2.371,3.164-4.418,4.775-3.816a12.276,12.276,0,0,1,3.941,2.812c.167.161.318.305.451.427a1.618,1.618,0,0,1,.37,1.83c-.016.055-.038.129-.052.184a1.544,1.544,0,0,0,.323.155c1.813.68,5.865.976,6.775.493.458-.243,1.585-1.041,3.99-3.664.4-.44,2.722-3.34,4.965-6.146,1.615-2.019,3.162-3.954,4.12-5.13a8.379,8.379,0,0,1-1.607-2.6c-.706-2.119,4.34-6.358,4.945-7.166s-1.816-1.312-2.725-3.229,8.478-7.973,10.193-9.386,7.973-6.661,8.781-7.1-1.009-1.684-1.413-3.2,1.01-2.927,1.514-4.239-.1-3.735-1.211-5.047.807-3.129,2.725-4.239,5.248-1.312,6.762-2.22a34.046,34.046,0,0,0,5.248-4.138c.807-.909-.2-1.11-1.211-2.322s3.633-4.138,5.248-5.248,8.276-8.579,9.083-9.588-1.211-1.413-.707-3.532,5.248-3.432,6.46-4.239.3-2.422-1.817-3.431-6.056,1.817-8.881.706,7.166-6.762,7.67-7.469-.606-1.514-1.615-2.523,1.312-1.514,2.825-1.514,3.836-.4,5.45-.5a4.143,4.143,0,0,0,1.944-.837c.313-1.246.112-1.321-.492-1.508" transform="translate(-516.794 -266.814)" fill="#e8e8e8"/>
    </g>
  </g>
</svg>
