<svg xmlns="http://www.w3.org/2000/svg" width="105.941" height="101.379" viewBox="0 0 105.941 101.379">
  <path id="Path_41827" data-name="Path 41827" d="M57.467,4.5a6.3,6.3,0,0,1,6.084,4.42l8.793,27.06a3.389,3.389,0,0,0,3.231,2.348h28.452A6.4,6.4,0,0,1,107.788,49.9L84.769,66.625a3.389,3.389,0,0,0-1.234,3.8l8.793,27.06a6.288,6.288,0,0,1-.871,5.7,6.5,6.5,0,0,1-5.23,2.695,6.345,6.345,0,0,1-3.743-1.243L59.464,87.912a3.4,3.4,0,0,0-3.994,0L32.451,104.636a6.344,6.344,0,0,1-3.742,1.244,6.5,6.5,0,0,1-5.23-2.694,6.288,6.288,0,0,1-.871-5.7L31.4,70.424a3.387,3.387,0,0,0-1.234-3.8L7.147,49.9a6.4,6.4,0,0,1,3.76-11.572H39.359a3.39,3.39,0,0,0,3.232-2.348l8.792-27.06A6.3,6.3,0,0,1,57.467,4.5ZM86.226,102.88a3.538,3.538,0,0,0,2.8-1.458,3.276,3.276,0,0,0,.445-3.011l-8.793-27.06A6.381,6.381,0,0,1,83.006,64.2l23.019-16.724a3.4,3.4,0,0,0-2-6.145H75.575a6.382,6.382,0,0,1-6.084-4.421L60.7,9.848a3.4,3.4,0,0,0-6.462,0l-8.792,27.06a6.382,6.382,0,0,1-6.085,4.421H10.907a3.4,3.4,0,0,0-2,6.145L31.928,64.2a6.38,6.38,0,0,1,2.324,7.152l-8.792,27.06a3.276,3.276,0,0,0,.445,3.011,3.537,3.537,0,0,0,2.8,1.458,3.319,3.319,0,0,0,1.979-.671L53.707,85.485a6.4,6.4,0,0,1,7.52,0l23.019,16.724A3.321,3.321,0,0,0,86.226,102.88Z" transform="translate(-4.497 -4.501)" fill="#ff5000"/>
</svg>
