<svg xmlns="http://www.w3.org/2000/svg" width="104.2" height="104.2" viewBox="0 0 104.2 104.2">
  <g id="Group_59" data-name="Group 59" transform="translate(1.5 1.5)">
    <g id="Group_60" data-name="Group 60" transform="translate(0 0)">
      <path id="Ellipse_20" data-name="Ellipse 20" d="M39.659-1.5A41.17,41.17,0,0,1,55.681,77.583,41.169,41.169,0,0,1,23.638,1.735,40.9,40.9,0,0,1,39.659-1.5Zm0,79.318A38.17,38.17,0,0,0,54.512,4.5,38.169,38.169,0,0,0,24.806,74.82,37.919,37.919,0,0,0,39.659,77.818Z" transform="translate(7.099 86.004) rotate(-84.141)" fill="#ff5000"/>
      <path id="Ellipse_21" data-name="Ellipse 21" d="M50.6-1.5A52.113,52.113,0,0,1,70.88,98.605,52.113,52.113,0,0,1,30.32,2.595,51.775,51.775,0,0,1,50.6-1.5Zm0,101.2A49.113,49.113,0,0,0,69.712,5.358,49.113,49.113,0,0,0,31.489,95.842,48.791,48.791,0,0,0,50.6,99.7Z" fill="#ff5000"/>
      <path id="Line_18" data-name="Line 18" d="M0,8.746a1.5,1.5,0,0,1-1.5-1.5V0A1.5,1.5,0,0,1,0-1.5,1.5,1.5,0,0,1,1.5,0V7.246A1.5,1.5,0,0,1,0,8.746Z" transform="translate(50.6 18.259)" fill="#ff5000"/>
      <path id="Line_19" data-name="Line 19" d="M0,8.746a1.5,1.5,0,0,1-1.5-1.5V0A1.5,1.5,0,0,1,0-1.5,1.5,1.5,0,0,1,1.5,0V7.246A1.5,1.5,0,0,1,0,8.746Z" transform="translate(50.6 75.695)" fill="#ff5000"/>
      <path id="Line_20" data-name="Line 20" d="M7.246,1.5H0A1.5,1.5,0,0,1-1.5,0,1.5,1.5,0,0,1,0-1.5H7.246A1.5,1.5,0,0,1,8.746,0,1.5,1.5,0,0,1,7.246,1.5Z" transform="translate(18.259 50.6)" fill="#ff5000"/>
      <path id="Line_21" data-name="Line 21" d="M7.246,1.5H0A1.5,1.5,0,0,1-1.5,0,1.5,1.5,0,0,1,0-1.5H7.246A1.5,1.5,0,0,1,8.746,0,1.5,1.5,0,0,1,7.246,1.5Z" transform="translate(75.695 50.6)" fill="#ff5000"/>
      <path id="Path_41794" data-name="Path 41794" d="M176.451,172.417a4.035,4.035,0,1,0-4.035,4.035,4.035,4.035,0,0,0,4.035-4.035" transform="translate(-121.816 -121.817)" fill="#ff5000"/>
      <path id="Line_22" data-name="Line 22" d="M21.326,13.553a1.493,1.493,0,0,1-.737-.194L-.738,1.306A1.5,1.5,0,0,1-1.306-.738,1.5,1.5,0,0,1,.738-1.306L22.065,10.746a1.5,1.5,0,0,1-.739,2.806Z" transform="translate(29.273 38.548)" fill="#ff5000"/>
      <path id="Line_23" data-name="Line 23" d="M0,23.987a1.5,1.5,0,0,1-1.066-.445,1.5,1.5,0,0,1,.011-2.121L21.673-1.066a1.5,1.5,0,0,1,2.121.011,1.5,1.5,0,0,1-.011,2.121L1.055,23.553A1.5,1.5,0,0,1,0,23.987Z" transform="translate(50.6 28.114)" fill="#ff5000"/>
    </g>
  </g>
</svg>
