<svg xmlns="http://www.w3.org/2000/svg" width="60" height="61" viewBox="0 0 60 61">
  <g id="Group_47" data-name="Group 47" transform="translate(-1250 -3001.5)">
    <path id="Rectangle_4433" data-name="Rectangle 4433" d="M1.5,1.5v58h57V1.5H1.5M0,0H60V61H0Z" transform="translate(1250 3001.5)" fill="#fff"/>
    <g id="Group_40" data-name="Group 40" transform="translate(1254.262 3016.436)">
      <g id="Group_15" data-name="Group 15" transform="translate(4.738 4.739)">
        <path id="Path_41777" data-name="Path 41777" d="M54.813,14.608H13.862a.75.75,0,0,1-.75-.75,7.614,7.614,0,0,1,7.605-7.605h27.24a7.614,7.614,0,0,1,7.605,7.605A.75.75,0,0,1,54.813,14.608Zm-40.155-1.5H54.017a6.115,6.115,0,0,0-6.059-5.355H20.717A6.115,6.115,0,0,0,14.658,13.108Z" transform="translate(-13.084 -7.003)" fill="#fff"/>
        <path id="Path_41778" data-name="Path 41778" d="M45.581,132.28H20.732a9.506,9.506,0,0,1-6.179-2.187,7.086,7.086,0,0,1-2.622-5.367l-.145-1.076a.75.75,0,0,1,1.487-.2l.151,1.125a.749.749,0,0,1,.007.1c0,3.366,3.275,6.105,7.3,6.105H45.581c4.026,0,7.3-2.739,7.3-6.105v-1.262a.75.75,0,0,1,1.5,0v1.262a7.081,7.081,0,0,1-2.622,5.418A9.506,9.506,0,0,1,45.581,132.28Z" transform="translate(-11.903 -110.217)" fill="#fff"/>
        <path id="Path_41779" data-name="Path 41779" d="M30.351,74.482a8.318,8.318,0,0,1-5.039-1.6,5.15,5.15,0,0,1-2.193-4.1,4.606,4.606,0,0,1,.12-1.042.75.75,0,1,1,1.461.34,3.1,3.1,0,0,0-.081.7,3.689,3.689,0,0,0,1.6,2.9,7.225,7.225,0,0,0,8.257,0,3.689,3.689,0,0,0,1.6-2.9,3.1,3.1,0,0,0-.117-.842.75.75,0,1,1,1.444-.407,4.6,4.6,0,0,1,.173,1.248,5.15,5.15,0,0,1-2.193,4.1A8.318,8.318,0,0,1,30.351,74.482Z" transform="translate(-21.957 -60.853)" fill="#fff"/>
        <path id="Path_41780" data-name="Path 41780" d="M144.711,74.482a8.318,8.318,0,0,1-5.039-1.6,5.15,5.15,0,0,1-2.193-4.1,4.6,4.6,0,0,1,.12-1.042.75.75,0,0,1,1.461.34,3.1,3.1,0,0,0-.081.7,3.689,3.689,0,0,0,1.6,2.9,7.225,7.225,0,0,0,8.257,0,3.689,3.689,0,0,0,1.6-2.9,3.1,3.1,0,0,0-.117-.841.75.75,0,0,1,1.444-.407,4.6,4.6,0,0,1,.173,1.248,5.15,5.15,0,0,1-2.193,4.1A8.318,8.318,0,0,1,144.711,74.482Z" transform="translate(-123.353 -60.853)" fill="#fff"/>
        <path id="Path_41781" data-name="Path 41781" d="M259.071,74.482a8.318,8.318,0,0,1-5.039-1.6,5.15,5.15,0,0,1-2.193-4.1,4.608,4.608,0,0,1,.12-1.042.75.75,0,0,1,1.461.34,3.106,3.106,0,0,0-.081.7,3.689,3.689,0,0,0,1.6,2.9,7.225,7.225,0,0,0,8.257,0,3.689,3.689,0,0,0,1.6-2.9,3.1,3.1,0,0,0-.117-.842.75.75,0,0,1,1.444-.407,4.6,4.6,0,0,1,.173,1.248,5.15,5.15,0,0,1-2.193,4.1A8.318,8.318,0,0,1,259.071,74.482Z" transform="translate(-224.749 -60.853)" fill="#fff"/>
        <path id="Path_41782" data-name="Path 41782" d="M23.04,78.592h0a4.429,4.429,0,0,1-3.146-1.311,2.956,2.956,0,0,0-4.348,0A4.43,4.43,0,0,1,12.4,78.592c-2.831,0-4.268-2.549-4.546-3.1L7.5,75.071A5.254,5.254,0,0,1,6.26,71.978a5.14,5.14,0,0,1,.879-3.161c.186-.335,1.235-2.092,2.726-2.092H46.646a3.423,3.423,0,0,1,2.868,1.783,5.067,5.067,0,0,1,.644,3.169A6.09,6.09,0,0,1,49.1,74.624c-.264.677-1.707,3.968-4.779,3.968a4.43,4.43,0,0,1-3.147-1.311,2.957,2.957,0,0,0-4.349,0,4.432,4.432,0,0,1-6.292,0,2.956,2.956,0,0,0-4.348,0A4.428,4.428,0,0,1,23.04,78.592ZM9.864,68.225c-.475,0-1.131.8-1.425,1.34-.012.021-.025.044-.039.064a3.652,3.652,0,0,0,.254,4.481l.408.488a.75.75,0,0,1,.108.172c.01.021,1.1,2.323,3.229,2.323a2.963,2.963,0,0,0,2.174-.953,4.431,4.431,0,0,1,6.292,0,2.956,2.956,0,0,0,4.348,0,4.431,4.431,0,0,1,6.292,0,2.956,2.956,0,0,0,4.348,0,4.432,4.432,0,0,1,6.293,0,2.963,2.963,0,0,0,2.174.953c2.284,0,3.4-3.051,3.407-3.082a.76.76,0,0,1,.113-.207,4.437,4.437,0,0,0,.407-4.492,2.019,2.019,0,0,0-1.6-1.086Z" transform="translate(-7.002 -60.62)" fill="#fff"/>
        <path id="Line_5" data-name="Line 5" d="M3.847,4.817A.748.748,0,0,1,3.3,4.582L-.545.515A.75.75,0,0,1-.515-.545a.75.75,0,0,1,1.06.029L4.392,3.551a.75.75,0,0,1-.545,1.265Z" transform="translate(8.916 0.123)" fill="#fff"/>
        <path id="Line_6" data-name="Line 6" d="M3.847,4.817A.748.748,0,0,1,3.3,4.582L-.545.515A.75.75,0,0,1-.515-.545a.75.75,0,0,1,1.06.029L4.392,3.551a.75.75,0,0,1-.545,1.265Z" transform="translate(19.518 0.123)" fill="#fff"/>
        <path id="Line_7" data-name="Line 7" d="M3.847,4.817A.748.748,0,0,1,3.3,4.582L-.545.515A.75.75,0,0,1-.515-.545a.75.75,0,0,1,1.06.029L4.392,3.551a.75.75,0,0,1-.545,1.265Z" transform="translate(30.121 0.123)" fill="#fff"/>
      </g>
    </g>
  </g>
</svg>
