<svg xmlns="http://www.w3.org/2000/svg" width="60" height="61" viewBox="0 0 60 61">
  <g id="Group_48" data-name="Group 48" transform="translate(-1250 -3081.5)">
    <path id="Rectangle_4434" data-name="Rectangle 4434" d="M1.5,1.5v58h57V1.5H1.5M0,0H60V61H0Z" transform="translate(1250 3081.5)" fill="#fff"/>
    <g id="Group_42" data-name="Group 42" transform="translate(1256.903 3092.402)">
      <g id="Group_26" data-name="Group 26" transform="translate(6.097 6.098)">
        <path id="Path_41793" data-name="Path 41793" d="M25.044,5.348a19.177,19.177,0,0,1,11.764,3.8,13.489,13.489,0,0,1,3.624,4.186,10.7,10.7,0,0,1,0,10.4,13.488,13.488,0,0,1-3.624,4.186,19.177,19.177,0,0,1-11.764,3.8,20.7,20.7,0,0,1-6.153-.916,7.334,7.334,0,0,1-4.222,3.078,17.971,17.971,0,0,1-5.54.765,23.845,23.845,0,0,1-3.14-.194.75.75,0,0,1-.19-1.43c.062-.027,6.129-2.715,5.808-6.614a12.464,12.464,0,0,1-2.373-3.523,10.674,10.674,0,0,1,.419-9.547,13.491,13.491,0,0,1,3.625-4.186A19.184,19.184,0,0,1,25.044,5.348Zm0,24.869c8.4,0,15.235-5.242,15.235-11.685S33.444,6.848,25.044,6.848,9.8,12.09,9.8,18.533a9.934,9.934,0,0,0,3.053,7.009.75.75,0,0,1,.207.417c.483,3.31-2.277,5.792-4.4,7.18q.223,0,.46,0a16.732,16.732,0,0,0,5.073-.691,5.619,5.619,0,0,0,3.635-2.871.75.75,0,0,1,.93-.4A19.1,19.1,0,0,0,25.044,30.217Z" transform="translate(-6.097 -6.098)" fill="#fff"/>
      </g>
    </g>
  </g>
</svg>
