<svg xmlns="http://www.w3.org/2000/svg" width="60" height="61" viewBox="0 0 60 61">
  <g id="Group_633" data-name="Group 633" transform="translate(-1173 -2161.5)">
    <path id="Rectangle_4435" data-name="Rectangle 4435" d="M1.5,1.5v58h57V1.5H1.5M0,0H60V61H0Z" transform="translate(1173 2161.5)" fill="#fff"/>
    <g id="Group_41" data-name="Group 41" transform="translate(1177.997 2171.498)">
      <g id="Group_20" data-name="Group 20" transform="translate(7.003 7.002)">
        <path id="Path_41783" data-name="Path 41783" d="M7,85.214H42.8a.75.75,0,0,1,.75.75v16.858a.75.75,0,0,1-.75.75H40.364a.75.75,0,0,1-.743-.646,2.835,2.835,0,0,0-5.614,0,.75.75,0,0,1-.743.646H7a.75.75,0,0,1-.75-.75V96.99a.75.75,0,0,1,.643-.742,2.836,2.836,0,0,0,0-5.612.75.75,0,0,1-.643-.742V85.964A.75.75,0,0,1,7,85.214Zm35.046,1.5H7.753v2.581a4.337,4.337,0,0,1,0,8.294v4.483H32.664a4.336,4.336,0,0,1,8.3,0h1.084Z" transform="translate(-7.003 -77.554)" fill="#fff"/>
        <path id="Ellipse_13" data-name="Ellipse 13" d="M2.872-.75A3.622,3.622,0,1,1-.75,2.872,3.626,3.626,0,0,1,2.872-.75Zm0,5.744A2.122,2.122,0,1,0,.75,2.872,2.125,2.125,0,0,0,2.872,4.994Z" transform="translate(12.154 11.984)" fill="#fff"/>
        <path id="Path_41784" data-name="Path 41784" d="M7,16.162a.75.75,0,0,1-.21-1.47l17.542-5.13a.75.75,0,0,1,.862.349,1.679,1.679,0,0,0,3.139-.831c0-.029,0-.057,0-.084a.75.75,0,0,1,.538-.761l6.679-1.953a.75.75,0,0,1,.5.026,12.528,12.528,0,0,1,5.9,5.343,15.55,15.55,0,0,1,1.582,3.566.75.75,0,0,1-1.449.388,14.362,14.362,0,0,0-1.444-3.224A10.979,10.979,0,0,0,35.714,7.8L29.8,9.526a3.179,3.179,0,0,1-5.56,1.626L7.214,16.132A.751.751,0,0,1,7,16.162Z" transform="translate(-7.003 -7.002)" fill="#fff"/>
        <path id="Path_41786" data-name="Path 41786" d="M256.755,43.063a2.322,2.322,0,1,1,2.322-2.322A2.325,2.325,0,0,1,256.755,43.063Zm0-3.145a.822.822,0,1,0,.822.822A.823.823,0,0,0,256.755,39.918Z" transform="translate(-233.025 -22.329)" fill="#fff"/>
        <path id="Path_41787" data-name="Path 41787" d="M38.271,197.676a2.322,2.322,0,1,1,2.322-2.322A2.325,2.325,0,0,1,38.271,197.676Zm0-3.145a.822.822,0,1,0,.822.822A.823.823,0,0,0,38.271,194.531Z" transform="translate(-31.342 -174.48)" fill="#fff"/>
        <path id="Path_41789" data-name="Path 41789" d="M201,196.027a2.322,2.322,0,1,1,2.322-2.322A2.325,2.325,0,0,1,201,196.027Zm0-3.145a.822.822,0,1,0,.822.822A.823.823,0,0,0,201,192.882Z" transform="translate(-171.309 -180.148)" fill="#fff"/>
      </g>
    </g>
  </g>
</svg>
