<svg xmlns="http://www.w3.org/2000/svg" width="132.777" height="82.635" viewBox="0 0 132.777 82.635">
  <g id="Group_65" data-name="Group 65" transform="translate(1.5 1.5)">
    <g id="Group_66" data-name="Group 66" transform="translate(0 0)">
      <path id="Ellipse_22" data-name="Ellipse 22" d="M39.818-1.5A41.328,41.328,0,0,1,55.9,77.888,41.328,41.328,0,0,1,23.735,1.748,41.06,41.06,0,0,1,39.818-1.5Zm0,79.635A38.328,38.328,0,0,0,54.732,4.511,38.328,38.328,0,0,0,24.9,75.125,38.076,38.076,0,0,0,39.818,78.135Z" transform="translate(25.385 0)" fill="#ff5000"/>
      <path id="Path_41797" data-name="Path 41797" d="M133.377,95.27a26.52,26.52,0,1,1,10.354-2.091A26.434,26.434,0,0,1,133.377,95.27Zm0-50.2a23.52,23.52,0,1,0,9.185,1.854A23.45,23.45,0,0,0,133.377,45.073Z" transform="translate(-68.174 -28.854)" fill="#ff5000"/>
      <path id="Path_41798" data-name="Path 41798" d="M15.748,36.874a1.493,1.493,0,0,1-.924-.319L9.046,32.029Q9,32,8.962,31.959a12.653,12.653,0,0,1-4.41-9.344V9.328a1.5,1.5,0,0,1,3,0V22.615A9.683,9.683,0,0,0,10.941,29.7l5.733,4.491a1.5,1.5,0,0,1-.926,2.681Z" transform="translate(-6.052 -0.336)" fill="#ff5000"/>
      <path id="Path_41803" data-name="Path 41803" d="M0,26.162a1.5,1.5,0,0,1-1.5-1.5V0A1.5,1.5,0,0,1,0-1.5,1.5,1.5,0,0,1,1.5,0V24.662A1.5,1.5,0,0,1,0,26.162Z" transform="translate(9.697 9.212)" fill="#ff5000"/>
      <path id="Path_41799" data-name="Path 41799" d="M30.771,36.874a1.5,1.5,0,0,1-.926-2.681L35.578,29.7a9.683,9.683,0,0,0,3.389-7.088V9.328a1.5,1.5,0,0,1,3,0V22.615a12.653,12.653,0,0,1-4.41,9.344q-.041.037-.084.071l-5.778,4.526A1.494,1.494,0,0,1,30.771,36.874Z" transform="translate(-21.073 -0.336)" fill="#ff5000"/>
      <path id="Path_41800" data-name="Path 41800" d="M22.3,141.725a7.236,7.236,0,0,1-5.271-2.216,6.071,6.071,0,0,1-1.687-4.561l2.283-37.276a1.5,1.5,0,0,1,1.5-1.408h6.356a1.5,1.5,0,0,1,1.5,1.408l2.283,37.276a6.071,6.071,0,0,1-1.687,4.561A7.236,7.236,0,0,1,22.3,141.725ZM20.53,99.263l-2.2,35.868a3.1,3.1,0,0,0,.878,2.322,4.381,4.381,0,0,0,6.172,0,3.1,3.1,0,0,0,.878-2.322l-2.2-35.868Z" transform="translate(-12.6 -61.785)" fill="#ff5000"/>
      <path id="Path_41801" data-name="Path 41801" d="M300.552,36.874a1.5,1.5,0,0,1-1.069-.447L295.025,31.9q-.039-.04-.075-.082a14.238,14.238,0,0,1-3.381-9.205v-5.8a8.983,8.983,0,0,1,17.966,0v5.8a14.238,14.238,0,0,1-3.381,9.205q-.036.042-.075.082l-4.459,4.526A1.5,1.5,0,0,1,300.552,36.874Zm-3.35-7.038,3.35,3.4,3.35-3.4a11.235,11.235,0,0,0,2.633-7.222v-5.8a5.983,5.983,0,0,0-11.966,0v5.8A11.236,11.236,0,0,0,297.2,29.837Z" transform="translate(-178.257 -0.336)" fill="#ff5000"/>
      <path id="Path_41802" data-name="Path 41802" d="M309.314,141.725a7.236,7.236,0,0,1-5.271-2.216,6.071,6.071,0,0,1-1.687-4.561l2.283-37.276a1.5,1.5,0,0,1,1.5-1.408h6.356a1.5,1.5,0,0,1,1.5,1.408l2.283,37.276a6.071,6.071,0,0,1-1.687,4.561A7.236,7.236,0,0,1,309.314,141.725Zm-1.767-42.462-2.2,35.868a3.1,3.1,0,0,0,.878,2.322,4.381,4.381,0,0,0,6.172,0,3.1,3.1,0,0,0,.878-2.322l-2.2-35.868Z" transform="translate(-187.02 -61.785)" fill="#ff5000"/>
    </g>
  </g>
</svg>
