<svg xmlns="http://www.w3.org/2000/svg" width="60" height="61" viewBox="0 0 60 61">
  <g id="Group_634" data-name="Group 634" transform="translate(-1173 -2405)">
    <path id="Rectangle_4434" data-name="Rectangle 4434" d="M1.5,1.5v58h57V1.5H1.5M0,0H60V61H0Z" transform="translate(1173 2405)" fill="#fff"/>
    <path id="Path_41826" data-name="Path 41826" d="M25.321,38.034a.748.748,0,0,1-.53-.22L10.51,23.534A9.21,9.21,0,0,1,23.534,10.507l1.787,1.788,1.792-1.787A9.21,9.21,0,1,1,40.138,23.534l-2.322,2.317L25.852,37.815A.748.748,0,0,1,25.321,38.034Zm-8.3-28.723A7.709,7.709,0,0,0,11.57,22.473L25.321,36.224,36.756,24.789l2.322-2.317a7.71,7.71,0,0,0-10.9-10.9l-2.322,2.317a.75.75,0,0,1-1.06,0l-2.316-2.316A7.677,7.677,0,0,0,17.022,9.311Z" transform="translate(1177.676 2412.939)" fill="#fff"/>
  </g>
</svg>
