<svg xmlns="http://www.w3.org/2000/svg" width="99.66" height="99.17" viewBox="0 0 99.66 99.17">
  <g id="Group_70" data-name="Group 70" transform="translate(1.5 1.5)">
    <path id="Path_41807" data-name="Path 41807" d="M170.446,180.417a1.5,1.5,0,0,1-.75-.2l-13.39-7.731a1.5,1.5,0,0,1-.75-1.3V155.725a1.5,1.5,0,0,1,.75-1.3l13.39-7.731a1.5,1.5,0,0,1,1.5,0l13.39,7.731a1.5,1.5,0,0,1,.75,1.3v15.462a1.5,1.5,0,0,1-.75,1.3l-13.39,7.731A1.5,1.5,0,0,1,170.446,180.417Zm-11.89-10.1,11.89,6.865,11.89-6.865v-13.73l-11.89-6.865-11.89,6.865Z" transform="translate(-122.116 -115.171)" fill="#ff5000"/>
    <path id="Path_41808" data-name="Path 41808" d="M170.614,190.316a1.5,1.5,0,0,1-.743-.2l-13.559-7.731a1.5,1.5,0,1,1,1.486-2.606l12.806,7.3,12.474-7.293a1.5,1.5,0,1,1,1.514,2.59l-13.222,7.731A1.5,1.5,0,0,1,170.614,190.316Z" transform="translate(-122.116 -140.532)" fill="#ff5000"/>
    <path id="Line_27" data-name="Line 27" d="M0,16.962a1.5,1.5,0,0,1-1.5-1.5V0A1.5,1.5,0,0,1,0-1.5,1.5,1.5,0,0,1,1.5,0V15.462A1.5,1.5,0,0,1,0,16.962Z" transform="translate(48.498 48.284)" fill="#ff5000"/>
    <path id="Path_41809" data-name="Path 41809" d="M320,180.417a1.5,1.5,0,0,1-.75-.2l-13.39-7.731a1.5,1.5,0,0,1-.75-1.3V155.725a1.5,1.5,0,0,1,.75-1.3l13.39-7.731a1.5,1.5,0,0,1,1.5,0l13.39,7.731a1.5,1.5,0,0,1,.75,1.3v15.462a1.5,1.5,0,0,1-.75,1.3l-13.39,7.731A1.5,1.5,0,0,1,320,180.417Zm-11.89-10.1L320,177.185l11.89-6.865v-13.73L320,149.726l-11.89,6.865Z" transform="translate(-236.732 -115.171)" fill="#ff5000"/>
    <path id="Path_41810" data-name="Path 41810" d="M320.17,190.316a1.5,1.5,0,0,1-.743-.2l-13.559-7.731a1.5,1.5,0,1,1,1.486-2.606l12.806,7.3,12.474-7.293a1.5,1.5,0,0,1,1.514,2.59l-13.222,7.731A1.5,1.5,0,0,1,320.17,190.316Z" transform="translate(-236.733 -140.532)" fill="#ff5000"/>
    <path id="Path_41811" data-name="Path 41811" d="M250.475,39.923a1.5,1.5,0,0,1-.75-.2l-13.39-7.731a1.5,1.5,0,0,1-.75-1.3V15.231a1.5,1.5,0,0,1,.75-1.3L249.725,6.2a1.5,1.5,0,0,1,1.5,0l13.39,7.731a1.5,1.5,0,0,1,.75,1.3V30.693a1.5,1.5,0,0,1-.75,1.3l-13.39,7.731A1.5,1.5,0,0,1,250.475,39.923Zm-11.89-10.1,11.89,6.865,11.89-6.865V16.1l-11.89-6.865L238.584,16.1Z" transform="translate(-183.448 -7.5)" fill="#ff5000"/>
    <path id="Path_41812" data-name="Path 41812" d="M250.643,49.823a1.5,1.5,0,0,1-.743-.2L236.342,41.9a1.5,1.5,0,1,1,1.486-2.606l12.806,7.3L263.108,39.3a1.5,1.5,0,0,1,1.514,2.59L251.4,49.618A1.5,1.5,0,0,1,250.643,49.823Z" transform="translate(-183.449 -32.861)" fill="#ff5000"/>
    <path id="Line_29" data-name="Line 29" d="M0,15.674a1.5,1.5,0,0,1-1.5-1.5V0A1.5,1.5,0,0,1,0-1.5,1.5,1.5,0,0,1,1.5,0V14.174A1.5,1.5,0,0,1,0,15.674Z" transform="translate(67.195 15.462)" fill="#ff5000"/>
    <path id="Path_41813" data-name="Path 41813" d="M251.2,319.2a1.5,1.5,0,0,1-.75-.2l-13.39-7.731a1.5,1.5,0,0,1-.75-1.3V294.512a1.5,1.5,0,0,1,.75-1.3l13.39-7.731a1.5,1.5,0,0,1,1.5,0l13.39,7.731a1.5,1.5,0,0,1,.75,1.3v15.462a1.5,1.5,0,0,1-.75,1.3L251.947,319A1.5,1.5,0,0,1,251.2,319.2Zm-11.89-10.1,11.89,6.865,11.89-6.865v-13.73l-11.89-6.865-11.89,6.865Z" transform="translate(-184.002 -221.535)" fill="#ff5000"/>
    <path id="Path_41814" data-name="Path 41814" d="M251.365,329.1a1.5,1.5,0,0,1-.743-.2l-13.559-7.731a1.5,1.5,0,1,1,1.486-2.606l12.806,7.3,12.474-7.293a1.5,1.5,0,0,1,1.514,2.59L252.122,328.9A1.5,1.5,0,0,1,251.365,329.1Z" transform="translate(-184.002 -246.896)" fill="#ff5000"/>
    <path id="Line_30" data-name="Line 30" d="M0,16.962a1.5,1.5,0,0,1-1.5-1.5V0A1.5,1.5,0,0,1,0-1.5,1.5,1.5,0,0,1,1.5,0V15.462A1.5,1.5,0,0,1,0,16.962Z" transform="translate(67.363 80.708)" fill="#ff5000"/>
    <path id="Path_41815" data-name="Path 41815" d="M85.067,39.923a1.5,1.5,0,0,1-.75-.2l-13.39-7.731a1.5,1.5,0,0,1-.75-1.3V15.231a1.5,1.5,0,0,1,.75-1.3L84.317,6.2a1.5,1.5,0,0,1,1.5,0l13.39,7.731a1.5,1.5,0,0,1,.75,1.3V30.693a1.5,1.5,0,0,1-.75,1.3l-13.39,7.731A1.5,1.5,0,0,1,85.067,39.923Zm-11.89-10.1,11.89,6.865,11.89-6.865V16.1L85.067,9.232,73.177,16.1Z" transform="translate(-56.684 -7.5)" fill="#ff5000"/>
    <path id="Path_41816" data-name="Path 41816" d="M85.235,49.823a1.5,1.5,0,0,1-.743-.2L70.933,41.9a1.5,1.5,0,1,1,1.486-2.606l12.806,7.3L97.7,39.3a1.5,1.5,0,1,1,1.514,2.59L85.992,49.618A1.5,1.5,0,0,1,85.235,49.823Z" transform="translate(-56.683 -32.861)" fill="#ff5000"/>
    <path id="Line_31" data-name="Line 31" d="M0,15.915a1.5,1.5,0,0,1-1.5-1.5V0A1.5,1.5,0,0,1,0-1.5,1.5,1.5,0,0,1,1.5,0V14.415A1.5,1.5,0,0,1,0,15.915Z" transform="translate(28.552 15.462)" fill="#ff5000"/>
    <path id="Path_41817" data-name="Path 41817" d="M85.067,319.2a1.5,1.5,0,0,1-.75-.2l-13.39-7.731a1.5,1.5,0,0,1-.75-1.3V294.512a1.5,1.5,0,0,1,.75-1.3l13.39-7.731a1.5,1.5,0,0,1,1.5,0l13.39,7.731a1.5,1.5,0,0,1,.75,1.3v15.462a1.5,1.5,0,0,1-.75,1.3L85.817,319A1.5,1.5,0,0,1,85.067,319.2Zm-11.89-10.1,11.89,6.865,11.89-6.865v-13.73l-11.89-6.865-11.89,6.865Z" transform="translate(-56.684 -221.535)" fill="#ff5000"/>
    <path id="Path_41818" data-name="Path 41818" d="M85.235,329.1a1.5,1.5,0,0,1-.743-.2l-13.558-7.731a1.5,1.5,0,0,1,1.486-2.606l12.806,7.3L97.7,318.578a1.5,1.5,0,1,1,1.514,2.59L85.992,328.9A1.5,1.5,0,0,1,85.235,329.1Z" transform="translate(-56.683 -246.896)" fill="#ff5000"/>
    <path id="Line_32" data-name="Line 32" d="M0,16.962a1.5,1.5,0,0,1-1.5-1.5V0A1.5,1.5,0,0,1,0-1.5,1.5,1.5,0,0,1,1.5,0V15.462A1.5,1.5,0,0,1,0,16.962Z" transform="translate(28.552 80.708)" fill="#ff5000"/>
    <path id="Path_41819" data-name="Path 41819" d="M20.89,180.417a1.5,1.5,0,0,1-.75-.2L6.75,172.485a1.5,1.5,0,0,1-.75-1.3V155.725a1.5,1.5,0,0,1,.75-1.3l13.39-7.731a1.5,1.5,0,0,1,1.5,0l13.39,7.731a1.5,1.5,0,0,1,.75,1.3v15.462a1.5,1.5,0,0,1-.75,1.3l-13.39,7.731A1.5,1.5,0,0,1,20.89,180.417ZM9,170.32l11.89,6.865,11.89-6.865v-13.73l-11.89-6.865L9,156.591Z" transform="translate(-7.5 -115.171)" fill="#ff5000"/>
    <path id="Path_41820" data-name="Path 41820" d="M21.059,190.316a1.5,1.5,0,0,1-.743-.2L6.757,182.389a1.5,1.5,0,0,1,1.486-2.606l12.806,7.3,12.474-7.293a1.5,1.5,0,0,1,1.514,2.59l-13.222,7.731A1.5,1.5,0,0,1,21.059,190.316Z" transform="translate(-7.5 -140.532)" fill="#ff5000"/>
    <path id="Line_33" data-name="Line 33" d="M0,16.962a1.5,1.5,0,0,1-1.5-1.5V0A1.5,1.5,0,0,1,0-1.5,1.5,1.5,0,0,1,1.5,0V15.462A1.5,1.5,0,0,1,0,16.962Z" transform="translate(13.559 48.284)" fill="#ff5000"/>
    <path id="Line_28" data-name="Line 28" d="M0,15.766a1.5,1.5,0,0,1-1.5-1.5V0A1.5,1.5,0,0,1,0-1.5,1.5,1.5,0,0,1,1.5,0V14.266A1.5,1.5,0,0,1,0,15.766Z" transform="translate(83.438 48.284)" fill="#ff5000"/>
  </g>
</svg>
