<svg xmlns="http://www.w3.org/2000/svg" width="60" height="61" viewBox="0 0 60 61">
  <g id="Group_45" data-name="Group 45" transform="translate(-1250 -2842)">
    <path id="Rectangle_4432" data-name="Rectangle 4432" d="M1.5,1.5v58h57V1.5H1.5M0,0H60V61H0Z" transform="translate(1250 2842)" fill="#fff"/>
    <g id="Group_43" data-name="Group 43" transform="translate(1253.35 2843)">
      <g id="Group_23" data-name="Group 23" transform="translate(9.65 10)">
        <path id="Ellipse_14" data-name="Ellipse 14" d="M16.471-.75a17.225,17.225,0,0,1,6.7,33.088A17.225,17.225,0,0,1,9.768.6,17.114,17.114,0,0,1,16.471-.75Zm0,32.942A15.721,15.721,0,0,0,27.588,5.355,15.721,15.721,0,1,0,5.355,27.588,15.618,15.618,0,0,0,16.471,32.192Z" transform="matrix(0.002, -1, 1, 0.002, 0, 39.515)" fill="#fff"/>
        <path id="Path_41791" data-name="Path 41791" d="M75.085,166.517A12.4,12.4,0,0,1,71.2,142.345a.75.75,0,0,1,.47,1.424,10.894,10.894,0,1,0,7.147.109.75.75,0,1,1,.513-1.409,12.4,12.4,0,0,1-4.243,24.048Z" transform="translate(-58.582 -131.045)" fill="#fff"/>
        <path id="Path_41792" data-name="Path 41792" d="M168.959,239.032a3.081,3.081,0,1,1-3.081,3.081A3.084,3.084,0,0,1,168.959,239.032Zm0,4.662a1.581,1.581,0,1,0-1.581-1.581A1.583,1.583,0,0,0,168.959,243.694Z" transform="translate(-152.456 -219.038)" fill="#fff"/>
        <path id="Line_8" data-name="Line 8" d="M0,8.364a.75.75,0,0,1-.75-.75V0A.75.75,0,0,1,0-.75.75.75,0,0,1,.75,0V7.614A.75.75,0,0,1,0,8.364Z" transform="translate(16.503 13.13)" fill="#fff"/>
        <path id="Line_9" data-name="Line 9" d="M0,3.893a.75.75,0,0,1-.75-.75V0A.75.75,0,0,1,0-.75.75.75,0,0,1,.75,0V3.143A.75.75,0,0,1,0,3.893Z" transform="translate(14.543 3.419)" fill="#fff"/>
        <path id="Rectangle_4384" data-name="Rectangle 4384" d="M1.709-.75H5.594a2.459,2.459,0,1,1,0,4.918H1.709a2.459,2.459,0,1,1,0-4.918ZM5.594,2.668a.959.959,0,0,0,0-1.918H1.709a.959.959,0,0,0,0,1.918Z" transform="translate(12.851 0)" fill="#fff"/>
        <path id="Line_10" data-name="Line 10" d="M0,3.893a.75.75,0,0,1-.75-.75V0A.75.75,0,0,1,0-.75.75.75,0,0,1,.75,0V3.143A.75.75,0,0,1,0,3.893Z" transform="translate(18.462 3.419)" fill="#fff"/>
      </g>
    </g>
  </g>
</svg>
