<svg xmlns="http://www.w3.org/2000/svg" width="65.865" height="109.984" viewBox="0 0 65.865 109.984">
  <g id="Group_660" data-name="Group 660" transform="translate(-291.214 -3075.5)">
    <path id="Ellipse_95" data-name="Ellipse 95" d="M31.432-1.5A32.923,32.923,0,0,1,54.719,54.719,32.932,32.932,0,1,1,18.613,1.089,32.728,32.728,0,0,1,31.432-1.5Zm0,62.865A29.941,29.941,0,0,0,43.083,3.852a29.94,29.94,0,0,0-23.3,55.161A29.743,29.743,0,0,0,31.432,61.365Z" transform="translate(292.714 3077)" fill="#ff5000"/>
    <path id="Path_41830" data-name="Path 41830" d="M75.521,80.915H62.612a7.276,7.276,0,0,1-7.268-7.268,1.5,1.5,0,0,1,3,0,4.273,4.273,0,0,0,4.268,4.268H75.521a4.268,4.268,0,1,0,0-8.536H62.887a7.268,7.268,0,0,1,0-14.536H75.8a7.276,7.276,0,0,1,7.268,7.268,1.5,1.5,0,1,1-3,0A4.273,4.273,0,0,0,75.8,57.843H62.887a4.268,4.268,0,0,0,0,8.536H75.521a7.268,7.268,0,1,1,0,14.536Z" transform="translate(255.983 3040.573)" fill="#ff5000"/>
    <path id="Line_49" data-name="Line 49" d="M0,9.465a1.5,1.5,0,0,1-1.5-1.5V0A1.5,1.5,0,0,1,0-1.5,1.5,1.5,0,0,1,1.5,0V7.965A1.5,1.5,0,0,1,0,9.465Z" transform="translate(325.187 3119.987)" fill="#ff5000"/>
    <path id="Line_50" data-name="Line 50" d="M0,9.465a1.5,1.5,0,0,1-1.5-1.5V0A1.5,1.5,0,0,1,0-1.5,1.5,1.5,0,0,1,1.5,0V7.965A1.5,1.5,0,0,1,0,9.465Z" transform="translate(325.187 3088.95)" fill="#ff5000"/>
    <path id="Path_41831" data-name="Path 41831" d="M37.147,171.662a96.964,96.964,0,0,1-22.592-2.36c-6.861-1.725-10.341-4.1-10.341-7.043,0-2.3,2.135-4.258,6.345-5.825a1.5,1.5,0,0,1,1.047,2.812c-3.466,1.29-4.391,2.5-4.391,3.013,0,.365.456,1.026,1.737,1.787a24.908,24.908,0,0,0,6.336,2.347,93.939,93.939,0,0,0,21.86,2.27,93.939,93.939,0,0,0,21.86-2.27,24.907,24.907,0,0,0,6.335-2.347c1.28-.761,1.737-1.422,1.737-1.787,0-.57-1.082-1.9-5.137-3.278a1.5,1.5,0,1,1,.965-2.841,18.061,18.061,0,0,1,4.945,2.4,4.707,4.707,0,0,1,2.228,3.717c0,2.948-3.479,5.318-10.34,7.043A96.964,96.964,0,0,1,37.147,171.662Z" transform="translate(286.999 2979.171)" fill="#ff5000"/>
    <path id="Path_41832" data-name="Path 41832" d="M37.147,208.271a96.967,96.967,0,0,1-22.592-2.36c-6.862-1.725-10.341-4.1-10.341-7.043a1.5,1.5,0,0,1,3,0c0,.365.456,1.026,1.737,1.787A24.909,24.909,0,0,0,15.286,203a93.941,93.941,0,0,0,21.86,2.27A93.939,93.939,0,0,0,59.007,203a24.909,24.909,0,0,0,6.336-2.347c1.28-.761,1.737-1.422,1.737-1.787a1.5,1.5,0,0,1,3,0c0,2.948-3.479,5.318-10.341,7.043A96.965,96.965,0,0,1,37.147,208.271Z" transform="translate(287 2954.113)" fill="#ff5000"/>
    <path id="Path_41833" data-name="Path 41833" d="M37.147,237.633a96.966,96.966,0,0,1-22.592-2.36c-6.862-1.725-10.341-4.1-10.341-7.043a1.5,1.5,0,0,1,3,0c0,.365.456,1.026,1.737,1.787a24.909,24.909,0,0,0,6.336,2.347,93.94,93.94,0,0,0,21.86,2.27,93.938,93.938,0,0,0,21.86-2.27,24.909,24.909,0,0,0,6.336-2.347c1.28-.761,1.737-1.422,1.737-1.787a1.5,1.5,0,0,1,3,0c0,2.948-3.479,5.318-10.341,7.043A96.964,96.964,0,0,1,37.147,237.633Z" transform="translate(287 2936.301)" fill="#ff5000"/>
    <path id="Path_41834" data-name="Path 41834" d="M37.147,213.559a96.968,96.968,0,0,1-22.592-2.36c-6.861-1.725-10.341-4.1-10.341-7.043v-34.65a1.5,1.5,0,0,1,3,0v34.65c0,.365.456,1.026,1.737,1.787a24.906,24.906,0,0,0,6.335,2.347,93.942,93.942,0,0,0,21.86,2.27,93.945,93.945,0,0,0,21.861-2.27,24.907,24.907,0,0,0,6.336-2.347c1.28-.761,1.737-1.422,1.737-1.787v-34.65a1.5,1.5,0,0,1,3,0v34.65c0,2.948-3.479,5.318-10.341,7.043A96.971,96.971,0,0,1,37.147,213.559Z" transform="translate(286.999 2971.925)" fill="#ff5000"/>
  </g>
</svg>
